<mxfile host="app.diagrams.net" agent="Mozilla/5.0 (Macintosh; Intel Mac OS X 10_15_7) AppleWebKit/537.36 (KHTML, like Gecko) Chrome/127.0.0.0 Safari/537.36" version="24.7.10">
  <diagram name="Page-1" id="mLy_4dn2UoS3FWdnfPeT">
    <mxGraphModel dx="2484" dy="1312" grid="1" gridSize="10" guides="1" tooltips="1" connect="1" arrows="1" fold="1" page="1" pageScale="1" pageWidth="827" pageHeight="1169" math="0" shadow="0">
      <root>
        <mxCell id="0" />
        <mxCell id="1" parent="0" />
        <mxCell id="li965YYbxcyMD9VlGafR-5" style="edgeStyle=orthogonalEdgeStyle;rounded=0;orthogonalLoop=1;jettySize=auto;html=1;exitX=1;exitY=0.5;exitDx=0;exitDy=0;entryX=0;entryY=0.5;entryDx=0;entryDy=0;" edge="1" parent="1" source="li965YYbxcyMD9VlGafR-3" target="li965YYbxcyMD9VlGafR-4">
          <mxGeometry relative="1" as="geometry" />
        </mxCell>
        <mxCell id="li965YYbxcyMD9VlGafR-3" value="&lt;font face=&quot;Times New Roman&quot; style=&quot;font-size: 18px;&quot;&gt;&lt;b style=&quot;&quot;&gt;Primary&amp;nbsp;&lt;/b&gt;&lt;/font&gt;&lt;div style=&quot;font-size: 18px;&quot;&gt;&lt;font face=&quot;gYpDor_JI9W_3dZdOjYv&quot; style=&quot;font-size: 18px;&quot;&gt;&lt;b style=&quot;&quot;&gt;Data&lt;/b&gt;&lt;/font&gt;&lt;/div&gt;" style="rounded=0;whiteSpace=wrap;html=1;" vertex="1" parent="1">
          <mxGeometry x="230" y="490" width="120" height="60" as="geometry" />
        </mxCell>
        <mxCell id="li965YYbxcyMD9VlGafR-8" style="edgeStyle=orthogonalEdgeStyle;rounded=0;orthogonalLoop=1;jettySize=auto;html=1;" edge="1" parent="1" source="li965YYbxcyMD9VlGafR-4">
          <mxGeometry relative="1" as="geometry">
            <mxPoint x="710" y="520" as="targetPoint" />
          </mxGeometry>
        </mxCell>
        <mxCell id="li965YYbxcyMD9VlGafR-14" style="edgeStyle=orthogonalEdgeStyle;rounded=0;orthogonalLoop=1;jettySize=auto;html=1;entryX=0.5;entryY=0;entryDx=0;entryDy=0;" edge="1" parent="1" source="li965YYbxcyMD9VlGafR-4" target="li965YYbxcyMD9VlGafR-9">
          <mxGeometry relative="1" as="geometry">
            <Array as="points">
              <mxPoint x="551" y="410" />
              <mxPoint x="1048" y="410" />
            </Array>
          </mxGeometry>
        </mxCell>
        <mxCell id="li965YYbxcyMD9VlGafR-4" value="&lt;span style=&quot;font-size: 18px;&quot;&gt;&lt;b style=&quot;&quot;&gt;&lt;font face=&quot;Times New Roman&quot;&gt;Preprocessing (Normalization)&lt;/font&gt;&lt;/b&gt;&lt;/span&gt;" style="rounded=0;whiteSpace=wrap;html=1;" vertex="1" parent="1">
          <mxGeometry x="471" y="490" width="160" height="60" as="geometry" />
        </mxCell>
        <mxCell id="li965YYbxcyMD9VlGafR-10" style="edgeStyle=orthogonalEdgeStyle;rounded=0;orthogonalLoop=1;jettySize=auto;html=1;" edge="1" parent="1" source="li965YYbxcyMD9VlGafR-6">
          <mxGeometry relative="1" as="geometry">
            <mxPoint x="980" y="521" as="targetPoint" />
          </mxGeometry>
        </mxCell>
        <mxCell id="li965YYbxcyMD9VlGafR-6" value="" style="shape=image;verticalLabelPosition=bottom;labelBackgroundColor=default;verticalAlign=top;aspect=fixed;imageAspect=0;image=data:image/png,iVBORw0KGgoAAAANSUhEUgAAAQgAAAD+CAYAAADGSptPAAAKsWlDQ1BJQ0MgUHJvZmlsZQAASImVlwdUU9kWhs+96SGhJSAgJfQmSCeAlNBD781GSAKEEmIgKFhRxBEcUUREwAI6FFFwLICMFVFsg6BSVHRABgFlHCyIisq7wCLMzFvvvfX2Wmed7+7ss/c+d51z1x8AyFSWQJAESwOQzE8TBnk40yIio2i4EYAHEJACFgDHYqcKGAEBPgCx+fnv9rEbiUXsodFMrn///b+aDIebygYACkA4hpPKTkb4HDLG2QJhGgCo44hfc22aYIZvIUwVIg0i3DfDcXM8PsMxs4xGz8aEBLkgrAAAnsRiCeMAIGkhflo6Ow7JQ3JF2ITP4fERRp6BQ3JyCgdhpC7QQ2IECM/kp8f8JU/c33LGiHOyWHFintvLrOFdeamCJFbG//k6/rclJ4nma+gggxQv9AxCZqQvqDcxxVvM/Bg//3nmcWbjZzle5Bk6z+xUl6h55rBcvcVrk/x85jmW584U50ljhswzN9UteJ6FKUHiWrFCF8Y8s4QLdUWJoWJ/PJcpzp8ZHxI+z+m8ML95Tk0M9l6IcRH7haIgcf9cvofzQl138d6TU/+yXx5TvDYtPsRTvHfWQv9cPmMhZ2qEuDcO19VtISZUHC9IcxbXEiQFiOO5SR5if2p6sHhtGnIgF9YGiN9hAssrYJ6BKwgAZsATmX0BE9CAKaADE2CSxl03c0aBS4ogQ8iLi0+jMZBbxqUx+WzjJTQzEzMLAGbu7NyReN87exchefyCL6UZgGXIPYI2LfhiyACcuQgAec+CT1sKAOmjALSqsUXC9DnfzHUCGEBEvgVUoAhUgSbQA0ZIn1bADjgBN+AF/EEIiASrABvEg2QgBGvBBpAFckAe2AP2gxJwBBwD1eAUOAMawUVwDdwEd0EH6AJPQT8YAq/BOPgIpiAIwkFkiAIpQmqQNmQImUF0yAFyg3ygICgSiobiID4kgjZA26A8qAAqgcqhGuhn6AJ0DboNdUKPoQFoFHoHfYFRMAmmwiqwDrwUpsMM2BsOgVfCcfAaOBPOhnfDxXAFfBJugK/Bd+EuuB9+DU+gAEoCJY9SRxmh6CgXlD8qChWLEqI2oXJRRagKVB2qGdWGeojqR42hPqOxaAqahjZC26E90aFoNnoNehN6F7oEXY1uQLeiH6IH0OPo7xgyRhljiLHFMDERmDjMWkwOpghTiTmPuYHpwgxhPmKxWHmsLtYa64mNxCZg12N3YQ9h67FXsZ3YQewEDodTxBni7HH+OBYuDZeDO4g7ibuCe4Abwn3CS+DV8GZ4d3wUno/fii/Cn8Bfxj/AD+OnCNIEbYItwZ/AIWQQ8gnHCc2E+4QhwhRRhqhLtCeGEBOIWcRiYh3xBrGP+F5CQkJDwkYiUIInsUWiWOK0xC2JAYnPJFmSAcmFtIIkIu0mVZGukh6T3pPJZB2yEzmKnEbeTa4hXyc/J3+SpEgaSzIlOZKbJUslGyQfSL6RIkhpSzGkVkllShVJnZW6LzUmTZDWkXaRZklvki6VviDdIz0hQ5ExlfGXSZbZJXNC5rbMiCxOVkfWTZYjmy17TPa67CAFRdGkuFDYlG2U45QblCEqlqpLZVITqHnUU9R26ricrJyFXJjcOrlSuUty/fIoeR15pnySfL78Gflu+S+LVBYxFnEX7VxUt+jBokmFxQpOClyFXIV6hS6FL4o0RTfFRMW9io2Kz5TQSgZKgUprlQ4r3VAaW0xdbLeYvTh38ZnFT5RhZQPlIOX1yseU7ylPqKiqeKgIVA6qXFcZU5VXdVJNUC1Uvaw6qkZRc1DjqRWqXVF7RZOjMWhJtGJaK21cXVndU12kXq7erj6loasRqrFVo17jmSZRk64Zq1mo2aI5rqWm5au1QatW64k2QZuuHa99QLtNe1JHVydcZ4dOo86IroIuUzdTt1a3T4+s56i3Rq9C75E+Vp+un6h/SL/DADawNIg3KDW4bwgbWhnyDA8Zdi7BLLFZwl9SsaTHiGTEMEo3qjUaMJY39jHeatxo/Gap1tKopXuXti39bmJpkmRy3OSpqaypl+lW02bTd2YGZmyzUrNH5mRzd/PN5k3mby0MLbgWhy16LSmWvpY7LFssv1lZWwmt6qxGrbWso63LrHvoVHoAfRf9lg3Gxtlms81Fm8+2VrZptmds/7Qzsku0O2E3skx3GXfZ8WWD9hr2LPty+34HmkO0w1GHfkd1R5ZjheMLJ00njlOl0zBDn5HAOMl442ziLHQ+7zzpYuuy0eWqK8rVwzXXtd1N1i3UrcTtubuGe5x7rfu4h6XHeo+rnhhPb8+9nj1MFSabWcMc97L22ujV6k3yDvYu8X7hY+Aj9Gn2hX29fPf59vlp+/H9Gv2BP9N/n/+zAN2ANQG/BGIDAwJLA18GmQZtCGoLpgSvDj4R/DHEOSQ/5GmoXqgotCVMKmxFWE3YZLhreEF4f8TSiI0RdyOVInmRTVG4qLCoyqiJ5W7L9y8fWmG5ImdF90rdletW3l6ltCpp1aXVUqtZq89GY6LDo09Ef2X5sypYEzHMmLKYcbYL+wD7NceJU8gZ5dpzC7jDsfaxBbEjcfZx++JG4x3ji+LHeC68Et7bBM+EIwmTif6JVYnTSeFJ9cn45OjkC3xZfiK/NUU1ZV1Kp8BQkCPoX2O7Zv+acaG3sDIVSl2Z2pRGRcTRPZGeaLtoIN0hvTT909qwtWfXyazjr7uXYZCxM2M40z3zp/Xo9ez1LRvUN2RtGNjI2Fi+CdoUs6lls+bm7M1DWzy2VGcRsxKzft1qsrVg64dt4duas1Wyt2QPbvfYXpsjmSPM6dlht+PID+gfeD+07zTfeXDn91xO7p08k7yivK+72Lvu/Gj6Y/GP07tjd7fnW+Uf3oPdw9/Tvddxb3WBTEFmweA+330NhbTC3MIP+1fvv11kUXTkAPGA6EB/sU9x00Gtg3sOfi2JL+kqdS6tL1Mu21k2eYhz6MFhp8N1R1SO5B35cpR3tLfco7yhQqei6Bj2WPqxl8fDjrf9RP+pplKpMq/yWxW/qr86qLq1xrqm5oTyifxauFZUO3pyxcmOU66nmuqM6srr5evzToPTotOvfo7+ufuM95mWs/Szdee0z5Wdp5zPbYAaMhrGG+Mb+5simzoveF1oabZrPv+L8S9VF9Uvll6Su5R/mXg5+/L0lcwrE1cFV8euxV0bbFnd8vR6xPVHrYGt7Te8b9y66X7zehuj7cot+1sXb9vevnCHfqfxrtXdhnuW987/avnr+Xar9ob71vebOmw6mjuXdV5+4Pjg2kPXhzcfMR/d7fLr6uwO7e7tWdHT38vpHXmc9Pjtk/QnU0+39GH6cp9JPyt6rvy84jf93+r7rfovDbgO3HsR/OLpIHvw9e+pv38dyn5Jflk0rDZcM2I2cnHUfbTj1fJXQ68Fr6fGcv6Q+aPsjd6bc386/XlvPGJ86K3w7fS7Xe8V31d9sPjQMhEw8fxj8sepydxPip+qP9M/t30J/zI8tfYr7mvxN/1vzd+9v/dNJ09PC1hC1qwUQCEDjo0F4F0VohsiAaB0AEBcPqepZw2a+x8wS+A/8ZzunjUrgEgDACKvAhCIjKNOiAZBnqW2ABCAcIgTgM3NxWNe/85q9Vn5ux2ALB9TuolJR19VOfiHzen4v/T9zxmIs/5t/heQWQV1VVAwWgAAAFZlWElmTU0AKgAAAAgAAYdpAAQAAAABAAAAGgAAAAAAA5KGAAcAAAASAAAARKACAAQAAAABAAABCKADAAQAAAABAAAA/gAAAABBU0NJSQAAAFNjcmVlbnNob3TGDneuAAAB1mlUWHRYTUw6Y29tLmFkb2JlLnhtcAAAAAAAPHg6eG1wbWV0YSB4bWxuczp4PSJhZG9iZTpuczptZXRhLyIgeDp4bXB0az0iWE1QIENvcmUgNi4wLjAiPgogICA8cmRmOlJERiB4bWxuczpyZGY9Imh0dHA6Ly93d3cudzMub3JnLzE5OTkvMDIvMjItcmRmLXN5bnRheC1ucyMiPgogICAgICA8cmRmOkRlc2NyaXB0aW9uIHJkZjphYm91dD0iIgogICAgICAgICAgICB4bWxuczpleGlmPSJodHRwOi8vbnMuYWRvYmUuY29tL2V4aWYvMS4wLyI+CiAgICAgICAgIDxleGlmOlBpeGVsWURpbWVuc2lvbj4yNTQ8L2V4aWY6UGl4ZWxZRGltZW5zaW9uPgogICAgICAgICA8ZXhpZjpQaXhlbFhEaW1lbnNpb24+MjY0PC9leGlmOlBpeGVsWERpbWVuc2lvbj4KICAgICAgICAgPGV4aWY6VXNlckNvbW1lbnQ+U2NyZWVuc2hvdDwvZXhpZjpVc2VyQ29tbWVudD4KICAgICAgPC9yZGY6RGVzY3JpcHRpb24+CiAgIDwvcmRmOlJERj4KPC94OnhtcG1ldGE+ClGWSGsAAEAASURBVHgB7N1pc1zXdTf6BYIgCBCcR3GQoNGyRst25DjxIMtxPCTO8MQ3N6lUpfIqb/JU3co3uK/yIVKpVN2qOJW6SezESRxFHiTLsjxIliXLmgdCIsV5BAEQAwE863fAZbfbAAhSlERCvaXD7j5nD2v4r/9ee5/Tja7ZLNEpHQt0LNCxwDwWWDHPuc6pjgU6FuhYoLFAhyA6QOhYoGOBBS2wcsErnQvL2gJWljMzM80xPT3d6Nrd3R2Orq6u5ljWBugotyQLdAhiSWZaPpWKGCYmJ2Ps7NkYHT8bE1NTjYKre3piTV9f9K3ui95VqxqyWD6adzS5FAt0COJSrHaVtkEOk0kMx0+fioNnTsehsdE4PjkeY9PnMmOI6F+xMjavWh07+tbENes3xOY8epI0ZBSd8t60QIcg3kN+n8pM4cDRI/Hwjx+PRyeH48XNa2N066boXrc2UMC5kZEY2PdG3HpqLO7bvCM+9v4745pt2zok8R7CSLuqXTmrdG5ztltlGX4eGxuLlw8diIcO74tv9M7EmbVrYrJ3VcysnNtzoDIorDg3HT0Tk7Ht5Jm4a2QqPrN9T9xz0y2xOpccnUxiGQLjAip1MogLGGg5XBb4R48fj2ePHIxnZibi+JatSQzpekuHvNY6R8z0rIyJPA6m4jMzw7Hx+KG4efeeWJVLje7OUmM5wOGidOjc5rwoc12dlc/mZuRzp4/HE+fGYt/6/pjNYG9K3sVAEL90OBezca6vN45vXBtPr5yJ148fjdGzY80dj6vTAh2pL9UCHYK4VMtdJe3cyjwzOhIvTY7G871dcXrdmrmMATEsVGby2ooVMZkk8frA6njt2JEYzv2J6YY8FmrUOb8cLdAhiOXo1RadLB/Ojk/EaC4PJnLPYTYDv8kYWurM+zbbzWQmcbanO07krdCzkxMxc/55iXnrd04uSwt0CGJZunVOKeQgg5g8NxVTXfk+H4Jq9h2WqnOSymzuVZzN26CTU+c6S4yl2m0Z1esQxDJyZrsq7jqsyIyhr3d19MeKWJV3KLosH5byWMP5OiuTXNat6s0+Og9Otdv3vfC5QxDL3MsIon/16lg3PRtrxsaj+9y51HgJDNG1IvIGaPRPnout/QPRnySjr055b1mgc5tzmfrb8uJckoE7GCdPnIjpN96MlSPH82moyYgbr8tNSLc4U/ms90vFrUxLi3zisvvUmdhx9HTsuWFPDPT1dx69/iVDvTc+dAhiGfoZOXik+vTpfJz60KF4/fXX4+gzz8fU0YMxeexozG7bHN1r+iMjfi6ZKI5IYpBbNPsWh49G9wuvxqbhc7Hx1g83z0EsQ1N1VLqABToEcQEDXW2XkcPERD4MlQ9Gvfbaaw1BHD16NE6dPBlj+w/GSN6yXLlre/TdclN0b9oQs6t68s7GnJYrZpMekli6Tp6OyZ88G2Pf+UG8sao/Xr/7g9GfT1Ju2LAhVuVrp7x3LNAhiGXka+SADBDDm2++2TzvYKPSUuPYsWPx5suvxEg+8HR3T19cd+9InN2xOQ7lcw7He+cenNowPhnXT87GtbMr48jRsXhs/+H4yYGD8f/ll7g+9alPxUc+8pG47rrrore3dxlZraPKYhboEMRi1rkKrlXGcPjw4XCcOXMmfClLEI+OjjafT+QehIxiPPcjduVj1v/X/b8VN9x2a8z0rY7T+bTDyMzc70EM5Mbklvw25+bevji+bVds6+6Jb3zjG00fr776arMHcerUqbj55pubbKLz3YyrACBvUcQOQbxFA76bzcfHx+NkLh0OHjzYHH1+yyEPP/oyPDzcZBC+pHXkyJEms3Dt3nvvjfvuuy82b97c3JWYyuzi3PkHoFZmO0sI37tAJH159wMB/eAHP2j6sMRAPJYwN9xwQ2zdurWz5Hg3AfAOjN0hiHfAyJdrCMHabCDmPgECMJtbUsgQzObr16+PlflgkwBGHg5ZhOWFtrfcckt84hOfiD179jTksFgGsHbt2njf+97XLE/27t3btNevcd0ZkaX4jGj6+/ubr4RfLj07/Vw5FugQxJXjiwtKYi9hJL8TIeCl/JYTsoIdO3bENddc0ywxnBe8gt91SwtBff311zfk8KEPfWjJtyv1/f73vz8++9nPxosvvtgQg4ykxnKXxJ6EY+PGjZ3nJC7owauvQocgrhKf+d1IAY8AhoaGwudt+WMu1157bZjt3coUxJYBAwMDzS1OGURlGrfffnt88IMfbNosVeXmIavMDj7wgQ80pGPjE0kZ27jGJItiWWPsTlleFugQxFXgT0uJN954oznM4GbsnTt3Nqm9z+5aOCwhKmvQBkGY5W+99db42Mc+FrfddlvT5mJURhKWJPqyvLGfYd9DZiIbsYR54YUXGqL45Cc/2ckkLsa4V0Hdzi9KXYFOEojW94L9wIEDTRbgs/0FWcP27dsbqe0/eBBKkMoaXBe82nndt29f04/M4Td+4zdicHBwycuLdrMgGnsRDnseNjM3bdoUa9asaTIK8tVyZ/fu3c35zqPZ7Va8+j53MogryGc2EqXvFdwIwF6CwEMKAtJaX9Zg1ha0q/NOw5YtW5olgNldHw5PUip33XVX8/yCjMMy4FKLZYw7F4IeGSAx+yHktVFJNnsjL730UrNXgSTI6kdvO+XqtUDn2zdXgO8EtKAT8G5ZWtfba/Bcgw3IO+64o9ksFIhm71deeaWpgzx27drV3G6UaRQp2KQUwDYT77nnnqYOklmoFKksdN15xLBu3bpGHoTkTgbSsPRAZLUvQSbyk7GyG/13ytVpgc4S4132m0AW2ALcPoNZWPruroONQEsHwSkQ1fnJT37SBOfdd9/981nbZqGZWgDv37+/IRGpvzsQDrch27OHClrjz8z66bm5jUYBrtRru3nIihCeeuqphhQ8F2FJg5RsZiKlZ599tpGVHoO5rCFD5+fz2y15dXzuLDHeRT8JKsFlppWa+yzIbQoiB4GNHCwpkAMiENgyCksGG4X2GSxJPN3oLoOA184zEfqQOeijvQh0WYA/njOevxal+IM5Ho5yCOj52jlvOSHoH3300SaLkNmQXdZAfksR5IDwXn755ebuhkzIuYWIp12+zucrwwKdDOJd8IMgFpwCXgBZy8sYPJkosM3+FdjuRiAPRCA477zzzmZtbwmCNGQGAhTJ6NMSRFsBbHOydeZGLuO5lDmYdV8+tD9eHj4Ze2em4nj3iuZbnJvPzcQN3b1x87qNcfPO3bErswHt20tlPTIFJGAfxC1OyyO6+M4GEnGL1TlZjYeu6Ei/Dkm0W/TK/dzJIN4h3whOzxDYZzDzC3zBJJgRw4033tgEmVm2CESwW8/LMgSWjUozNDIQeALNeTO9PQzBjFzUszehryr6PDVyJl48cii+e+xgvD6Ty5qBlXFsZU+M5t/GyEVFrE35Xsvfk3l2eiTed+j1uGfkdLxv+87YnJuN3S1ZiPGQApnpRB6yusMiMyGzPQl6qUdP2Q0ZLUHsYZCzU658C3QyiHfAR4KlHnmWNQgiQWaX31LBbGstL+ARCRJRz+ysXgW8Os7LHszYtUno7oVbnIhEKi9wEYTgrHIyCelnh96Mh04ejkd6Z2Msf916Or+sNYscclzFv7P5C1Irzo7HluHRuGPsXHxyYHN8/NbbYk0uP+ab+Y0tw7EvUc9mIAh1LZUciIHciBGJIQnLH/LTr1OuXAt0Moi3yTeVMVibm0HdkRA4Akm6fdNNNzVLA4FdRV37DVLy5557rnn/mc98ppmZZQBmYbc3646Bup5LsLEpEBGLzUu3GJFJFfWHDrwZj2ZW8P21SSS7d8XsdKYKSUb5Ta2q1vzAFJaYXdMXR/J4fCT/FsbQ/nj/rt2xKjMNX+JqL7IBOiAAstioFPx0tSeBADzApR7ZnXv++ecbkmQD+yXaz0c+7WN1Pr/zFuhkEG+DzYsckIHAsVcgFTfDeuTZzNkeFIK4CECgC3JPPrqLUUQgoxD4SEAwqu+zPQiBZ99B0FmGtAaczOKrL/w0vj52Ivbv2hqT/XnLEzksUroysHuSPLYePh7/z+qtcdfu62JD9jvfjI+8ZBLf+973GpLy1Cb9PPptKVQPaTmHzOy7kB+ReMqT/PPtdSwiXufSO2SBTn53mQ0tWCwnBIBNPNmAVN8s6hC87eSAPASSwHFHwvLBnQDkgGys8c3IiGIwbxsq+pVxmIGRi7pSd59byUH7sfy7Fie788tba1bHufwFqWSHpo/F/mlILuudyR+TOZR/eGc0b7MaZ76CNOwpeAScLojR5qnPZEIUiEF7yyokJouSVckmvGrXKVeeBX6R3155sl11ErmLYCY10wO9mVEgCArEUOl0KYZMBL0Mw3MFrgsemYY2iqWGLASpuJUpY/jZz37WkA7iMSYC8cQkYlGvtTSElcE9kkuH8d76wzmtNRZ4n8Tij/BN5rLixPhojE3MEcRCM73N1uvzLgViQY72HZAZUqTbY4891jy0hTTYxQYqEpEF0VGWY5mE6DrlyrHAL6PpypHrqpBEMJgVZQyWBXby60tS1twCxE5+3bJsVcqMadNOJoBUBL6U21HLCucFmxla8NjMRBayDRmGsd1KRBSue23PHsg4Mz0T0+cDfrYrmeIiynRWb9pm+8UKYkJqlgx1l0bWYLOUHWxk0oU8sgp1tUESyJReSIVeiNL5Vl0WG7tz7e2zQIcgLtG2NfsLAoGMGASsVBvIBbpZcr41u1lfO882SMe1sbmHAMzQZlNLCkGFLMzMZl3LD4TidqLxixzctbCv0RpQrluCGGs0+5sePhNdfV3RtT6XLRl8FyxJJP7rTXLZmD95358EJmgXK3Qlrwe57IkgMjLUt0ids9xwF4eNZFX2ZLwiCLqRl+3oizRbdVps7M61t8cCHYK4SLsKvMoaAPqZZ55p7lIAtcAwO7an+TVEBa0lhXayCCm4AKrgE1CWDK4LFht+nnUQbAjFMsL3Kx544IFmNrZhiSAUchnD4dFspKUvwXd6+Fh0b00S2ZAEsTbT+AtkBBmZ0TMzG5vyj+3sWbMt1uZtzvnIrnSrVwFtg1Wm4LHwp59+ugl4hKC9PQd7M/R1DomSH+khj4ceeqixB+Kopy+XMm6N33m9vBboEMQS7VnLCbO75xAErEC0ppZGm/EsJSrQ27sVvJYhTz75ZLMUMdNKxwcz/S5CcTtUGo54BId9BeQgwAWVFNzTkTYzpeHGtbQgm7Zkk5FY6tjbQEBkNGP3HToWfUcOx0huOnbdc4c/ftG0+xWiyAB3B2M2204fORqTjz8Th3bfHNtXrgq/WUnupQSsZzcQGfl//OMfx6/92q/9/Par2532JMhNf7rIotjDe/b94Q9/2BCLPRx9LGTXdjt3Pl9eC3QIYgn2FGStywJLCoC1mQjgUmRLg4UCR3vBK9BlAYLfskGAS6MVwSyzQBDIxIakJYcsoG6TIiEZhjrGtr+hriwBYSEgcipmZnsSiEPfXeMT0XXqeEz1dsfs9buj25IkiaAplU3kX9uazWXFbP7K9cSbh2Lmiadj7XOvxRuT3bE6tyD0bVxyFKnNdfCr/7KHesiJzmQW7M7RnR5DuYxCOJUpIAf2RBxFwjISGYY9nc5y41ft/Haf6RDEAhYGUjO2oLPp5lUR0AAL2NL9mt3mA6/gRQyC156DPn2XQmALFBkH8hDEUm+v+qvryMEdC3JI2xW/MK0vwS9IvUdWFZCC2KapwDS+V59PHj8Rw0lQPadPxT233xHTm/KHb1d1x1iSwjl/hi/LypSlP29dbO3qjjXjEaMr+uLASN6ZSfkH8m9zKmSku8OywMxv/Hb9fSajwHZnhpytxIbAEET9rgX9EC2bWK55teciE7L0YAt2Me6FyKkRtPPPZbFAhyDazCiIBa2gtLsuuAFVsb9g1kcMAN4eFK1dCU6gdsvTksFns6P9BsGsbRGIGVYQSMsFk1dB7VxlHGZXstibECjkU0c/gsldAf1ZYiAlMzQ9BJjNTOdHjx2PPf1r4ndWDMT4uZ44knWOz07HWPNcxGz051/W2pJ/C2MwNyW3bl4Xp963Kh4+cKwhRwRpHP3qiw7IiKwCG3G2Z1A+C2iZg3ZuaXr1GSGQjz5+Lo/sMgsEacNVO3pqg1iQtOvaFSm32rvz/u2xQIcgWuyKHMy4gsGMJ7UXBMCKGKTC3rcHQksXzVtBoA8zJICb8cyK9iuKHIxlNkYAdveRDgIx49pgdAfjkUceacZUz7LGUkLQWKsLFFlIyWM8gYuULCnM6gJQXwgCmRjjw/k7kh/OjU3POAznA1CnxvIZh6m5X5/q78mfkVuzNjaayS1Ptm6Pc1Pnmq9165NtEBIyoCPi0y+ZyIIojNta2Mp5xEc2OhQBIFxER3/LL/3SpzIS7+mp/PSnP21sRSfnEGL7WK3jdt5fHgt0HrU+b0cBKwgA+PHHH2/WwB5ddgCyGXwpxUyIXL7//e83fdlLkDUgl9aMQz0Zwo9+9KMm8P7oj/6omRmdN6t++ctfjq985SvxZ3/2Z00wephIEP7N3/xNI4/AU1fwm2EtPchoY1CgDSU5mZnp5G6CGdgdjz/5kz9p7rYsRZfKQP7nf/6nyabIL2hlDTZQjSG4kZDNUl/zRgYLESg5LZmQrj/go40+bbrahEU6n//853++bCkZ6Ylc6IiUtPP49mJjVdvO61uzwHueIBCDIJMtOMyIZjjr68oYzPoLgb7V/NoCsMARBK0pceu6WT0zpuWHGVR2on8ZgICzpLFBaaYUjOoJEFmIP3yjlLzOa4vELAEsi7TXb22MymLsfWgr+xDkSy2CE7nYKyCHLIJ92E1GhJSMRQ7LmdZMyB5Eq93U0wdilPH4e5+yD2NYPiE0YyEfuraScsnBvnRHJuxruWKcVvJdqm6dehe2QPf/m+XC1ZZfDbNjAdsMJogEtVnJJqSgFQi1JFjMAoLFLGqGdACvlNpMp78iB/UAHQn4NSbLC0EgiASMzzYryeb5B9mA8wIPWclGBAJZkRBi0x6JWJfLXNzilDXoQ9AiCUHrNqPnNOh0McFEtgp09qKb/RfpvaWPbEW6j3R8rlus9FRH3SIJdnAOyajHtuRGbPoht7sX2tr8pFstI/ShjnOua09/9i15LkavxfzZufYLC7znMgjgNIMLHgfAF5iBTzCZ1S60CcmE2iGVmrUFMiALGLMrQCOFGlOwq1uzv2BFJIKLLGZXddxK/OhHP9oEsrW3wBFIgsGYDsEg4By1FFBPe2RFLoQh+DyQZJmj3yKrX0Bgae/oZh/ETC/TMQa59c9WdZDBoRRByIbYVV2yynBkAvqzbGIrNkMw9l68siPiK6IukqE7W1kKetUfMjFG7cl0iGJpPl1KrfcMQVSgSmGBC8gFEWAJIK81Uy7FcIAJyIAuI9CXlFdfAtl4Zlx1ANmsL7sw89mItHyQYSAjgWTfwTVLBQGjIAcBqT+zrTGRSi09kBuyIYNrCAAB0VFAu25pIXMQgBVkS9Fvvjp0Yjf7CEOZwUjvnSM3UvBUKJ0EseAnG91bZfaevuzl6+HqWfbY60Eg+mMnexIKmzqQUWvgG4Nt68EzJMFug7nR21lyzOe9Szu37JcYAAdMACnYzNIIQrHOlbabecz2rQBczJz61J8AsJ6WIQgMABUArpm9jeOodbfZEYA9DSkgLBvMvGZ9G4naIhhgFyTf/e53m8AXUGZ+QS6Yavcf6ehbRmTsSt0Rk36RnnHoh2DeamEfJEMWSxd6yrrIjaDoTFbZgoMeCtKiIz9U+5LHNecFtfrOly+QC7JzTX+tBOc9HRFH6Y0wnFOfjEv151u1y3Juv+wzCKkwENpncCfALFszXc1mFwsks7P+zKICxAwN3IIAaQhcZGRZIJgFk89myC9+8YtNQAEwYKvrUeTqR1qt33/5l3+J//7v/44//uM/bu4OVJZDVoTwzW9+sxmvZk1tkIz9kwqkX//1X29I4nIGSyvhurvBvsakJ/ua+Y2LyOivPrvYW7DRSX72l30IbgRKfxmIfRLZgjY+I0l9IqLPfe5zTSaFgFoLYkKIfGz/RjZn78YdG/7tlLdmgWVJEABmNqlZXAoMWNJ5dyfMxIK1HWyLmVKfAlqfUmyvZjqzM9ADNLDqU9/AKTCtt4G3AkNwOK+uTUkBRT63/QR2LUVswFlKWCKQGYEIFDv9yMBMSx/LD4QlAJGUdvpHKNpeTnJotQ/5S1byk28wsyPvLRvM5PYP6m4E2dnBEoWMsgYZFPs572AzdmA/9tIGgdDN+3rAqjKTkqfVN+zDN4iW/dhIf51yaRZYVg9K1cwDgGZyoDO7AJQZTvZQxACASy36NVMKiCeeeKLJHioABKfrPpsxpcJejak+sApSM71liPfqAzzy0B4B6N9ywWxKZvf5zcT6QhyVCSEH183aAkr/dTcEYSEoBCj4Ko2fT08yCHKB6lUxjvZeL2QfddhUe/KwuVckoS3bu5WLOOvWKvkQmmsC396JbAi5OF+ZFj9ZJvCVQNevL2/RXR/0Yu8qxnMeGbAvHfSP0OlGTtc75eItsCwyCCCVMUhlAU7QAYfz0ljAqU3ICwGfCStw9KEv4K/NTWmvok9AFqTAihC8B2rtEJTZErgFK4IQBMDrvL0LAURGM50+nDNbIozf/d3fbdJtRGJWRiYCSMAhDYAnW5GM9jYlEZT+BEX7zIkUJrPOafpMnI1T01Mxml/MmsrzyqquFdGfgb8xH7fenI9kr18z0ATjYjZjb8FoCUVX5FTZDrsZ0zn2dwjuIkft6MMm/MdmdLJHY2+ILtrTW6blGr2RBtuzOaJqLfpjL3YkD7uwFx+w/9uVUbXKsJzeX9UEATyCArjMomZgIHKXQEAKNCACwKUUxABggAX4QA+0ZmmfzWqVNkuNkY8grAAij/GRiCcp1bU/AZyAWvJ6ItDvOZDb7UeZBRCbUQWQ4LC5iDykzPrTL308RGQ8fdjEc07gCSB91J+/m09n5HA0ieapva/Gz0ZPxdCKfFYiv7A1tTK/4ZkG6s0/nLN+In/MZXZl3LVxa9y5c09syeAmU+k4nx3phUD9tBzSIyP7C14k4A6N4LREqOxAf/RDIuU7+wff+MY3mszpC1/4QmMD/lPKFvTkJ0u1wcxWkFE7SagPF/ynT7IhTbeUkQ59OmVpFrhqlxhAAgScL7BqNhKUgutiZgsAB0DEYLayhjbLe5jJewH+ofwOA1AiH6CdbybSh9kLMBGHZYD6yEFBPsjGxps0WxZir8DGnOWIegLIQTcyqKtfJKKuYBjKVJtcNTPrV8BJ5RHXfORAxzP53YsXDh+IB0/kU4trV8fxjWtjaiB/5LYJmFxyTE1HT+q//1R++/PE4ZiZnIoPrrgptiQBzddnQczYsicBKODpIggFMLn5iMxFNJXdsCEdZAXIlp6yA7O/DUe6aG9sB7vwkes2PNnYHsd8BGEsfbmGYI3PBnxozMX0Kb06rxFXZQZRaaTZRNYAYMAJkIJXoAHGYrMe5yMZywHBJlNAMghCO8sVtyUB0H6ATMA4gDVf3/pS3zLBe09CIimy6E8GAKRf/epXGxnJC6xIQlB97Wtfa3SwsWgcAeCuhF9WQgyIRnCYje1T/OZv/mYzG5p9BaQHq8jamtG0AlyQPr5vKB44czR+cv2OmMqL05k3NIuLlK8pzYfZWJlLjZXDI7Hz6Kn4va7++N0P3htrc6ZezJ6CD6mxH2KVcZGb/OyFGH3vxHkZkiwDKeiTvZADG/EBv7pLJMA//OEPN3ohIGPwF58jTvX93RAZ1HwBr75+2VcmwXbISSZjIpERdsriFrhqCIKzBYhZVUBLrwEScASPVFtAzgeUMoH6NvuAFAHow2eEA8Ta1swNVPoFcumy1HS+AAFua2qBajkAkDICWYx+LSMEsIAHejK6DSe7kB7LOIBdP4NJcAjFOQHluqzA2HQ3hj58ljLXHRKBZkNzoXRbUP3w5RfiwaN5S3X96ji2c0uyY7JBjjlvSVv40Zg1Z8bizsOn469uvDOu25J/Ri+Jaz4btPZBDwFsqcHGlj30NaOzg2yPTZAgGyHIItEiGbrTE1EgNsTn7oa6/M2uCF0mwWfsJruo5UirPN6rX5mN8Y2jLzasLKO9TefznAWu+CVGzQKCGjlwMOBhf+knBwu6Sl/bHStgBb0AQwgOs5z+nNcOiAUZkgAkdYDH/gDiMdZ8gVGAtqRAANoDs9mpyMxSwuyFBMj98Y9/vJnBpLnGoQ+wewZAEURkQ061ZvZZ0LmGHMjls76RghlZcMwnoz79wd6hsyPxSlfOpgN5yy9/iDajxKX5SwZ5F7LMv671Rt9oHDh9IramffxlrcUIWGdswHZkkVHJCMiNZPmLvEOZSVWAa0NXhKENsuBTn5EDomAnPuI3GYCMASEgI9kUP/Cjtl7bi6UMuxWBVtaF2GVcSOdCerX3+V75fMU+SSmwK6gRg1nFjGk24FBBCHTeA4ACKK7LCsxSlSWYkbUFNKAALMAQpMCIHLSVshrTZ7OSvQf1gL69kA9gK8CNqS/rZjM2mQHc2DIe52QWvlEJ7GQQPIIFUTlHNvXIJXMRCOQ2hj4EEL2N7ZxgQEgCrwKDHg51HPo+ljL8cORkPJtbIWP5q9apULs683/OfvI38+OWkcnYsSZ/xCV/SGYpgcRe5OEXeiJdsgh6RCZQXeMjdiMjmZ1zaK+uV+fZBEn7XP7VhixeHeoYC0noo50sfXbe2GQjj7G1017fNfb8xnhvnr3ilhgFcOAxQ2J7r5VWm53alxLaAI7g1k5QCk4EwfkcL+jNPoIPqQCgIiitTc1oAId0rJuBqB1krRAxq8sMzGCyDLO6+mR1kMd4ZBPcZHCHgfzAqY6sQiZAJmQj2GUNiIYsZPOjMfQoQkRivn+gb8sUYwsK4wiQIoUKHDbxdzm/Nn0mfpTLi/FN6+P8jkOrOvO+n83+esYn4v/ePxyfGbw5brhm7vmEeSvPc5JMZPf7GrIISwrZDjJU2JwNEAgydI19BKtCH36UnZkg6MquiF5g+2wfh7/5wjl7RXxYhNJ01PYPudiFD+yLsJl9CQQOJ3zVKXMWuKIswXGcJfis582SgC6d5DypaLvj1edsM61ABCSg1BcSACLBhGAqlRTI2iETa2Xgcq02OgXcYkVbwDUeeYBaMAM8sOoLYQC4TUvBTn7ZhbHVHcrMwbjqkxVAazNSfURAf/ogDKCnj4Ciq2AztnoCjA0EiL7NjD47BNTB48dieG1PzA4k6S2mWNs1dbtyr4I8jsUIs61p81F9M7YgRoAyJjILQDaSoSEDew2C1Xs2Usd4PgtYPvT0qolhMDM7+wfuTFjasZ02fMwfyISdEGpNAu2ykcs1/ZDN+EPpD0X/CLtT5ixwxWQQgCywEYPAMYMDkOAzuxSwgEbgCQTBAyTAJSjUUVc7wBLodbSCXHvt3Lc3g3swR5qORPRhjIUKQJLPBpng1AZZkAeRyQKcA0Izp+A10wvoWgN7GvM///M/m2tun9p/QAI1tv7I9p3vfOfnP55iqQPE2iGbIgy6KMajI+AbR33v2WV/ZhAPzY7Hz67ZGFODO/PXaXNeWGQL4nyHMTuVm7dHj8fv7z0W99/4vrhl8PomSC9mhmUvxGXWpzd7kN/dGjLyO/KQYfAF8nWNLdmDfiYMQew6IhjMIKYjvLgdqs/Sl0/Ywp0nBMAmCxV9s49+EK9lIfzIQiqLW6jte+X8u55BmOU4qGZ/n2UKHOSo5YTzZk51AaZmSU6WsgKO1zoQQzs4gFV7M5lDAUaZg3aLAb/ABKT+poMgJiciAipra6A2+5DPLUrARVbqCYRa+viWJkBWRlQ6yZbUYQv9I0lBggARGv0tU2QaZmDyIjN61ntyGktQGt/72cwC+o+fjP6ps3HGX9bavqU5l9Pv/DhvUof85mbK07s/f/7+xGi82fNGTI2ONfrSld5kQEI19nyd1WxNV3dkZGwC0TKJ7fXBZnSlh03J2phkT+2MJ8Oik0mBzpaBfK7oTzaIHLzKvBCNOgibrPMV/SAaOqhvHDb2NXukznfOLTZhzNfvcjr3ljcpBV2BkpF9BgrHQkUdwAVgs7GgM4sIaumkGQY5AJ7gcd1ehKBWr/YVgMssAUhSyiIUYGt3KtkAyXhmK9eNA3j6aSeTVtnJK+jNVl//+tebZQNZC8BAjCTIC2Dq+QtR6ugbsOmANMyigh/xISaZC1nYEBFIkc22ZDOT6Vt9hzHc90cQwMtWrhuDvZGoTMZ45QefRzNoTh7MH1g5diJGPPuw+5rmLsW8PurO7CnlWTEyFitfyW+r/uS5uDb/QGfvirmZmN/YQqA6+KPGW4wo6EhOAak+X9C5AhQRCsbKeuirb8U1bV0zNkzoA6nzP4LRD78rla3whfNFQM3Fef4hm7H5RB+IBkmznc+yE3Xei+WSMgiOFaRnp/K7Cvk6kq/eKz05C6zJX0fuX9kT/Rkgffn3FMq42nFsMT0nCFjXBzNtxNoCVTBzMiAAoXrG40REYOYoUFzIafoSOMjIbTczMWAZz+xibHKp51Vg1atzAkJ7+wvf/va3w1ecpff2GBASOehERjLrH5k5p5DfOTOnmYkOgtyGnLbAD4TqCwiyWVP7vUZ19SWrsGxBGmQuO2pTKXJlGOQFaH17ZWvyT57Kv+txNPdMzuWX126/NabWZqDm38OYnM2M47wRgaFnOn9nIV/XHh+O9fvyW5mnxiL/OGczJsLTJ18IPn2Tn2xkFqw+q0cnhMGf5X/n2EwdwT6USybX6URv+toT0A+iNCEgBDpZaiJDfbkmyzCO+pXNwIV6Ah1JO1zTby3JjDcfMTpPD0SEfD3sBZt0hQl90n2+tufNtyxfLnoPgrHcVz+Us92LRw7GS2dOxr6Z/AJQd/5FpkwaVuU99m0zK+KG3v64bduOuGX3dTGQDlKA2ewNGEDPKUiB4xleEJtZgA/4AQrQixA4G7AKcBfyCFkFnSDjbIAWmMCiL8BDAkBQRwWdVwRFJkFefZBZqgzUwFSBIBgAUj0z++/93u81shoDMQGcfYu/+Iu/+Pkf6tVGsEuL3a0QDABORmA1/oMPPtjIakwZi7qISPC4Tm4ysKHAYh86y0bITQ/29G3IY7lZedPtt8Vtn74vhlZ3x8G+njjcmz/+stLs2BXr03dbzk7EzvFzcXffurhj7aYYPnGy+fuaZBVodCYbn5idycyXxqgZF1k4+E599fisgotf+ML3VRCvTArhCsLyLbltRLKdfmtfQpBqg2zZ4tOf/nQzFvkUffMpwrSM04dxPZFpUqgsoam8wD98wrZICLHzuUwTVpFSybhA82V1+qIyiIYcBPmxo/HNl56NF7unY9/qlXEi75FPrM7fX0yC6MqAWDs6Hq+NnY2jxw7ln3fLgNp9bQNkoJZqCzrgwdQcDmBSSk7hHIAXKAUyTgWAVpAt5gUAIavgMZ5bkca2ISiAjCeAAA8QzbDqamd8BwBbJwOj8QHkD/7gD5r3AgTo9QUwDn0ISLJb+1o6CFTjIwbEJ6gEutkS6IwD5EBoHKRDb0GlbWVXxifbUBIr4AtK+rGdGbnsVPoaCzEJaPoZg+1uuvGm+PTHPxF33HZXvHHqRLw+kl+UOp3fFp2RQ3TF5vyLWnt6+2Iw/2jO9Vu2x9YNG2Ns22jTHgFUELIfkrLUMbalD3uxsXrGV4eNXJP10UnmoA8By3YCji7q081n9ZTCALnZASGwMXJHhjIHfxiY3difjdhU315hSx9szf72fcjG/tobvwirGbDlH2PqD1Gze00O6svi6LFQ25ZulsXbi8oghhO0L+5/I757cF98Z2v+gElfb5yVpqZBZ/JIjDWP767MTbHefLslieLWYyNx79lk9fyWoMsVWLIJwAVkQAc0jgNqIGpPVcshAkNgcZyAcFSQ18alz4AnYAWo9F/GIPiMpX8AMQYQtQa6voEfYP/xH/+xAcJv/dZvhW8XIgb1AbDACAX0cBsO8ckeBnOmIqed9+pLAPmVI7+MZDwgJJ9ZTsqMVICfHfRnr8I3PvVVywW203+l4/qhi8ARRLIz1wQZ8qMDOwgMtjVLu5uyMYP27OREszw8m+QwmTor9hn6UjfLQ0tDT06yMx3Y0WxsLHYki3PsgKRkN8Ytf9AB4WvLLmytnoMd+ZnvTQxlJ8GHxPWp8AWfIhuZhFf2UY+exkcSAhmBI6Mq7K9/+rMDWz788MPNd1Z8b0V9spBroUL3ysaQhM1PPkSMCKQwuVD75XB+yRkEg+8/dTJ+cOJIPNqd99bzm4BdCU7n05NN8DcGSeBPd+WXk/L1QL6eGcnfC9i3P649fiZ2rdvw8+CvIAFwwSsIGF0AAgYgci4nAx1nOd96uFafXXcIRIAASiDWb+stTOMVKSAL750zhrYAAYgyDAACBt9zMLsVcMvxxhMIAkewyxC0ERgApT/2EZyCB7gA0jl1zH7Gct2MRxe3eQFfQAgifQI+WQWFeuyljwKvIGQr9tM/uwgsdciMeBCQWVcd5/zlrAon9ZT5AI/ILF3KbshW3wp5jEUO+tKDvSurYBvkpA1/+uyVbclJP69Ij+7Igv5s6Bo5+ZCPyOYav3rVhi4OGQj7qE8mRX3tfB5MkrXEEODqInP+Znu6kZkc2rcWn5EZrDoUWRL9ZUVkcH4+u7X2czW/X3IGYVb+1t6X46sncv23aU3MrpsDaaJwcf3zSbx47Y2495m9ceeGzbFj81yWIC0swzMwgABbKxEAbuuhngNo2w9CAB8AmJEBRjppdgFcznZo57WcSi8A1g7QHd4Dk5nK2rdmjFZFySUwrVMFNCAKDPIDukI/fQlofQhUcjnnASoEQQ4kIACRjP7IoK42CEHfAobN2Ml12YLgo7O2QK4v5wQickIaAK6fwQwS70vvVl2W8p6+bCW4pewIzpjkUowncAQlmdlc8JLNebKwF9l9FqB04Qttynds4LkUZEZe/lLK3vxSQWp8trHs0qcspr5126pnTRyIxe9osA9fIQfEQE5tETGf1ZjNwOfHrj5kfGTUjt9kU9q3jlftlsPrkm9zAsATp4/Fkytyxtg890s/FySHBGzmqTG7Nn+daO+bsXN1/lHY9XOMzKHAzNkc7GD4AhGyAJ7KAjgUY3MkpzgEUd3eFHhkBFx1fSkKWIrlBRewlvOBvcjA+hbwFOMBA+B/8pOfbDbQ9N1eANreAcABsgyD/EOZvQCPbx/6bGYVMNJ7+pDReB6CEmwAXnIIPABEKF/60pcacqKL8clt2aBPQFePDuyBAOhmmUF/741FRlkLkpTBvBUQa6tfdhGYxkZm5CKDYHGObGT0voJf0NEJaajn0AcMIGcYYAPZwcO5DHBe0Bmr/OWVHQQ1H8EJW/M/gkG2iNcY6hm79NWWDLBQmYI++E0bGSDC0kZd7eqV3+uzPvTvmvH4lk3YturXmO14uVo/LzmDMCv+/4dfj6/N5K71liSIZP+lEERjsKlzcf1/fic+tDIfu92RKXOCg6M40iF4ObleOapArn270Vs/IxKAlDUIOCCwjgWAVpCUg9Q3myGEmq0tQQAPqAFGHbOY4CRXezHzVXskB2iATid9IQTn9V+E5ho5PQshexDIMhSpr7HNkHQAVAHv9xLYQCGv/gFS5kA3O/9ScQW5WosjG4GoPhvpQx06tNqsafQW/iErErUMQgjGY3cPcRnHOXIiQ/LIwugowASSog8HmyMH9hJ0yBPxms3tl9grEJRsTA/t2V/fQ0kQNpIFqHEQIlnY1ARivPbCvuzI1pYY/KxPWSAZ+AnpIFV9wlB7oTusIWS2t7nMl2SG4eVUlpxBmL1+NpY/opI/NXK2Pzd20rkXLBXcszOx8aXXY2f+1uGWtTkzJMCLDLwKBM53cEgdrawMeHXUuALZ7MPZgCEwKzVtJwdgBA6BVgB2TkALNtcAE1gtTcxyCwWWmU5dICG7z2QDksFM5QHV05aABNg+IwW3GgFK5oPE/E6C92ZKt0iBHrARhHPkA2JjmeWQioAHXvKRGbBdqzQZwfGV67Ia9iXb5SzlBzLSn9xs4L3MgM5IrJZDAo8tyufV3is/CWTBqB39kA3d6VW+hQX+VrThG5ML2xof0cg82Mj1IqR23fVDTkV9uKmMpnRB5OT1uTDZ2o8+6GJ8MsGT+sjFYfzlUpa8SclYuR2TD9IsgRharKP2bBqvJx3e252pbxoXsDnHKwMDAweUQ8r5gMPgHFHXCmTamnGASFuBjvnNoq0O0re6UlJBCqz6AiBgBExBNZSzEUAjC0G6UGABou9JCGiBKCAEOZCZ6YxlHA9VCVBgog8yMbbvCCAS2Qnd1DfbAiX5zUaCS11kYtmhCJ7BJB/tBCaiQxwCwgxKDmTBFuqRif1agd10dJn+0S+/sBV5yWpGJVc9RMYX7I7E6aGOjMpBH7bRD39U0NONX8gv20IQfEwXr/xCVyRCbxkGX8ICOyJ47fTB7mRrtYH3zsGLvmxY+jYv0kXM2pFZXw4+IQt51a/iPV+Q23t6wwX/maRa61abq/F1yQRB4U1d+cMb41Nx+GzuYudzD03JAFy45LXJ/K794WOxdiZ/Gj6dg2kFBUdxIHAIYocARRhVh/Ed6gCT966bNThRmq/uYAaEUjNJ9escwFRw2pwSlDINIEUO+hFoZAJ2Qe18e6m0FtD9yTgBrT7gmL3Jph+gksICCmABo1nKdWD2xawiMbLRQWABOZnoKZCQluBXXANogUFOwYAM6GtsqS1CQVjkB3RytQZGuz6X4zNZ2YqOyIKeMh42ogvCLMKjP33Irh5dXNeev8jKzw79ua5/xMB/iBkG+V8/PhtTe2290pmP2dNDWHCC8NmotRjDOa/kZUs21z+Z2BseneNnNuczB1vDUMmmrs/0U5/vYQXRIBBjXM1lyUsMBhg7k3+MJm91Hh7PlC7vYiwKwHTubDoxDh2NniefjZvHpmJr35pm9uN0ByAwuNnADIytveckznAdeIpAOFw6Z4OOI2Qh2nN2AadmXiABRq/uswMZ0Dq0QSz6EuzeC2aHWan0qlfjCz59/dd//Vcz6wCTQCQzABnXDGJdDqx/+Id/2ASHPgCGXpYUyIktjQlQ9ikEOvJwjpxmXLqxgduTMg5yCSz1yQ2g+qKL9tqohyCcc32phX5K6bvUdlVPO0EiINiFDvasKqgFC1nZhY5IGQGS22f2EEj6KRnIX+QHA+wBI0i5/F2EhBTooA84ML4sAl4QTc30Ja9X46iPVLzKAPjQWOxHZsGvHnnpg0z4kmzaeHXQXT/wSieTBJn4TH/qlF6tMlwN75dMEBTsTRz1DI/G6KH8dqHnIHrm2DHn/1xHnFc3HaUuo8wcPhpT3/1hdD/43bgu715s3bylCX5pJGcIODOoGUF9jmdUrwyOKDgKMApggKWumfj3f//3m9RQPYRjXI7xkNFXvvKVn69fzTTGBFiOFkxIxp+v8yOy999//89nb8EOBA7gdWgnmJGDh6fIKBD1CzRAAIh0AhKbZNJMKbFNNLq4q0GHxi7ZN52HclnjFQmQy7KFfvShnzHIrcg29IeEANeGoLGQBdLw2aYe2S4ExtJtKnWbkJGdy4fNpj1TMpfFlTMv1M95jzcv9BIolfrTh2yCi/8QBzuwAZ+qTxd2Vdiygs5nYyMOOrIBO/Kt4C0yl53ACp8VsfKVdp6c5GftkThyqlJ6eYUb9jYBkEXGUBjUhrwO8gt8WSLi8bkwpx+fYYB8yMoyE3acd5Cpxi05robXJd/FoAx2PpOz2GtHDsU3hl6OV3u74sCa3ji1ZnVMpBHSAjGbYFs3lgY8ciJOfO9HMfS1B6L/5HB87rd/uwka4DYzcizHMJyZQKB4ZURgUc91TjKutFUqCGSAAXTldI4ARBkDwgEW9aTl+uAgfQCPQENMMhAgLfBU4JbTOFldwQQQxrbJCCA2GD/ykY80s76MBAiBx7h0c85nhEFOgS5w6KoAot+K0JegMMPRuYgQ0HwmkxkJMTjIj3jMomY859hMO9lJAbZ0mO9VMJ1IufYdyz2M/K3JNydyYy/mHnTzW1N7Vq+Ja9dvjF1bMpNLsJfM8/W10Dn+4E++qJTbxm/Zim3JgQz5jC4+87l6ArRmXmPwHcKRCWpDX4TI//oyHh8VjtTxeD0CVtjsvvvua/rXBh7YtrUgCD5DtkjCr4bDBpsagwyyGH2qxy/6grHrM3Mr28OLepXFGKPq8PPVRhJLziAoyqgcN7CqNzbmT6MP5Jd7+s/mWjAfqR4YG4/N+bpt+GzcNHYubjgzHl0v7419Tz4V48n8ret1xmRER2UL5TjOZnyzBZBxlkASDGYSwcbg3pOH4+ygAyJAAtpg7knYdFKPU/RdBxABJBkEldkb6wtswDQLkkGfZjgzl/E5Xj3gRFDeA5rxgFxKK4CRBbndxdCnusiKrDVzuyXpOQhAFjRm1FquIAcyAJK+zUTG995Mph7A2lhDYM7RlR0vBD7yHc6M5wevvhiPn8kfpZmZiGfzLu7LvSvi9Z6uONiVP483NR7H0vbTGXADSWir09dkv1Df8FGlcILkEIyAQuBszj5I0eE6v6gjwNmc7RTXiySMzSb0dp0PjQEDfKCu1+qPvRGyQztjy2Zgig8c+tJHEWCNZ2z1yEM27dVxGMNn48CdfvmAfK7rw+G9OtWXiUJ/8EAn9S/Gnk1H79I/F0UQZGycn0ZYlz9gurV/IK4dWBc3rlkXt/atjTv683HitRvinvyrTLdtyJ+Hm8h7zq/tbQBuJgd+AGFkxgIYQcLIzgkUgefw2TWMbsbF8BzG+WV8QEEc1v1IRf9IoYhBPQ4jM0AIZPU5R6CZWbTheOcKpGYrzkcOQzljAJqvaFsmuKdvv8DsIii1MbMBjFIzu3HpWkCiCz1kQv/+7//e9M0GliNIp7II7RAUUNFdmiwQ6IQMBLnxjOuz2asysUaABf5BMG+eOBaPHXgj/mdFfndj3eo4tDaXSPnL1aN523o8v1cz1rcqzvSnT3zL82x+SetIPgWaE8H6gcV/L2O+IRucZDDwo6AwGbABn7USBduzUwWj4DT78gE7aF9Bp53PNdsXabvOfzWmesieXWQliowNaeufDOzLx3ChraAmp/7hhq8sH8mnL32r57Pr5OUX50xMJjI+KXLQV2HdGMail/OFy/nsdqWdu6QtVkZgNMd1qZEgcDCEaxzm/er8U257X57bZ2AgRhT8NaMylnZmhXKSoBO0wKEPfQkkRi3H6cc4gAJI6gkU2YVA48wqQAScnG02RiSCW1AKGk7TT2UtyAqIjAFEZLGksE9BDnKSjdzGVsd4xjcDCmgg08bYAhppqCdAFPrKHLRhQ/VcM6Z+yeIzgiArndRz3m0/gHQrEWmwpfbaFYiNQc4qrh8+cTyePLAvHh47Gc9cm1+vzyBqto7yWq4zm6q+QzOcugznF/COdp2MYwfSzvnFPHtHG1fM/9BQjTHfKx/xZy0byI6kycPmiFfAqUM/wSyoZEzwQie+oyPcCPzB83eskKSs0TX9aGc8xavPDu2MYc8J4bORQLaPwa78I9Ad/GYM5/kdSZAFBp1zXfvqm7z8Ska44Rc+cp4+8GIc+slghnKy0R5ekRc8l8zz2e9KOHfRGcR8QlOaEQU8hYHTOY7BtALKzO064zEco3JUBQBHcbiDIc202ltr+vadej5zGHDUBid5BIrrnKwYuwKEwzjO/W4kITA5H0CddwhGn7UjvzbkJaOxfZvTUqH69VpBLXuhkz6dJ0s95l1Aoaf+bEJaav127sf4QRgEwTbGM6uRxZOEliDScvLqz1j2QOggyIBP9lCyakt+47CjwHJo53D+iddeiYdO5S9pb14TU+vyr1Tl+bzY2OuX/kEWs7lB258PIa3NpzIzUG/rHYj1+e1OPi67/lKbRT6oT06BLFDoi0QdAkTQ6Zft4EMgCvgiRISCiOmjqAM/6iFkQWyMCu52+fQr6PnCOGxlXDgwDvsUeRsHefM7WfWFtJ03Lpn0V2N4jyxq+UxGWCKTSUabaoeojOu68dSFZ7Lp50otl4UgFlKO8gxjtnbHgDOcE8iMyqmChhHN/hzgR1n/7u/+rpndzZIOzuI0hmdgAJGa2yjUVjANJanIBtQzRoEOoTycz/dLMe03AJUgE3DaCkDfVzA+uQDXXRCvfozE0sI1dVsL0OiDs42FtPRVP0ALAEjMrCXoAd2s8Zd/+ZfN3QaE5kA8Zhltya5fYP7iF7/YZC1AbJz/+I//aOTyJ/0Ajc4yDGOYnRx0dZ7syKXS6eP5/rGR4/Hj1Zkh+B4NQJ7PGlp1an/vT/NNZL0bcz/JcrL118Ha617os6AyWRRp0hO50sV5wVLFe4QLI+qbnfmQTsgGHuAKSfjZepiAJSTEF+3FOXUHM/tgHxkd2whMZO7uD9+Y2WEIJk1UfI4gYEtGg5QRQmtA06tkQjrquF6+QYjakM0YYsH+kQlDBus8G1yp5aLuYlyKEgKFg//hH/6huQsgCKWcAMA4jCdoBZBXRnYo2pldEYvCyYLKXgWSACRBZVbA/A59AJ9xFYFTqbrg4iQyAJk+kAmwAAFw6AMYlPvuu6+Z5clYs4bz6iMZQDI2gAt0B1DpR7B670Bs9ABEu+PO6Q8gyQ+EsgYy0xFZFNAAydKIXMhCRgWAMgUA0wYIffbqcN7nyiZsTD420B3P7docE9s3W39Q48IFoY+cjT89PBafuu7GuG77jiYQWwPkwp38cg06k48+SFVwIwHZFL8K9Crq0oft2FBg843xK9joz9aImu18t4J/22XUF3u4uwEP3pf/YYrN+dF5/tWfV+PCEDnJ5wt86sIP7LSPA6t8Sr+Si4zGMhHAvX6LyNW3Fwbzxkc2V1J5WzMIigoEAUFxzuUAgY01GQ5JCGqzCZLwDUx3FzhZ4HCO89px5GDOAhylvZmBkwSwV2NJtbVxV0HKbtYBDg6QCQg8gcZRwKhf61NBrV45ndMqq2kFAYea0WsNTLciB8CvGYpsQEwmbYAXQRjXOQXw6QawNUNVoGhPF8sKMhpDNiWY6AtMdbCVcw52YV/2Ni6Zjp0+FXvzTsWxjQMxM9DfjL2Uf9gjnRTb3zgYG5KjV+RdK7JYsjgEbxGUuqVXvc43hmtkY2c6CqYKRnILpGrvle2dpyt/OYeUtWEfmYR+BJ3De3YoEi4ZWsdlF+N61b++1DeGLNZRtq33ZDAeooBXdlXobUz91+EzPzjoWoSBNNgMBvhMMQkiPvWcM45+rpTytmcQpahAleYDPANjYIZgzAIyZ3E40vDeeQYtw5dhy3kAw/i19vYqe7BbzRkIRWAyOkcL2CISQOcc9TnGeMBeMrjLQRZtFUAgC2f6ZWtBTQ6P8hqj9FGPs8lGTwfAkgVJeU9O8gEbuxiXDEVcPktxZSneswdSJA9bsEsdxvPea8lZshpHMO07eCC+lxPzC7vzL4Tvym+Apq4XLEB6Lp9yPHk6PvbjF+NDm7bF7nw2gpx8prQC2Xu2q1fv61CfTbzWe9foJjjZAVmyNV2RIHu2BwufIQE2Q6iCVL/Os7MAFpTaI3d9lKylrzaWYGZ3ExA5ilS9agMn5FDKhuUvExnM1BjsgVwcsMW/jpKdXnQsQmMfdUuu6p8eMApL/KzfVvuW/O/0668u2N4mCSgtM+BMaZ4ZmwE4jDMEJMdU6s5Zvq7s1qLg4CAZgTW3wBacgrAIpGYkAHLOHoU7CdaxxhEogAgU0kYBaLYHNI9FA4r3nOu5Ao5yroogNK71o6f0EJMxzHjG5GhjIQGyGAuJeO+c9FJ/9DU+PYGmdKePwAZ+WQUb+a0JG6TAJADU1169IgS6AVeBVN2SW1226FmR9+VH8s8KnMjvMGzZGLPNt3FLs/lf9ds1OxMrTw/HqvFczuT3b9jQuMZS9O0wjkPAt8pOdOlOAABAAElEQVSlD7IIFnJ5raMCyivyZPuhXOZ59sRtZAc8uN7Ikn15D0cOY8GEgPXqs3qCt/YPBjPbFHTsU0Uf9gHI4T0MGJ9vYRLGXJet8YlAdSBvpOOcHyDmC5OFz4iJ3nyNYGDHuHwLx+rABrLQBi60cV6/8AETlpNkEAuWMZUxlezvxus7RhCUYzQBBTQMrFgzciDDYXZGld4zoMKoQMhYgKGtuohC0HCuPQ2MDiAICLiQS83YznOU8fVjbAHvPTBwioA2jr6MAfAVbNUvMPkSkEABXmRCTjpxaC19kJAlDtACKdBoo0+vrtkIJROSoYc2+iIbOzhkTGSgE3nJBYSAXYHmMz18Zkc6ICukpT9tE72xKp9mXTU9EV25BzGbzz40Jc/PW9Jekf+vmMrfCz12Kvqms9b55YWxyE1378lUJFHZnPGNW8ThPPnVU7QpUqOffsrGRZxsV1kAfR3Vzqv67MpfCFWAIRmByp+IxvtaJqpfxdhsSz53y9ia/+g1lCQlUPXtHHJQXzGuJSBdkJD+ayJBUmwOm0ge1uABNvRBRzZDFAoiQmbwQFdkoR4skIG8lpX82ip70/gd/OcdW2LQCUvbda5fGBbAQMwBiICh3DlwJ0BdewOMaN8AyAQxJyEKDuQUgVUzjc+c7odhOabVuJwKQGZmzkUo9azC3/7t3zaA5mwEBTyIh4O81w/Q/fM//3P8/d//fSOP2582HOt3JvVvbA624fjlL3+5uUVqNhDEgAA4Ulv6AqPxyO49fQAVeQgaP5I7mOQCNK1EVWCpV3Y1Ljtor392AEb2BWI2fPpnz8RTI/ltyjtvip4vfKr5y1q+hp8VdPGLksD0HZvp4ZHoe21f3P3S/rgh/4zBHj/0c37mNo5g0D/ACwR2oofxlPZX5MC/iMPB72zC717rMz3Iz/9IoWzEPkVObEI/fqlXuGB7szMbfutb32p8424QP/NBayGfse0lIX1+dJdLgQ8EI5M02dTk45p25Je5wKdxZXmle5EEArBX5TofwxPCgUv+Zw86qgOTfOwhPDrzIaKxqY6Q6P1ulUsiiDLSSQE6nN/MG8u7CFMTMZPGW53p7ObVfbEln7DcnF/QWpdMKniwPGMIErOk914pLyilWkAAIIyIUTlcYDI6MNjkE3AcxuFmKo7gLBuTxuHkT3ziE01fjO6c9kCtnnPaG897MwhAADkwqi+gjK2NOkDonC9rAQXHIQgBTFbByiYITBtkRheA8KqvoZwVON0yC+E5X+DmfG3pIFgEHlCzgb7rMEYFmSBCePouciUruwAlGQDQKzuz62RPd8xeuyv25V7EoYF8BDm/Q3OuN2eobGd+ncksoScDd30+Mj+Yj8t/YLYn7hxI/XKJcSbHKTI3OwqICnZgN6bApRciITtZyFT2IT/71lGkUa+ITp/8Sj/7VfzDL+wGA4r6Dv2Ubeo8W/CBP3CkP0sFv8Eho4Q1AShAHYr6slH2IbeMgx7uHPEXHwluPqGbQg+Ygml+pbu9KBgiI/n1C+tFgs7xnXH1UxjXVl/q8iX9yx7GglMkAbPqun4wsXI0yf7ERH5dYWZuj64vn3jdnT8K7U8VePKV7dnmrZaLXmJwytkE3f5DB+PFk/mz8uOjcWA6/zhLpNNSmv784xhbR7rjmlPH4+Yzm+OWbdvzB2NmmluCDM5AHMXpHMgpQER5BZileFhX+s84jC0YjM0BtVRgcIb1qk9G4TzkIwg5QYAggCIQTnRNPSCQzSAVTgMejmRYr2YXBKVv45LDTKlf5+iinwoCMjrIjUTIox8g8R6ILKnorD8606kIjP4AigTJUw5Wh63oUmOwE3nobnx9sos2xkMOxnZoS6YdeQxs2Rx7J/LPCA5PxL78bY+R3vxp+8wYlO5cUqxLMtgzNRt3rV4b92y9JnZu2dq0L/IjK5AiAD4yfo3Hv/yBTNkI8dOjNQsqPzcDtvzDjg66eiU3myEierI1HZ1Thwz0qlfvteMXPkawZCaffSPBzD5FznxdB/mQkcmGfPCAFIyDbIyvf77Rvzr0RxrOy1j0xafG1h9iKfyxD7/xGRKAKe/VYx920o7vnCezoi6ipJdzPan78ZHhePLoodiX35nJm/mRv5seIqdvpitJ/UzcmHesbt66PfZsnfvF7YXs3QywhH8uKoPwF7WOpgCvnszHdsfy1lmuaY+tyC/Q5F/V8vcxZlLBVfmLU/1JCOvz9dqZ/MtZqWvXwSNx+uDh6E0jMkjNPsAECJSnCCMDQhWsiSAAg1HNYOrogwM4zr6AYOAc4AEY9RgVIDjH+tRnexv65AhjAwTgWNIgLH1rzynaeDhJuicTsFmqD2Nidf2ULtqVLPSQmpJbP2RzzXkgcL4IhWyCim6Cip7G8gqcbKMtmdioNSDMMvpkL4f3inYFSGOTDagRhGN1BtypkfyZ+tEzcSiJ/Ux+QWvSRJPHqryVuT4Jfnv3qtiTs9E1m+YeLy69gZfd9GvMIjn2VIeM5PKePK4bvw7+cZCnrmk7X9EHPczsgpQt+FxgCjyvNSa7OIxfMgguZOZgW9kjOwtyPuA/+CCPfmSG9NO3aw66wBcZ1LPRXEtCn8mufxMN8oZr/jOG62ygThEafcjl4FPjsmPV5Wu21Rc9fGbvru78Kv2WfH7lmm1xeM2qeDnj7mTG3GgeUxl3GcTRk77bmF9t2JHLwZt7Vsfta9bHLRvz5xI25gScY1xquagM4niSw+N7X4lvnTgUT968M2b68y8rpBEomv80MpxNgwzncSj9/nL+RelHnn4+ur/3RHxk8zVxw67dDWtiTgZiPI5RgEbB3B4G4hgzAGNyjADmKE8mYmxGF1ycIo10nUMY2DrUV7OVcoSZWxt96hujc/bv/M7vNGADYvJwimv6MZ4+yfPnf/7nDSEAKqcBHQLwHkj0qT+yIAJZEPLRr8wBKMlqDAUAyG/m0pc0WDuAMbZzAOsAfucRkjpsJEDIhgz1UzvjyMU4xlXUR4xFgM5tzjo3pL8qlfWqIC5HAbs5mf+Q2XgOJMNG7GhMuhvPbEpPQUxe58lOD4cx+FgAysLMmt4jCroZs7XUmLCCkAWhzFA/9j3oRB5ty6at7et94YReNkAtWcjIHvpGEvBrAmBH43jqVxbBduTT1tgyUToYV3u2dp18Hppz1wmx2APzKvD5gYz6oDPdyUsPWGKn8jWsk1ef2iqjaeunnn82XsufVxj54G0x9sHbo3ttPl+T/7XGXXYap9OGe7Pfp/OnFp55/XB84dTp+FQu9wdS33b7ln0u9LrkB6UI80r+DsT3jh2MJ/KRXffTG07wT/Pm/FD1OU/PpGEm00DTCeIbu3NZkWsjBmMcRmNkG4Gc5D3HCzjG4UTvzfKMxpgY2MyOVGws2QzkJIciWBw1IwsojtI3x9jDAAoA1791rYAW2BxvDMAHBuMgI873vQl3GwSCdvp1cKRgFuTApQ+yF5EBkv4RnHELyPShC93UpTc7GF8/xncgqlY76UcgFqgFoAwHGSFC/dCTDQCP7DbZ6F+Ecd5LjSxAA7j0cHjfTg5Vv15dV1dwswWiq/RZHTaqwBMQDnaBHzqTmV+1aQCebejoUMpGzYfzn8lFL3ZjL23JYRz2bm9Tbb26pj1/lQzOV+AigVaMkB/BwRTCY29H7X3Zr3Cow78V5IKb70wa8OVzvXrPH/wiO9C2YoANjcVOZCKjPtVVh33353Li8I78a2i33xwrduRzLJmhpzHmjbuutIu9JvcAe08Nx80DG2IgdSr70v1iSlcKkY/m/zJ7z9cBob/+2ovx1TM5W+3Ib1tatzZkMF/t8+fSObNpjJlDx+KeR5+KX8uHbW694Rd/rJcBgEagC0xA8io4OQQogEkAcKQglW4KLG2Bg3F9J8MMrQgY5OGz4OBEoKxUUX+MhSzsEwC7/qSgwKcAld9rwOw2PD//+c83YCkgciKwkrXWt9JKn+1bGEtQksF5gQ2EwMDWgERn4wl24KUXUJBH3bqDQkcAryAyNlLSnp2ASlo7ODjY6Cm7Uod+9Nde25K9UfAy/GMM4AV2PiQ/ohQUduPJA/TGVq/ATkcBzlZmZLji51oCeZ1PXuOpKwD5ygETvkvBhothWFsEyvcPPfRQE7wmBXZnQwTAVgiVrCYYP0XoHBwiQ/6mw1BuStKT3vzKxzW50F3W6Do/+FIe2dQlu0P/Cp/ytQMp6cNr+dt48PfSq6/Eo6um49Vrt8dkbjB35aZyE3eL+TCXJH35UwvXHToR/2u0Kz72gXticy41LgUDXSnI7FIank4W/Nc387cMpvIbdNtyxm5nsPkE7sp0Ov+fzR+TufWBR+NDvfnbEXm7bH06phxqbIDBymZNRgcQxgYATnOd4RmQgTlWAHnlTOf0V3oAputAIICAEhDsbCMLM0/tTGN0jucwBwD6cpXsATl49r6IplVFQWrjUzaDpPQJ9GYKoDA2YOrbq0Iv9RCY22jauRsiQIwNJAgNIB3AQq8KDrILKjIq+tJWOwEqALQRZPRz7Z0odKQ3H7EBe9OVf5CdABQI/MNXgpV/EWTNrIJIUa/VDmxJJ35UtBc4JgLtXaMrnS9EFBXg2rIlGdnZ2GRjT8TOB5YjcIcA7Cm5xhfkpqNJRR90tNzxWrjVP/w4V37gX3obiw4IoI7CSOG39ES8r7y5P35wzboYun5nTG+c+7OCjSEW+yfl7EmfbD1+Ou4fOhp/+Osfj915s6C1/8Wat15budRGjWOz5VQa9WJK8kN05V/XsplyLp/MK2MwWIEBiACAwZACpwg+zpc2Ww8KKsEI9ILfdzY4EpjMphzGQZzl4RnOMYbiPOfqD1gV4EJICMI9cDIIROelhILX3gNZEFNrKZDKBMp+3uufrGQGKCQiaAUv0CApfZldBJOMokCJCL3XB7mrX2MJInLpBzjVYQMyKq7RX4CY8QRLu8yt8l/u9+zL3nxBD3ZlD/oiM3ZFmPSlm4N8gtOsyk6CUcDVAQ9Flgif3+FFW30ZSx8woQ+4YndylO3a9SSnbMt1gWosE5I+yesgL7saz3Xn2FXfxqMDDOnLmMjKvoZ+yEUnhEJW2SRSoAd8GRfGtauDf2FQvcoyKtNQZ1LMIMeMoezgwtkDpdPebH4uZRyezSddsw9TlFi82LLkTcoVKZyFyIoc+KJLGiVvdsSKvFdbpOAVCCp4Mffg4FyazEmum4kYn8O8F+QM7L06DMiY+hFc+tIO8zrHmRhfcNp8ck5f+kACij45SeBpx+GcKdAFG3Dot4q6ZvFakhiXM4BHcDj0CfScXm0FuQAHNP0CqvdkVIceCuCSUwEc7Rz6M7bbdGxlvLIDXYyLNFx3baEgaTp+G/4xHuJifwHHbmzK/vT2KlDYi84CnJ4O8goseiE7fmCP8hM7OleY8cpmAlKw6pvf1HcOSeiTH9qLtvyrT9drMnCObPpib+/JSB525hfLxZJBfTLQGZHAhHaIhZ6ViZDLWOrwDTvBLVkVr/Vef/ov35GlO+t3ZYBnpSbAlxp92Wzu7kbGnNi91LLk25wc9O9v5B/vHc8/BZ8bJoICUy1aKIe7zozG3d9+PD7Qlw8P5Rd++tN52heL1qsgqN14QeSzQORErOzetiUFcjCrAJU6Ag1Q9FmOkkUIQvsBdqVlGf5KNwAJJqmf9xz3r//6rw2IOYdjzQaWF95XsNKTnOr/27/9W7MkMj45LUGMz9FkBQpyqi9YyCtj8PlP//RPGxB5r57zrgMgUAN3kY6sAEnQtXQUeABr78MMTb7BJFabocYqcC3ql3foInvAjWwQSZObLvzCXu3k2yqWtnTnX3biR32xm6DUD/8IVGTCVmyp8AebLEaU+md3ew2yPBkpAih/WWIY18TiVSbpqUxyszmsOQQ/2ew78Dls1ROR9IU7h7rulJAJ0dODDM4jKoexHYhC0fe+w3ljYOPqZg9iytK+68LB3tWdE/G56dh++ER8/uCZ+Py9H41r8rmIS8HGkjMIRsmdgxjIzY+Z8XyYyB/OSeUuVGZT0O683dnvdSaNkQoKAOBgLIXBarbEwG4ZcZq0k3NsUgKE4GO0odwoAghGrb8/qR8y6ldqxzkApR4nc4Q+gAA5eM9BHEUe7G4GQACcDHSuVdCpq097JcBAFkFrp9uYZksHmbUjC/CaLZEWuREPgNUsYaaR0QAqcGkvZSaD2QPw3DIDdu3Yi07sIeB8RlAO411phX/Ylo2QKdvxJ93oXEvBCohW+bWln1m8sguY0J6NkaP0n81qScDHyMg42rTPyO398w0ysV/A/mTlU/4XTLBjLNcQsuWvx+vVg1k+dcCuz+obX32YcMAM3/ClJ3FlpsiG7+HAoT+v6tGhiNGrZ1x7To9E96n8K2wb80nO1blJmXG0aJE1TE9Ffz4Ru2dTPsq/au6W6aJtFri45LsYBH/2jaF4cO9L8e1z+YDP3e9rfrasyy2XvPYrJR0cSSSx783oeeTxuG9V/pm0a3LjLANTX4DOCQKTQziZwxiagR955JEGBM6ZVc0kWN41BCH1856xMTZAFNFwVP0dTEbWN8faEJQ1cJwCZPYDOA0B6A94AYHjBZ7ZTnszvJngn/7pn5qxBTtwlcyArG8HWXxGIsiODPYFZEFmPeBX2AGZ6Bv4zVoyJmMjF4SlrjYIQp90U9ddCmBmG+erz6bjK+wftqWjYEEMAtts7zwbWxqx2UI6sBPfOvTjQOAwIfAQqs/aCzJ+FIBsxOYmg/mKfrUjj0yC7+1hmUT0zf6I2HclfLmOP93Rgln9szsMIyKv1R8SMykgd1hyzTILFmQ/hcMiRv5GRPZu+BYm9K2uvn706kvx/MCqGL73roj339TcGZyXJHKcrpRl+sxIbDl6Ij43sTL+6NY7Y/vm/NMPlziBLHmTkpK7NmyK39ixO1YcPRiP7Tscx/JXkMfy15BncnCCNSWNnp6M7rH8JuFL+VPjD38/Vv/0hZi858Mxlk/n9aXilOc0zgQSwc74zjuQh4PBBYFNRIEsMzCjc6Jbm4DBsNhXoJRBBSRnC2z9CeJyhn4BwphmH4A1I3MSx3C8MfSLpLQlgzEefPDB5qu+Feh0kPEYF+l4Tw5A1S/wArWMxSzqegUB3QSMccji1bnaEUc02tIR4OmuDjmLDCtgFpsp2wPDGNqNnc2n9tJGIxP5exr5Od0bvStWNvfMB/IXyy0D+edyFDqzkcNsycbsxT5043u2RIoO9eGtivdkcVTWyVfa6I9dBDS/s6nywAMPNIEtrYcfdemtndd6D39siigEIzKQgSB0vtfO0hYGXCezfTH+9PAdP6lT+um3shoYIB9yR/L8D2vIET5hythkRnr0Ljl9RlDqTeafrpx46Xiczb9q1zeaT+Vevye/kZs//CPmyk7p166ckNecnYidZ87G3TO98Zs7d8XWvL3Zk3i+1LJkgjDAunTsrTvze+orEzj7X4vn829iHOrP++BJEueaXdbc9MuMoncifyl4OH82/dV9cebxp+PU63lr7robYiSNyeiCluGAhPMZiDFqM4thBQZncpwiCLA5xznM+sAu9au6ApvDEYCshAMBjmMRg+K6+oJSfcFuyUAObE8mjiIjoMgyOBfZ+B0AMlrv08MBIEiBPhyuLcC6VQq0Zpu64+CaUnoBklmDLMCvLt2K2MiqjgAq0ixA0gEYyYswyGh8/dQ4zWAt/7DXxGQ+Hn8iN9XyuzJvjuTTovkQzuhsEkT+l9u8sSV/nHZX/hmD3fmYNXCZeVqDtaW7S3pLPvqxGaIQcHSkT2VMdBJwpQe5Ww928Zlcla3pj90RDt/xOd+xNdshFsGonuv61t4BW/CijvaCmAxsqn9kACv68i1dJMK32tKhln81CcEcP7mVTT/t1HHOZ2Sv6LvkgR/v1WUHuogL4wwjwL2vR6YXsTP9MpsPHI7nY9WTvati5jymxN3AyGjsGpmIe1b2xb1bd8SNmbH3JibIeanloqiFAZDEDSuuia4E5zX5jbL9yXTH81bK2GQ+PGQWyu9grMsnd3PujtMDudueXxx5Lr+LUSzPCFiR0JxUM7DP5WCGcV49KXU52TkAK2YFNOcELae6xqDqW46YPQSdABSIrTMHJ1omAMtQLln04zOHF5mYkYrtkQECYQOOBRgF6BCaNsb1GTilk4Id0BTnXKenugJCOuk9uY0NpOxjDLq7pp02riNFfdLfNfIZT13va82uPwfC0JdDUI1knTdPnYinMwN8eSyfW8gv+5zKSWiqe464es/lX0VLct81lX8rNInj/VP5dGb+la11CV5/lf2tltYgp5MAZEcHUkcU9BJI/EF+hfzqs5+DLg7vKxMo3/KnfqXx7MRXCFZQwoEMjS31LygdfMvvxlCnHsd2Xl/lE/J7JJ7NjUdeMpKfn8v+5DUufMKP/uhnDNgmO6yb/GoMr/okc00IxvHesSoT82s3bI5Pbs7N8IytU2fzgbmMvcn0XfNdjIy7bVPdMdi3Pm7dlN9h2jaXAdHprZQl38WYbxCKSoUoTVk7Eb4YwlBmAIpZGvj7l2ZjjsHG1vUCVx0szzAADhzOe/7AOW09+WZtrp2AryzDzC9D8LmIRcAJDCDwBSzBBDCAJND8XU3OAkCPWZPHGMACCIyJYBz6crfCe9/3d/eBvmSxvtSv9mYGwOFM1/TPJnSULpJHYSNyIkWzFMBIWwEZ8bAFsDm0p5fMxjh0tdeiv3K4MdmczciKSBGVtvoCTrIBKmCq++zB/fHA4X3xza39MZ1ElLlnI1sqkK955OZWDtCscQeOHI/3HxmOL27ZGR+/7a7oTzlq7LlGC/9LtvbSGtBk5F82897BPuz68MMPN5/ZpGzHP/So8dnQNUdhjc4O9mLDetWG7y0X/VQgErbvoX/kAAtFSIJUsCNc9dnVRqqMUV19kZmcfM3e8MqvMIZIYE5/Al22AN9IwgFLcOnRfXh3xw4hkcVn7cnAHjCijTpDOYHZF/nSl77UPDlKDv7Uhh278hmjld0rGxnpzj6Xq1xUBtE+KEEIxFFAARb4igIORhXYbhmawRmegSnHaYwrkBgAgSAU63VOws6YGAlwqM8KEAgGa0ybhoODg81mFOPa4HNNQACOfgCTITmRPDauyMv5gtBSwCYnmZwnN704mLzkMXOT0zXjAADH0sXBwa4BhMxEYGoDNK6TXX3A0lag64ec5DKWMenLjuzAJsCBnPTtHOCQkV7qaqMPoBJEAGscrzIUbSpVHk4ieWok/1pXX87E+UReJujWOo1N5wgi3+Y3OxXP849lndeyzhO5FLk7/5r76vSzMRcq5AbWViKgP5nZtvzOF62f1dHG4fxg+lMbY/EPPa5PckSSdIG3OtgCHsoe2pSMbKOwHZsjYnVlmmVr1wQhskZAJgl2hB0BSVb25FdkDj/G5G9t2FmBKXfKTDaWH/zPFkgaHshPfzFgbO+9qkMe2Y19EmOwB0xUhihO2ETmwgbGV+hJztaiTzpdzvKWMogLCVJOZ2TPGgheThZsnMFQFBUg6nK0wHUAvbsEjKK4FVXBw2j6ksbLNmQDDAtMDAhAvrchk1DcesL4HAYk2NkP6Pr2nfH/6q/+qnGyMY1tx9pdEAb3fY36IzeMD7ycJ/gEPjnogUyMzclI0VjqANdQBjvZgA+YyKcv/TvI7kAgCAvwEBPZgJJdFPor2hiLLg6zpVf1XVPK9mYt9vrJ6Kl4dn3+4ZYbd8fEpnxkV1/n+2satP6TsoFZb256XX/0dPzvTXvi5kxZbTDrl74V+ILaIQNgA0FV19VVyE228g39yeu1znlVR13tvPIF+wkYhCrQatlWutKXLetoBmz7p2RmVxORPtm7JigyG8t1spNFYCuV4cKSTMI1/SEvt6RNSggBhvlboReZK0uFBfLqX4bJxzBEJ4e22vCjoK+6tb923333NTg0jjrvZHlLGcSFBOU8CnHq/fff3zAssigweWVoRqe8mZWjtGMkjgBEfQgSgS5gpH0OhldHYOnDbGomAAIporFcr4etLFEAg0MAqgKZc4DEWALZe2Rh1nG3hGwVeOo6jEVGMwm56CJ9NZ7+gcGrAynqQ9B71U4RBOTRFtEINHXNUPUoeQUd2eowhkIH56oP/dZs6roZCuBPDedeUVf+WG7+RsBU/orUivPt1Zm3pFz5BZ2YSpsfXN0TP37lpTh77ESsXzPQkIp+jUkO77066FM+57PyI984itCKHLyStw7yl53JxV4It2Z52KAPouV7tlKfHRYrrTLxnaCEO32xL9zxt/OCnP/5glyuwxf/wAZ56CnA6a6eQLbcRP5kYxuTB7lKZroaj7/K/+SCIzLJLtQnC4yrSz84N9kZV713urytGUSrMgwpDbOuxsqM7ByDcQTjMJwdfzOF84zMKQwu0DiPAwSPzAJLu/WoX8sQ2YQiO5C2AWkFiRnAN/985nDOqRlBXX1zAEcaj5OkdUDqXDsIyUcPs4EZWn3AchRwBLr2MiYzktnBuFX0YYYHVqkm/aXDSERbn4tEBCC59O3wXvsCHVvWtdZX5/d7Gm8gfw/h2vx1qO1bMEuJsPhr7oyvPDMSH/7eT+OuNfkDMnlXo25/CvgKbK9FAEUGdY0O3nule7sdFxdgLhNiU7ZG+OzFFmzJpgKn7LrUvgV9ZX98JygHBwcb0mFv1503lsCF2aHMAvkFMcGDDJiv2Fomy8+WCfphA21NHLCmL32SWxtYLZ1MMCYIvnS9MOjVhCMLgR8E9m6UtzWDaFWIUQW+oGY0swJ2vS/TJ2B3S0igWPvJOBjLdSmZumZ7xmJQYJEechKHcjb2LsM7zwEcy/DYXWYBUMbH2upgZ4779re/3SxBnLOsARiZQ5FDqx7eAwXZAABwMDwnAgpyco5c2juAAmiquEY/WQZi0M5sgfjUB/iq4xXwK7i86sv5OvRb74s46I9UEWz38fxjyt35rdBsu2Ry0GnyiF8Jm0x9Bbhv4dKF/fizSKAC0+t8B5nJR+f2uoZZrGgrOOBiMIOPPiYEWSEc6VMgqSOoyFljLNSvunXr2XISybMVPMAAX6gDG3xdAe6zW91IQkbsKV7vYdF+kSzDRAG/2sOdtrBtiUsXP8rMhvxkqQsriE+2WiTItvBkb0wfJrp3q7xjGQQFgZZDBKR1IMJgHKmdwGQ4xmQ4mQJQOLwvYrBvwJnAAqjIAwlwpH7MvJwBvAhFsVZEDPqvtZ/ZgDMRkMxDfe3IBSif/exnG+C1Bra+AJ0jLWOAFUDM4oCgLrA6R1d9GQ/oOBqQgI+8RTDkJ5fZhz7ADTz0qWBX3yEbMNu0vqrncL2KPoCRTuQ9mmT2WG/+rJo/vbd7R+5w/SKLqTa/8prkMJv9dh07GR/94XNx97p8LmLd3O1d4wnM1oA3ngA1JkA7AL3eu8Y+rjsEss9kvVBAt8pGH/ZmewSBpPUtKAUV/+t/KYX85Se/ti6L5CP+Q970JL8Jwzn+cVfNJGDCsRFNR+PXRGaSsmelr6EMftfIBMPGMiEgOHiBFRMbnWxwKkhITOj3r//6r5sJQx/vVlmaJS+DdIwgKAC8GJqhOFVgK0AuKBgXeBxmfQbmEPVkC4z5WP71LIGCQDiFYSvd5kxLCkGnMLZsQltOMT4HmYUEcN1WBQbjGZdsQCy4AQ6I6aA+IvHQlqBwjtxmDLoU8QAXQCEJ+gAQGZEiO+gfCAEHuF2TluoLkCrtpJO+HEUcFZjGLyKQdRRYyU0u/ZC3RzDmMyvdJ3Pvwxd+8i93Z4XGNgv+43n+TCFW5W95rMnfqbRrwi58YCz2ICv56iAfuemiqEOWVkIAdv2QtWT2WR2H93TSzqEPRxXv9cHHXtWtW4ImDuPDC39ov1BhH3Yku+KVr4YyqMnh7pnlCzzAHlnJ5jw9Yc8EA0vGVGQQCL+xedbl65oYYIFdYBAeyEoH46pPXhk0nzkvkySPsR2L6dIM/jb9844QBGeYdQUFAzEs4ws+DgA0t4fM8lJ7qVWtNRlNfQZ1TuEgGQVgFEHow21P5OEvcgt6Rja24OIU60nOByyOHcwsBMBkNYLVOILVK2dzPPIR+MhDHXVlMcYzttmfQwGggqdkdA5YFbMdklIfWdALWdEVKBTgJw8gkpGsAkk/AFIB5L16jmrjlUz0ZEevwKdN8wW5/AM4a0ZyA27Dupi5aXDuFudCJJF9Kasnz8VNo1PxkdvuiDX5IM542oPc5KMrXYpQ1eeXCjzB53ORm1fyeRVcZCRftSl9yj/0drB7vbKJsdVx8BP/kAE2avkhsCxJ4UtbtqlCBgHJlyYJ+jhHH8FPNgSujcyBjkU2zgl4MphcjAdHZIAV4+oPzumD/LVHDHR1TRvLCWP67G4ZX+lDXXYr3WUb6skyYEWf73R5SwRBeIqPT+UsMpV/di3/W7kivyOfBvSIJyADAKNIywSdc5zB+NoLdAHCMJzOGYwFQGZpywNEAHgMxBHaWv85z1mcXYDkRPUqwMjn4ATnvXIAgrLm1581qHERigyAHNI8603Olom4Zq/Ar1JpYw1rVqlx6KJNyeGz9xUwAAxUZAUM+gFQgb3A71W/5PGerHSswzl6lO3JUgc7AiOQs7s6/4e9O4vR47ruBH6bvZFsNldxkURRTVKytXlfE9sTjTJj2FnsLBjDMBwgSDAPeRjkLc/zlJcAeQgQIA8JAsQJEiN2vNtjK5porIkn9iSOZUteZC2tjSIlLuLe3Lrn/6vmkYs93c2vqcWSpQvUt1Tde+5Z/mepW/XV513/11+1va2PtR+emW0P5VmFZ8Zzm+7o/NpEuU9XU2RhclX0NZnb6Hfntt33rNvc3nbDTW3ubO6YjUOxpXlKpxyeE9s4bDm0OSs446P4LXugwVHxWnzSF3re9XO8AmPpqb57r8+cxmdzGiMJcVbBnp0La47RlTnNb8OjAOzUgj3MbTwbsSe9C0AVJPRVGaABSzCKDrv4zYZExrbmp3uJEU7th3U6qgABE/CKNr7QrmqFTugbDz4LEviAB3OfiX7OsG/+FyNE2kgqPjez4YOu0H0h2hUFCIJT9v6juff9xPH2zNncMx5GASzxum0ayQpsfvCzcWy8zZw42V0GknkBnwMSwmd0KFKTSUV8QcQv6xjVcYCnKE2EZVDrFYzkmAhs3YIhRXNXJnxHn6L0UVXI3py8GiCQwfwCBb4ABDCBA9BFcOemxsoc6Lri4bkSwFflJePjq1oFKaDVAAnwzUFOQGZ4/AEEcFblUgFgoYHRpw9gBCaBBl3y2ecYesYDHH34bJzvtyUDDQVcDxw73P4xv/R7am1+HZhLmKfGRtr53IkXlLWR6GRNqgb/jXHD6QvtncP5a8DoecdVW7s7ZOmv5uYENnKYm0zmsZEJ2H3GA1AvlIdejKug4DNH6G9sUQGkAkuNMY5spXf0beamky9+8YvdvGzLduVsjrMzfKn8al2o8IKG4xpscGK6Jjt8angkGxklF5iQsKx5qRj1h3c2FxR8hzU8GyPpsR3ejUNPdUtPjuOFTdlT5Yl3QUaFsz24e/Rw/l82f1Z17EKqstx4zXpZzWk7V69tV+cPq7bmD6smQ4dNnm9bUYAgEAMdTVC4L9nwG0/mp7D56fcTG9e1ma15KGYEmj12vG0JAG85M9f2nMsK+P5n2j/d+bW2fdv2znkBhrIY3jqBqOucXmCgCEZRwjOqxR6rxRRF4TI4R6JUC4kUq78AIGCoPKZzDumBszIdgwC0IMLQni8pCov6nJ/jCwbuVuTMjIYvIBEgAEIFgb65ysD6csDq490GNIxMRjwbgw+BBTDdZuuKh/F0gDaAWWhzaiXbMSra1coR6F0goicy2xwDZqdALvvKTnRoAdW5sO8CksCEP/a77tT2tiey3/vEo+3+U0fbw4lhhxIkoGxzqoYb878Kt67b1N50/e52w+75vw0sXvCGpg1NjeNyAPywo4AB5BxFH+94NNZWjuydHkqXNccg7+Qgu7krQHIoOqVv+udQ7KxqEwjo2Zy/+Zu/2QUH88BGVXOcsuzIhrApeMCdJAFfTlvRQJvtyKqfKsFYdiM7/ag6/cQArxKaxKVyhrk///M/77ABx2wuYKgqLHqSATbpFP58d9fwN/LIxUfzL+23xF++dujJdu/qYGjLxjYymSeaRRezx0+01z10pL1zNJfnr7+h3bonfzQcPp7Pf2LQ0YquYnhG/2O5pv7NBIYvnc/vFa7a2GYm8iOTAMyNNR3KopBVqSbGUpK2B/Iz6n/8ejv3ze+0X3jXz7XdU1OdgzMYIwI9BTjnc14O3BQlWoucjMYAFKWqYBT7nF9yCg7N+fWVKURYRneTlFMaxuGkmmOckxErqLjBhWE//vGPd4bCEwAIEoz+D//wD12WNNYdlRxZ8KnV5zpvxJ+MBAD4M6+AVFdF7AcwwQ2AzAHgeCUzkHJoQQUt/bzjHRj1ERx81wcAHRd0BCXz4ZdcHKYcuE6DjDGnVjo5kX5HT+bekpksKl7U0droZkMqv/VrEwQiR+mjG7jEC3pkkS3Jg0/2BHCfOTE65Baca72G3gWMK201L/zQtTltqhr2gy16NyfZ2YK9VX2cUvDCE75rM4YsWgUzNAVcwYa+BQ/H6JZDo09Gfegedh2bTqISWOgeNgUIfFgnExTRYC/jYMYYFTKeHGdrpzqCkDEP5kd2Z/bmuRl3vKcdn7qmnfHAJvq7aNcYto3E59bkITE3HD7Rfm52pP387hu7/6LBw5W2FY08fOJ4+17+9usbuW33yd3b88c5cYYI0xXXYTDw62LEbBg6k+3CNXmM+K2va6N5uu7Y5PwDNiiGAYGJQYCHchiTkwAOJetHOaIpB5EZVBUAQfkyA6cgvDEMCQTo+M5ojlM0h2YEc5VxOJgoD2hVanI29IGBcQDHQqSHzbhpymf0ZXFAkrXKEZSSaMqWaBYNBicfmfBQjko+32VYoMUzuvXjHPvxbjMX3vEJkHhAFy2gNLcAq29lbmBDt+YrgPiO1sbozR+q7IgN2IH1ZBv6pCP9Fo4tGv13ffS3Cb6CE0eiRwGc3diRDX0X8Kq8pyty13x9ukt9plt2oXuBgY3RpQdyoEcH5O8HUBhgBxijz+rLZhrdwUzp3GfzoEtGc7A17JKR/s2PDv59ZjtJTAASHCUF48legcF+lQj+0ZxK0hRozIGG47Ch0Sd5xrOwvGpjTjtuuaFduD6/5kxSzoBLr0Tl+/kEjZN57MLD4Xv00PG26cC+tj0/D58Mv0WzI7yCl4EDBEU8cfxou/fcyfbQ1vXtPCYJIjDYLmnzt+quimCjb7yljQ1lsfJgHgATmYATwDkHMNoogjEpCdCBC3gothYplXsUKbA4X6vSUGRWZQAOBWt4NU8pHj399SmDVhWCnnGckzEKeICg4kDfuSUgAYVNIBJA8M5h8Q9QMoLTCcfwbv6pAABgybvQSOS1zwZkgFsgAWRBDw+AzanMzenNC1ycg8PhGR90yDHoV6ZDf6lmTjrS6EVbrn/X4TIvJQv+6BKvFdTok7PQt4CBdzohF93i3Ri6XNgqKLAjJ6UXgYfOyWAcOujZan3AMTxpPuNHoDYenUogqgn6YwP4sHFUfNrQVtnik43ZVpCoDX0yo8n2NjyzO55doRPEYVo1IXnAm2PwAdsaXQlQFZh8np3Lzw2u3tpmr8pjAG7Z22bXXbyjMlhZrLkZ7mQeTTed9389mv/qzH/o7tmZOzGjlytpAweIzgHOnG6PjOWJzdsTdYFvCSa7dAR0Mfbwjm3d+8l7/j2P8M6+jGMshgSGygbegZpSVAciPoVX+U25FdWNp1SnGfoxOgAyuOBhYxy3VpvH+SeD2Bif8RiGA3M0t2vXIhFwARxjMaZze8AAAPwCBaCpbJSzAOg7/oGH8QEQj+Th9MDMie1D3z6ylNNwHLKiD6z2cyRj0ChaeNAXsOrUQ18AtsotMAD5StvzDQwL50OPLKUvQYvO8V4VBSfy2T7OiHe6pZ+SmZ7ggYxk1k8AtdnHTuxf1YLvS8lCh2wKR4IBWzk1pUfzVIDFM17p3hzwY71LVWATuCWISjTmNF4/OBTo8M+ebGzDt3nICrf2wQ5eyFu2Nw6dChL0ei60T+c/Oc9N5YnYW3PnsJ38aLGW/Xg/n+dWHl21Ps/8mGk/ejy+EPz6od1SulmMVO0beA3iSAT69FOPtM9n7eHA1pTRYXxJRp+jPl+mzkUhr/vyPe1tYxNtdy63TUQpBNEq6wA242gc2cowUDgfd65PwYzCGJSsauAYtXZB4capODivdYVf+qVf6pzX4qb/1QAIToam0xWAYTxABVj0AVVwEXwEEHNUFuqYu/hi3HROddA2Du/l0IDC+OjqB2j6oIN3/fALCICLp8q2xnEUDXDIh47xdMTI6AEWPgUUDgJcr5TGhpyEXDYBlZ7ow35OQg++01Ppl4x0w242FZW+VwJ8PJgTVjg9rNEve5jXcfThoNYrHJcI8GQ9SjLQD5bZULCCLViAX5gqTLANDEt4+kk8+hpX+Cha+qJp/0MHnmr/cs3G9ujuq9uFDbmh8KLf6LNk83yI8/njnCPH2/se3N/+y8//h7Zr+/wj95ccs8SBgSsIRjoT5s52l8SWoLbY7hQaQ8O5f+FC/nJsOItwV+X/OFPycEQgp8y+gSlGhnDlAHis/Lv64OEtf/iHf9hd1bDPyjBjAoxLWhYmGY7jM4DSnDMCEGMwlvPA22+/vZtb2edx+Ob+kz/5k+4qwt13392tMgOfqyvLgQ940GXgP/3TP+1o/dqv/VoXmOyvYAdQQHjXXXd191CQGS82cv3e7/1eFwDRwUtfF+YQbKykWzDFn4zlj4Sti5BP0OmPWcwEL7d9eCYH/m2a7CrY/uVf/mVne05JRxz3Qx/6UPvd3/3dLhAWXp6vzHiAQVcSJJu///u/73CkOnDsj//4jzsMCdz9udipAjKeP/GJT3TV52//9m93i+ecXpBjdzR8/+hHP9rhWND4sz/7s+6qmV8Wq0zNVU2AME71CMsS2oX8H+75kazzwUc6LlE7FIn5d0Eknc/nPzpPjubW/Xw2zviVtoErCAx/KhXE51JBPH0FFcTrU0G8dSw3meR/MVQQlN7fKN4mQCj/qoIAoN1Z7HEOR/GO26fs61cQgolxDCyzf+xjH+ueQMzAqgq3ZjsuqBivXDQeAMnmvFIQBBoBxnn/chWEICaDmI9RZRcRX1ABbhlQBVAVhKykyfqyCn7Npz/QCwbG2AQRunH6I7jIsGS3D6DMJzBWxgI0DvdKaeQmD72TzTs72Ec3bCRIVx9yqx5sdENHjtMB/fWdbFAd4IFtYMWpKXuiwxbm9Rl24ISTsw980j1+VRAcmF3RwhvbwpZ+LmcWZtmGDKoHc+ljDQzdmg+NqiBg3Gd8PJSFxn+5ZlObnlJB5PGFnP9yTQURelcdTgXx0P72kZ97CSoIguShW21NShcCDNzSd+h0npeYFcqx3GVJeZTJAOhQAiXXObdyjyKBRF+rwpTNUNYELBoxDuUDB8VyZkZAB+CUctYxZAaGNZ4xZWNOR/mygMuXvtcf51TZii/jBRA8oFEgdEzmYGh8Ou7qRgUipwRAB7yAbD86Pgs+Ppu/soTAhAdyCSh4px9AdMqEvgAATMaaXx/BzgbknEspXEAc2DYvYUd8k4nceOZkbOgzfZCZTawF0Bnblq7pRTWhLz3VWPrglHRtPF1xxOUamgI5GuwnAGv0V4GgK+1jR7axNiVoOcaGArtLk3g3J9ubFyYlC7iBXeMscMOjykgygVUVrrldcmVHuOZbdXrjMxn0pa/xLPCPzZxpw/GhC7kSmPvmLx8kut/R5MpXLnteNZ6rd/G7K20Dn2IQ+qrh/G3Z6XPt8SP527tN/mvgMusQs1k0CSBWPfJ4m8xTeHOXQTsb47jWAMwMa1GHUhiFwTg5pQELUHBGoLJxUsoDElUB4AgClb19l73RYMC7U5I7xhCcXIBhbA5lPsbmnDIxoOGFsdEXUAQvmUW1IngAMpACAV59B2b00EHTPHg2p2MAj6davCKrJhOW/GiiYYwAQw58A5fTFc6CVvFnrA3/xk0nIJXsggngXs5ROiZe5BfOCOh4pMcKhuzjGD7pnnzkIaMgSkcVkPv76QkO2NDGTjBS+uHAdARbiwULvOCBnumWfdm9qkZjzY0/zmluOJKkXMJkR7oWuB2TmNgAr+jp5x0/xgsQMIJX2DDGfOiwl4bPqampjgZ+yEdfMIRfzj3+9JFcgs6CZa5gzK1PFZH9S7b4RxYI21gePrzjVO6I3ZFfLa+58upy4ABBcbsmJtuth8ba0wdziWh1VltzjlM/Ha6aouPPlwBgLqCYfejRNveNb7fVk7nysWbemSiBsjgBhwIUCiyDuftPAxjHKZlDUjTg2w9w9nFMwQItAKF8nxnRwiS6+t+ROzJlCcc4oYjO2I6bz2kMYAEdo5vTugYwMZTgYk7BQUUCFLKBwAkUZAK0qRhbk2UEAPPZAMF7NZ8BiV7pAvhtgEVOYAUm8ttnDsD13RiyOA7AgplMCFTARQ/mJk85Ws1b7+Qjl82lNE3f4QASb0uNq/GLvRdNfLKljSz0KWuWDOQVGOhPFUCHSwU0erORRxNYiibbsCO6MGQeAZKO6NY+tDW6FRzgwjteJaGyoT6cFn361vCGtjlghr6NpzOJSb+iZSwMGF96L3uaA77IjT94wytadIXHCkxkg2l2ZIO5zDX2xFN5psfTWYeIXfLHOX5Dk4Mdj8+9dI6X267zW5rVqTiuPXaqvWVovL1u11Qucc6fsj7XdwUfBg4QaF63aUv7jzH6micfbV98Ir9My52UZxLVLsSAKQ7mtwSH4QBuJH/RNzedx6jdeU+b+T/fbqfe+752ZnL+UeCURCmUQ/mUzACM4Y5Fjsh5KdppgP7upLQuwfDuS/jwhz/cKdKdlGhYbLIwScFKb8oFFCABeMZjEGAzH1r1mw1A0acM61TEd2Xg3alCGJpB8ehZFqoClxULSM4nOaVAhD8gsU/gknk4sVJU8AISzlBAx4tARwa8CUTmJzP6jlVFQ1+AZB48AzBHw49TM2WtS7rkFkBkOPyQpRywc4AsGJ/MH7AcO50tQeXUOf89kocMxybrA6bJtbncmHH+cKXGsf9iDb2OZnile7piRxs7CsBsLXjKqHUaxy5XEoTwQya24rD0zKHYhy7pGx/60Q/dmIctLEzbRy9OGQQd/QUyuq4ARx5j6A1d2CGHIFBYqcrQO7uwHdlUv1NJErACO+SEYfhEF+amg2306UrCsXheAZ9t2bRs382dnyvM5k7K4WPHu983HZ+6tp3Pf9G458G9RVnNS+SM3yU4jB8/2fYePN7ec36kvXdv7kKOvHi70raikQyzd+eutiX/lXD9Qw+2//vIE+3e87lxaTL/GbkxpU8UeiGR75r8l+BN+S3Gdfnl4JldN7a7f5in5qQU3BGDAo3oiGlOs3v37s5IBKBY2dlKtv2ehk2RAEBhPjMwR3Pp0z4GFhDQdR7ISb7yla90C4zvf//7O+O6PVpGr6f5cDLGEtk5L4PI2EAFXAADHBaTGPOv/uqvOp5kDg7u8ikHrpKWLMbI4EBWDuFKCD4FGoHM6QKwkIMOqhoBMKvaAkNVCPrgEWDoydzGkFUwII/jeDCO7mwATQ/06F0gc5xDaWg88uh0+25+i/Hd44fbj/O36wdz3TwQa5sSNG7Kv0G+cf1V7Y1+izG1uwP4ckGiHMeaDKdQ8leFwFk4Md2Sh069o7cczY7RZV7omO3NzYHohs5hA31B9S/+4i86LLAtW3FC41wR4YzGshte8ecdvtGpTUDwsGTBxA/03Hlb9OlfkjEnm9Cxq2uCj4a+oMhGPgsGbIn2X//1X3c4Yxs2ozd04FE/mIN5fJGPHbUPvv0d7Zbc3/D1+x5q94/nD5o2pLqeyGXeyNXcYp3Lmm8ZWt3etTP3+OzOXb9JFC/pbzE6LvPCOCcCtANHs9CTP2B5JjdQ+TVnrgjn79uG2+aRPBp8PIrPrzpnIrCsRtGMwLlFYcZgME7CwJxRBK4sT2EcR2nKaSmaoRmNoimWQ/rNBdBrnMsxTu/ON5WGPn627b74Mp7MwXHRYFxGAQLzMyawA7ofyXivbEwOC05+WAUwDAoE+MefTQP+cgj7ZDaBiywqBHKjC6B4Irv5KzhUxl/oRPROF0CDFr67DBOe8YCe4KcJWI5p5OUofs35o/ya864T+depNaPt2fGRXAYbzqXrlKuJEGNZJ/Iny5vO5BbzBPd35B+a3rbz+rZzx9XdH+fgG03gZQc8+G5u8lZmB2x2YG8ZtHjqmLn4glZtxpPNO5vjfbF3x2sztvSNZAUdYwVQP8s3tytR7MQGNriqwM7edE/veMUnOmgIAOiwBd0JAPCnwYhjqhLBnx5UCPCGHt3AJZngT/LyTkfwT0/24Z+u9IM5n/GEb3YW6PgDnlzWl3D8mtO/oj2V39A8ez66mpv/Ned4aO+Mz12dZYBtP61fc3bayQsgbowwLlfuBESgzV+6EXh8NLe+RkDPg9CPoYGFEys7CwiURQnOnxmBUcoZnaMZZ9EHAEVdSmVISqNMJTl65lRtaFXaMhZgKP8YU2mrTBepAYvDoym7yawCgbGMCyjG1Lwc2j0Hsj+QaOYEArLoT050+6BGw75qgG2dAF2Acv6sMgBe/YCX41X2AlZ06cZGXzbzcXhANwe9okc+AcN3/Yy1+Y7XpxOQjicgfH/Nqnbv9oxdnwWv6MCP7FKrdGz6A75jke3E2TxMN7+fmTl8qI3v829qk90TpdCqUt5cZMIvu+BH4McbgONZI1vpopzbO13ZXzpj/9oKI/WOBp2Ti7OgTTY6MpfP9qPHEfWtX8daK2BntNmYrvRBk5OiaZwxdGs/GeHSZzafSiIhY8nUnxO20ceLMfDJlpKJCsE4vLE73AoAePNd9SvQ0KExeIRH9MnOP3yGQcEHL46rDPbG32ay1nA2QcIDgUaTlPljx1v0Y84Xoq3oFGPhhJRiq2qAkikRc8Wg7xxP+cWpKZ9hOIN3AqPBGJUdZVsgYnhXEERwxxmWERhZlcDgIqssrgEtGvpSNiVrlKaP/QxmTg6l7ARQPAI/2gBeRqoqQYAB/k754Wk6JaAGWPgEMkaWAUoWx/BDTp/NKyDIQvri03s5SNHBC3rlDPVeOq3j9b10Dqj6okvuokEWsj2crPNIngGxb8817fTm9d3NazHX/O3y3Yd8vmi3ufHcqrtpsj0Qfa3OaciaH/2gbRjOaVm+o0+3bMPuNo5FFnLaNLrub/j03XttZLZVv5KFjCWfd7LYZ6vAQM/2m694Mm/ZlyNKEAJX4dM+mLPRibHm911yqqAloKLNIava9V1jU9iT2el56mLwUIla40CTzvFkjODBNgICfOFfUHAcnmv+wgTaNRa/Kl34U3mgSx/ebRcmfnLLgf3080K35xUgihmKKAXWvnrHOMdy/sbRnbc5PxYEOLjz1DqPZkyR1/MgKEdJpZowjmFk3YryFMvwFM4JKZvBGFV5WAAyv8AkIOiPLn4YSXnIcNYUgJPRq5KQ2VUhHNoc6MgI9uMPTXMChnkZzOkCQwKpfbIJ8Gn4ss7A4LKFUyuBDi94IheZCqRAAmy+29CrDa/4sdE7YKADZOauIIWGMf4pa1+qhwevClCvnn/s/VwWtP6/dtF57b+QXwYeyg1x/3x6X/5H4Jvtpg1b8uCY+V9IVkAWKPBIt8Un3jh8Nbzhp+/Y+KQvvPps06e2wpOxZFzYzEGuwgQ9k1WApl94oc++w6CJBwlAwtLoGw3BwToVm5DJnE5R9UeXDdHznd2drpKbrcv56QB29ZFYYNpmLpt5YVlSujuLl3CmkpUABSvVBSzBhr6OqRoEB3L1ZSl9LLavjr1Q7y9IgBiEGUrnCIDBoSlF6cTpGYkBObB3CvIZK4GyhQAAQABJREFU6Che49AU6LRDY0BApVgGZrDKohzPoiAgoScgqVwYTHbAS3+1WR/gBA78CAqCgXf7qxkHKI4ZYx5gNLfIbzFJ0JB1BB5BELh8n0qmARQ80oHNKQ/+OYgAymHMAbgVDMrxvAMr+t7NiV9bHTNOQwN4ivdzAs9kntuRf9RyWhHFlEhLv6sAcnQmi2Cn46Nu1zUPPdKRuehXo4uarwKV95KTLX3HDwfS17sNr7aVNHzQPWdVptMfZxW86XhQx8E3vryjARPosDsHZj/4850N2c5VCBvs2eifnGSwjqRK/OAHP9hhnH1tsIAGu8E6fPtMH+a36acP+9Iv//jVX/3VDhODyrMSHQ7a9yULEBhiWNmFYhjFfQquNGgWlQSA3/qt32q//uu/3vWT4T/5yU92+ymeE4m4DOKzisMf8sroLo+qBMpx/Pbhzjvv7ByN4T2dylUMwYlTClZOe2xWlS04AQH6DMZQnKCcrGMyL4CgdMW/BUuLryodz4uQgTwWfTqnIOT8wAc+0FUNggiaHELzbi6GB8yqJgQelQaHcswYTtjf0PW93usYurVfcAFKsnbrD1lMPpdV79lcrQjjug7U/CnsqlQSubrfVoWfWmcQyPC40MHL2b3TT33vf7ZPq2MDMXKxE7kEKEFBlUg/sixdCtx0aa5BGl1xVvZzB6TgwoZwgY65YIDj6mM+wQAmJRp4kuD0hye6drprgzfYUQUY+7nPfa7DF5k9UJnjOy7QfOELX+gCgrnr9FkAUQmZn51/mu0lCxAcdzqOQ5kMuzsLi87PlIeckDIplkJEUMGEEinKfhGVskVZY0VvYAEIANFfRmF42UUQqcfZm5sB9UeT4kVwjmlufOCpNllf0GE0DgswBWzGMgYw8KEvOrINAOGlMguQka8CQgUItHwGNIEAuPFuERM9WayCkPnK8fFeG3nRt5nXVt+9O177ZzNuSAmQO1tDLduAGTtdcxW0jYdX8x47Pn+5mT7owIZ/svhMf7XfPsdsmvcKCn1ddgeXeYEHtqJH2Zx+8EL3dAQbFVCXIXPJIfZXdTqlhAtJAT02pWtYU+qbC17h0XcVgiQEW+Z2DA2Jol/BmEyA5vDeYVtwxbexqhOYNJfAJIHggxywU/KofOkTBmHkp9FekgBRTs+RKiBwSkBxOYhCZE/7lOlODyjGdxlCxuKwjgEnwHAo53MUy1gMwVAUzLAqDlczzK06cFw2BVzGwcd0AhbDAYhswKmcKnB2WYoDmw8f+Ok3gMeXPgwJQIDgnBGQOCdAA6LPeAYE55OV5fDiO9AAC37qdl3rH/RSTt5/r6DQDwg+o6GVI/pM/mGOHpn9Jsbaw9DIAItZsY1cPBZQX7s5f0+Q//WsP++lX3TNV3NVkFj4Tm8VOCqwVODwThe1oVW6wTuH4qx0KIOzIZ04jRAYlPzoGzdoYwc2pmv24XycFG8SC4zURkZJhZzWl6whuTGLrvWFIUHd6a/EgDbnd9wxgaUSFVzCHWypWMyhUnB1DH2Y972qTbiGwdIfPunrpW4vaoAgOKVQsjshlWsaZTI0ozA0hXJOwKsGHBRCQQylj3FagYUz2ccxHZcZql85PR44oeDiM7poepcBnNYwOkPagBCg8S0ocUynEPgERPSB1lyMiDcBAa/GA7jAYTMPkOhnDND0DW2MDQ26sOlnM4+Gd3SKd3zr77tWNKpP/5jj+m0MOHeey8Na8juaZxIkZupXgRdp6HdJ43A5NhIetuWO2DdM7W57s0i5OnywE93gz2f82MxTm+OOcRj6EDTwWe8+2++dTuu7z/i3+QwPAq9TATQ5mWBt40zV37vmvT735UGPHdErx+WgeIBD+ubw+GV/ffFERjYRHNgNDtjDcY7OtmSCH/PCJTyxhaAGRypeCQwezKF/yUdf5oMlFQIsSziafeR2ZcQY9Ct49GV7sT8P/HPvpRgpUHjX+kaiSErkaO5GpFyVAmejMI5FiaKw8zGO5BxN1VDlG4BQLIW7pi3qCzSMDSiMJ/tTugpFWecp1WgwDhAwAsNZHwBcCmd4n51TGq+SYFj9yQIAnsEgW33kIx/pSkuyCXbmxw86SktyGOO5DbIJMKHJcQC7MiA5gQUd4KMDRkfHvN41etBXprFG47xW+Vvn2frVGLTMA0zGmQuP5gVyOqcHD6j9zokj7Z61Q+3h/HS4M9f8y/xZh4k7P4uThZehjN94+Fh7z5GZ9l/f8u7ub/fQW6qRnw1sZLPhqwKFd3bAlw02vFe/0hX72s8+sEOW3Sn/3TugYoAXx2zs5Z0u8FZbYdC7hh67eMaIRCEosFklBHQ4Jj2VnuHPVQk6FwDgzGdyCihwgxY6NslKBUt+9icXTAlqNvKqejWBBh1X9FTQ7OZnAqpGelDhkFswc1otcHg62u233975TkckL2jYtIUydztfgJfnVUFQBsFnzsxfG5+dnevu32dEG9By2rtzWQdARP0yLmMwKIfWOAHFUxDlMhiFChwUrxSjBHQYEWDctkyJyjrvlGqc4CECcw4gwIvPADqd0tLcFjlVHvgpcKCPZxsQASSQOkVxiQpvnNZ5J5pVmppf9sG/gIYXAAMQ9NFFS38yAyu6gFQ38uCzdENGp0iAZywQABl6AolWuscrufEkKxqLNzoSvIwRiPDXnnqyHTj4ZHssv8Y971eBoxfNfxFkmayLEXPnErwSHPY+c7S9fXMu5a2+/DMX8FkOWoEOnwVg72Vb9sUn7NQ73QniHMI+gZlj2Mgg8Nk0OqArjk1vZWNy9zfH8cU+kpQb4tATcPDimGRlHwzAJ97hhPPT2dTUVNfHHBreCmvGa/CJHjzim+7hj51tToWNQU/iwpc56EvwkejoQqCAO1gV1MyJN36AL/aUUMyrfxdgL+Qydr6j5UdZ5C+MdMw9z5crChCUwQmn9z3ZHjmYX9SdykNk5pI1Aq/JnONel1s+d63PJcWnDrSv5eqEJzcp+QlLQJGY4gjF8WVVNKfjvG6LdjpC0eYgrMVCIKE8BvVZhuZAlAlUxlMOIFoZBjhRl/I5kEBlbhvFUio6aLsGjhfA0Z+TaxxYiee3HQDDGRlacFEJlUMyng0/ZOH8ApsgRm6AIQceNRURZwB4GZM+jAVQfJABYM0vM3F+c08FrIIb2eyTaUpH+KbLCoociD7whSZQ3jx8XRtJUFj9cJ6xMfR0ezR3U57Ob2hWdf/VmaDjfzgP56lcx0+3t65e3949dXO7YVvuNs2NU+UMnQCXeen37X+mA/yQrzY6YR96IKM1HNmanelFw7/GOWsrB+Fo9Gm/oImeY2xjbhtdf+lLX+rs6k+Z2QN9uhQ84cqmsb3qTXOFi1PiA+94hgOVqH7wY05ODld0jw4Z8eEzW7GRBGE+2PMENInRd1ffYEnQFAgkFn3Yz3G8mhPGzY8Pv6J+/GSuxl3I8y6Hsi+8TiQ53zK5ud2wNeszuTUeL/o+37aiAEFo/43x5JFD7VtP72sPXJhp+8YutMPJMCeHcxktAXU8AWJDrsxsypOnjh94rP3g0UTiCCw4YLqAW1GfAJTNqIzMIIBdiz2ULzJPJ3hYtGEUmZjCgYMzMogKxDi0nB64mQW/HNY+RuJg+nBMBjIHPtAAMhtH40zGostxgQhIZAq00WEsYxkQL47bjEEXqIFTVmBo8pfBfDaPYGPDm8qkKhnVAlp4lYmATIBTyZiPHvEIgPoKLOjhowC6EBj42TCxrt20Pb8FCJhuDsAeu5D7CfI/u57R4eLGWOy2eWxDuy46uzG/3N21LbeeZ47ieyHNlX4vh6U7DiEo2OhddiUD+9MPWeiyGkesAGBsbcbBAT3RNVsLOJxYYyvJxiVnY1wVo2dYYydzk49TsoPxeBJA0NVH4KI/mPBrXklDQODYaEsshW0yooUHDs9Ogh67wYvTCvTh0oan6mcO/YzHH9kKE4dzivjtfXkE3YPfT7m9Oz/UGmvHR8a7R0BmnSCLybPtwfwe6rqj+9utZ060N27cGjv+5OltpceVvv/EAgOMPJ1Ticefebp9a99j7X/M5oaOzSld81dfs8kw3ZNuQsPPpg6dSy1xMuebW/Knu3lk96Y8fntTnKRKOIbnAAzDABRCORyxfrJ9d05LGJwBZBQVBwPpaz9HZVDvlMiR0WQQoHCPhX6MYhwa9gOZ+dGRKQALaICBobzL3N6LLgBwPH0ZnvFswIBWOSv5zFcBBRgEIsfx5jiZfS/AcASyyRxo2ziK4zWPMcCiapBNBM36c2IBAm9o4me5ho6/ZLt5T/54KEHnWEDn596nz83/w7U/zlk/kT8hztb93DvfX+hWNuSY1nI4JB1yFnpnR1hY2PBu01fgZEfORW6Nrhyz2Q8bdIOmOxvLGSWi/sbOeMJLYYz90Jc48OczvAjU1jEEDJjoB372MS9aMC2ZwZ/5K6HZTwbJDLYkS5hSCZoDPshGBvu9w8fm+M662dw0uH1z+9cNOb4tPy2YzPMxhuO+nc1zNSkB/nB4nM4vqZ86moXd4yfae3Jsb+YfSb/LYWOhvuv7wAFC1H8m18HvPZRFx7Mn2qM780/E61KWrYoxcyz/IhqaKR1byroI1lK6jrw+f/+VsnVNBB9Zn9tqI3yBmUIZlWLsE4HLaYCHojTZXrnOcSiW4TnydCoKxqsszjgM5x09DmkOtMwh0DAyuj6bTz+ZWbZgkApW5gUSi0kA6zj50QMoRtYXT8BsrLkrMJjDBkD2qxLMhZYKqIyFd8DVF991+Q0wZVGANC/+gQw9fQpIxgEZIBVNvC/X9NN/Q5zHX7NtuwhqY+y3kW9QesvNVcfwTz76oys2pLvSmaqBbjjDYsGBDjgeGrYKnOyJRm305bP5JBqB1Dn/VBIDXaFTNLwLFPrDEXlhRmXA+dHAL/w5RRHANfazdsUe9CQI6Fe00XR6I/mggya+2FSycKx+SEjX9AEHdEIesgl6Nphh3+FNqRi35DdE+V+MoTffkuCQR8/JBeGxmh/dhVB+nTvaHuSDR4LHZ3JDYH5otzlYN9eVtIFHYfz+I8+0Oy+cbPftyeKZqgGDMdylLUHi4r5VWza18V94d5vbe32b+bcftVl35kWpFFIOaiylUjIlcjyltO8U5m5Il4+cz1tTsE85Ttma9QANTUrlwJTuSoaAIusqC6cTUCw0cjxR3fyMyvju4gQURgIcju6uS5kcsDSA8dRqi4fu3jS/42jKBuYUCAAfDYYFNusCApp1FYAhg2NaAdS8Gn4ACK/4kdHcmENGPAOM/cBHR/pZ5CwgdkQGfKlAcaXAGXCaSxxNVlVek19AcLv8UkGh6NM77NELbBjvnZ3xzp42NuDoEoKA44FC9A8T/WDXlxeW0JUkJA3PH6mFa/PAjq0qTacp1gzgA0/shwbbO/2s/3AVmAQSfZyOwC86sA8vZCYD3uBLEGFf32EA9gUegSXMt1M3XN/O7sofKO+5LkAPHnuBofSUgfN/RZEdJ3fkP2WToGce2dc2P/DD9o5b8vcN+Qn4lbQVBYhjc3kmY/6Hc1UMTJBB2lwWVGbzJ6MnExw81/lChKNQwldWAAL0gJ+xHJ9K1Of0FFXOpmSkPNGb0/iODsVqDKK/sYJDlXaCgJVkYFCic0ggUrEADxoys3mATYb2mUGr6YcfxncDFqMbVyU/ejK8OQBV5hHwZET7BA7grXNgsusnqDguqACL7AIwdIJvIBQIHDcHcAlSFZDM75jz4YXOULz/tN7JQEccTJBkOzpXkVXF0Ndxn0/60Z+tOBNdCAoVfOmCrVRg+jkuoNKdoCxgLKeP4k2yoWP8CPhwCAv2m5cNYUEgtmhpzsIbGsaaV+CBN/ywoTH4gmk8oy3JCfIaWejGfHQAX7CCTunEPn82dTbV94X8S10mTnAYwO/SZzY0T+d3NE8ceKbdliC2IXTQW2kb+D4IAP/U/unnHnvfRbFMumwLQ3iay802u7/wP9s7sjJ+87W72tYomQIpmkJsFK2MkxllREoyJwWK7gBmvUFQ4PwMxpGN4SQcDR1jXTkAEGCpoCNAqBo4MePIEMDHiMZQHkDYx4gcWZmqfykWL4ztfBWfHBsg0JMxOC4AATcH1hd9ADK/6+qACNyaMUDFaSooCRL0Yi5jBRUgFUzIR/Y6XbKPY+ADHY6BTgFsWdu8iAfxTo9so9IStDkI3ZAZj3S88HSi9MbuAqyNHmGFHdieTQXqwg9nZn/99JlKcijbL6UHdqE749iG3sqOMAZLqg92hzuBQFJw5Yx9Cg/sTj53QZJLFcC+cEYWVx4cxyv74M1Yx+jIhrYNT7VJdGxPD/c/Nt2+uTMPUtpzbZvNDW7GXLYlGY/mlH/Ls8fbex8+0D7yrvd2C86eG7HSNnAFMRvGnExcyCRYXNFUMnE2slGCskyjrDIiR6BMimZohgMEi4uMxaAUqT+A6afUo0QKFQgAzucCEoeqgIIWJ+Vs5gdgYxjCMeDlqEpB1YGsx9CcVdY2L359n7poaACTBcyLFv7Jh3/8OYa+cWgAD54sXgK/gEI2jcMAPzDpYz6846H2kxWA6Qqv5JeN8URfgqzv5gfk0m03wYv8Arjm56iCL14FBvrAk9Idz+SjD/3Zqkp0uqqsSmf245+z00FVT2yl6cuW7GReAYgTCp7Lya2voMLxjWd3+hbM8It/87GHhME+7CZh1Nz4dswYdmRrx8nIJvi3nw7Ql4AED7LDsABR7/SDXunDdzySvwskhA2+PBx6gNCgt6XAjt5s9HxWABp44Pzw/uvAAWI4xspSWBuJYVcUHMwWhYyvSqUQGheiAGCwAUo5tfNTmVl5VueqjE15TjsoeyqOSXEMW87DMTgIZ0PPcU7EIAzN+AzLadAADs7KmObi2MZ4Z1yZxL0Hfl/B6IzPwAUO4viMN4ACEnxxSHzJPo4BhiBkQx/QzIlvayJ1aoEn4NDPMRv+KsOiyznwz/HoiHwAiKYNn3iezqkIcNIZhxFYXoqGf/Pij1x0wgE4N92QuwKD/eUEAh0d0oF3jsGW7ECHFRzowH7NeLZSOQkOnKjmYG8YWKrhsyoHPKKJ9nT0xkbmFWToGgYFAbiiXzbR6Ba/koNkYoxKE07QE7jowMI6bLODPvBOXuMXbuS2j16quqggMhYaI5F56PzCtb6lpJzfPxQv9RDbNQkO//81oeXH9o8OHCAIP5k/5Jg8d6EdPBdBEtEu22KQuQg2dyxPjgqzY+M/uR+fsQpYjAXwIj8HFsU5CtAxlOOa68kCAmAwnkqC4qu008dx5T8Q2c/RKqsBgzkZAv26HdocHNR+AAROzuV2Wo6uLyct8KGBLlCgiReVjv3mB17jOIV+gO67DIqWoFWgAQ78ARYAASK6+gpE9A5oxqDh3Rx0AoiABdD485kD4EOT+Yyn1+K9O/ACvJgDiOmMc+G9Ahe+OQaeyGF+ffTFI7vSN5uX3slFjirR2Zb+qhown7F0Rfbpi8Gwbphjr6VkNNbc5rK2wD70IqAIauiyOX7pH3906zids7E+sIFn+JMM2MU4fMKhcfSANxi0ZmEMTBvfDwT211b2ImvZij7s98c5o7llYOjYidwNlYA/GpfN/uWaGDkc+hN5tui2NXmye/hcOmwuRylVfphYfraL43X79iMPtS89/lD7+kjupLwxDuHSpuGLkQiXbtmdyyLJ8Lf+vf3izKq2d3P+oj4OwjgUwBhAxkjocxoGsBBYkZ3CfWcsRqZ4q8VVZbjG7Z4ATqgxglMEZTyQAU4ZUl8gqsxjnLUMRjHOXMCDtj6f//znuyDjb/x+4zd+owNCzSEA4VVfK9XGKqVVG+aT6QUoVUqVngV2MsuYxip1VQGCH/nspw8bnvBfAcZ7BRiAk8kqWHBAzkWH1iTwo7/za45H5y9UYysycCJBgbNosi8d4JEOyCPwcRC6wi+Z2B6f9INHn9m7nKMcvd7NV8mCzjRZfSrVCQyZq/p2Bxe8GItPlRu7GINX81uvEpDxJPiwh+yPL9UD/ZPDMYnA1SinkuSshWFj6aBuuYYpAVI1KkGQrTZ9fWYPfJNZoECfnswBW/RkPzx8M/cd/XDzRDv11tva0FQuuUf3S/mc39HMBgt+R/PeI6fbx298Q9uZu2HNeSVt4AqCAXbkpqjb1qxvTz97oH07Nz+dF9HC0MIggUkhayS36Y3mX7VGHswlyc3bs8gy/0vKUjqFMDiwUZxIzHCUK0tQHiBwMscpj8I5oX7GowWQMhUeKVTfciCOZr8+nMZnxuBEAo25BRIGcwxYGdZxQDKHUxwAF6Q4Ij5s5jIPfjiqOYzlqDIPBxJo0NUH7z7jr/qiD5TAaqw5ARZAORSeyeCzY4JJOVVVMPgHfDpzDBjoEk/m0+jHvmqcDvBtdKABbAG3xlX/etdftsSTOYG5TrlKxtI9nunJu3H4wgce8W7DUzlKzdF/xyd7sQEnxxddmYs+jF2ucTLz+y2GS+aCZemajfDKBt7JZB6naxaDzaexPd2aGz7c2YtOBV7yG4tX2JWI0Gbv0ieb9wMgncOSqkbVh0e6xK++bEpu/Uaz2Dhx8libu2pTniea0yj3QaR5RuhzLbx1fpekvS6Pv99z+ER704Zt7aroGg9X2gauIEzg6dUHIsj3c5v1XfnRzwNr8ic0ud56PgwPjQd8YVJ0mwuAVh/J5cbjM+0NJ/LU3X15EOehI93PjhmV8BxEZJexOQHQMQDDM3qdOrhuzHEYSzChZE4CXBQKpJTIKdEWyVUQ+jESA9RKsn/TLsU7fwQEx9zzALQaIONLgAAoWcHpg/sRAAJ9CvdZeYk3BiWDYMAJVAOOAx5goYe+jIQncgITGTmxAMGRgHIqWRGPxtiABJB8Ji++ZBdARdMGoPo4Dsz60Ale9PWuCiMHh9T3mYDyQG6ZP5i7KU+czwXoFILrIse2/LnRtjjxlo0/+RNhesEvHsjPDoJj2YHeiy6gc5aqFARwtuIs+KwNT/RIF0u1yqDTKdmd89OpOWteOMGXfja24+jebXjAp2ry7/7u7zq+XB6vqgpv+IAVpx74hksVnwrBcfg0P7oqA/vZxzh2tx8G4Yg89KwqISe6tpIRj3TIRuaiK9/pjj3pEd+wJGiwUxc4goFVrmBcu709PjHW7t84/xuaufyGZqgLkPOn8sP5Hc22/GHvG+byXMzcav3GHde2a6Izd1JeaVvRSA8M2SnL5WaNtbl0+b08Y+DxU7Pt2bncAZbfZIhno1HCeJ47sOnMULtl7eb25mu2trb3QrfoxyEKaIwHyBplA5CNQ1MQI1A+A3E8jgT0nI+BGZIy0QMAfexDi4E4g2huToAWENBjVAAAWjwYpwyubIYfRmU0AcAxn83BWOgoLWURQC3jMzB+BAQ8OX0hD57IUwA0TiUCTHgFOGCS4cgI9DIcxwcYjdyAZH59BBN82S+AmNtmPnoDLLKag47xpN+R8LE2/6m6P7ftPnziaHv8dP4MN8EhDzbr5ll7Po/Tm80TkHKn7I3JWHvzg7stk9FzaFVwAlw2Qht/eDeXfeaib9/JRqcCKD2Vw3QTLfJSju7dxjZk5XyciVw1H9nxw+H0pYfazI2H6Tg1fsop6VSyEaQFGjhgZ+/0pS9aKlYPhkHHPn3ggAywxy7G6IsPumUPgR8u4Y6sjqOhD9v13wUt9oAX2EJTMIIlcpMF3z6zKZ6sj4yuWd2ePPZs23o2C8JJvKdzh/z54QSg6NNC5sb4YpbT25s3X9Vuye0EsHe5CmsRU1yya0UVRI0kPOaPHE35G2EPnc5/L5yPYNk/kWi1cSxXDSbW5R+48nv4gIiwHEuUpUybigDYGB6QGIFAVcoDPEUyADAAHAMxMNBRLMNWJQBImkUrd8QBE0NStvHKfYHCPsa2UZ5qAxB9Z2S8AiSnVgGYh5F8/vKXv9xVFO6mcxeg0xw8V8O7DAsQZAJKfHAegHVMgGBs49BFXzOWDMBtnNu8CzRAWo08BWgBow82stUYPDhWgYVMZ/2X6q5r22PX5jLyxHg7lhtpzgd0Q6PzecKC8nCAu+HE6XbDzPn2lpb/ZFi3KX/AHFpxFiA3R/GODzgAdLo0t+DnNILcbKa/BjN0W+8+lyMYXxt6JZ9FYvbh0PQmKPXHoVUB2jt69AczX/va1zoHlSz8YrcCNn5s+DWGTOZgX3yrAGBSdclebMQetrK1eWGqqgvfVRcwTGYyoMs+bC8Y+I4/89INPcE4XtDiEzBnbF9GWC/MG+v4vvB6ML+gPnImVWZ+oEWOiVVZMJ3IKW58bsNF3ZduCjtX8r6iCqImMDFF7Mjih+1yDcCnUjpzQD+i8ktLyrNPlKU4lxUp8pd/+Zc7g1KsfY67SaWcXFBBh5LR4FiU6J57Eb+yRvHEAJyVcQUBD3WxCKW6sMrMsBzfPI4Dib6qDMDyHTAFGHIDHzBxOAELb0BEBjQY2dqGB+T4wx2nTJUlAMkil2YOcgA/XeKRMxvLMdCkH9nIeHJUoNAf/zbNvPQi0CnF8QDkQA2E5n0sAfq7Oe3btyNPurr57bmjNcBKQEiGeO7WXQ+pnc3p4tHNG9u3jp9o33v4sfam8LMrlcV1+QkxfskpkLEP+jKmgFenOubS6p3jA7x3fFYAEATYlOP0nQjvbOqd7GUTthaAyMW5vDvunX44D9ur1Di3QAETbrl2GbICccfcxRd4c3qnetOXPTXyuWfGKZ9qkdzlbOQii8rTjW/m9RRrfNANPgUWiWs6SYHNjKcn9mR3Y/QVwPXx0BgYqyDIhmg4JYYfclaDi71JTHtrx4v8fkUVxJXyBAyUcffdd3fRl/I4GIUxqMbxGQGQRGQGkql9F2Xr3nagMgY4GRJYNc7rGLrGMRzjoskBRX2BR9bQz37G42CMpkz0xGLjGA1vxgOTMZ/+9Ke78YKSOeqyHD44LAMCuEAASDIY3hiZDOYELHfZATxQcC596YeMwFFyKHcFD7rCh0CBL0EC6Ou9HIAM5XwAiCbH+bf9T7T7JvPcxbfc3OZ2Xj1/y25kX7RlnkzWhk+cbJPf/VF7376jbSo//94UPgQcIKcfMuGrnIZ+yVjvZLLhSZ/ayEGvZPGOd8fI7NkcdGqtgHOQ3fGyRekBDa0Sh8AtqPjOeQV4VYOKAL/Vv+TFJz17/ogg5FTPPgEDDQvjcEFePFZjPwFEBUwu4/BG1/BIXv2NExgqmMGF/cYIHnAomOCLvLBgH/rGwu5UAgr7LuS9eHkp3q+ogrhSxghfGZ7hAUS0ZEBg4HQuY1IUAAoQ3vWjfGM1jqg/pctOFMjB9WNkC4sA5zvndJyDc1z99AE0+3yXYTi4zwUGhtGnmu/A4NTCqRJZOB/wAiZavqPDwBxfJQCEQAIs6NU5LN6N0xynA7LgTSUgENINZ8cTWcr5zVMNTcfLgfTznfy1Xxg4k3v5z27P6ZB7+mezJ8eXbI5FZ7Njo+1UVs5P7c/5eeapOfBow08FgAoG/SBA7/ijO3yVo6Njs98+jS7YV0UnqHqHB/3QqU1fc5iPUzptZDff6xiHVxHACFsY22/6ck44wwOcmV+AckxgEGCMpcNq7CM4CGJkn4oDo8NGeEKLndm4bEq+sgeMwINEw4bo41V/FSqM24eu+dFbyHvx8lK9v2QBAqCmU04BvQwjalIeUAAPhTG0wCEAlGKUjOWQFM3hOZONkxmHHuXbfNa+8Y1vdAHB+ZvobL+MR+miMwOYG0gATakPKECAT7RtFSS8q26scVQZaxxA4dc4xq9THoHCHLKF7IZf4CEz2dE2t2CAngW0Oq4vPvGNrrkrywCmzf7aal/tB9Y6pqw/lXPV0xNZTMypw8B/nDOX9YKhnNfnh0JHz2eR8vSpNnnqJ7+fYAtbBQ2fKzixHZ5ttd+xOl5jveMPJuhCf+tH9MnB6KpwUA5BRnajN3rV9CUvJ0ejsj97mWNh04+jszO9ogMfbGJu+/pjzQlnqruvf/3rHb/6kYeNODl7Ge+7pIZ3x9nCWNgwn8/saw7BAG1JkX/An/1wgNZC2RfK8VJ8f0kCBCVQjvN/pRnhGYAiORJHYyQbR1G628eIrktXxuDsVnRlcgahwDrG6IwgCls3qMuiIrPGGEpOgYBBGQmYZADrIrIAsKNnXvSnEsnxqJ+5HGdAaxOML6ABKxmA1Pz2kcMYctqsV/huY3y0C2CAIaMoi32WNemGDtD1QyBBCF+Cp2Oa75zCMU4GeGTwXgETPcdm8n52/UQe7DPuZodu/GVfFBj0mytWo9HduujL/PTGCSrYkoVebJxiMYdcbC58072szVZ4ZlvrAKXvGkdOskgAKjf6pGuyqhLwgJZxEojT0qpQi4Z3OoMrpxE2tNiBzegdLU5KFrRrTtiqdRFj9JsKNuAQlmzGlEObpwKZ/jUeDXwZS3+OkZ8s+IZv+CDHy6W96GsQgOCc7m/+5m+6rM5RrRkAGkf2ndE4MgBUFAUKCuTwFG7j3BSpT2UYTqEPI9jQYnAGYjDOJ8gwpqsPaHAy423AZcx0AhgefOb0jGSRiDEXRnPyyPpOZfAsiOinNBU40AH6chwBA4/AL7gUmMiIf4C3KEZX+EOHjPjHF/7xBYgCB96AV//a+t8FBRva9LD/0MH2z+tG2g/ykJ+z2/0354DwC3/juc33o/tPtjumbmzXb9/R/TdGOcKAVC7pxo54I49TMA5CLs7hneNUK0ejY05Er2xMfo4kgJJfQBcgOLmrPzC1kMeaV5JyWkI3hSGVXq030CNbqRbwWAu/nBt/1qf0hV/YWejMZVMYYjt08Kg/jLAv+ipLtPWvNTQ4GjTAlo5e7PcXtYIgPGVYVfaQFY5hEdB+mZgzKS+V/G5E4nif+MQn2h/90R916wIf+tCHumcJOkcDDH05JXqUDSQU7RSEYUVnxlMpCALoA88999zTBQrGZBQBBIAATH/BQ1kq+Cj3OKSSV2BgMHMBQzUABCpZDwhkVIuvso65VUHOodFBT7DgCLKW82sgoQv8mMP8wO3qisVLwUepDVT6mOfuLOyi4aE1nIiuyEyXZEEPj3izAZvsiLed4fXpI/vbvgD1UALGrMuacdRlW2j6w52J3O9yzUTu7pzIL017WXLZscscxDNnd1+JwGitpr+Y3B8quHF89nalgX3YiT3IRQf+mpHcFjXplj4XNsGBkwowThFgRnKiRw8Woi8OzV51SogG/cGd8U4t/SUDO1WAX2weSY2dLYSTFd5tsIoOf/C8TLwLivjGy8KAtpD2T+v7i1pBUK7M+NnPfrZTCkeweKSUZFRGrkBBYfrLLhVYODwlKuk4HweRdTicDKBVH6BhPI6BNsemdHQZXdZgPDwwiDmAAl1AZHQlMiDJ+Pg2j4zkSUIA0jei+QFBRiKHgIQ+gFo5F3zMDeBOHzi+YMEhVAGylwZEZAYefeteEceM95ARAC758aa64CgVaATCOuclh+/ktwkw6N/zwPfbV48caN/L8wxP5F+755ZbqBzK5Bm3duZsu+Hxp9t/u+6mPN16/gG2fR3gcdBG3+xHpxxVU1GRhf7wqZUTydiCNEyQST/2pTdy0ZUgw+HYXpBxbDH+VCAqSU8nlzDQMTcboVWVls/shx8Ywi8+7JPl4ZBu+3Pglw31k3yqYsCL5CO5GS/IwyEskJU8Ap7jaL5c2wvCGQcDAI3wZWyZmmPI4BTJiSirDCGqGkeplEypAoZ3ygQm2YPjGU/JHIGTG6cEZCzzm5NhbX0Dmk9/c7r/gtMpFTmXDQ3z228edIFDH7y7msDQAhVaGl7MIRihARiyPSDiG6hVEWjhWV/HOTqAAB5aMhSQAohNH0AUuMguAHFugBbU8CdwcYqqELyTzWae2jpGL75wsD2bcnddbmg7cDL3/28J/7nnYW4ukSCydJu+F8fP5dhIniW64VCuKpzPre3rcyoWvaO90kZX9EAmzql6kLk5NAeha7bTT3DWjz4FQkGRfDChP53hQeUh4HNKgVI1R7eL8Ycumuzo6gM9oknf6JsTpmBOsmED/FWlia6Ehld67Ddylc3xax602FQAgG92MY9gB8vmq+CE9ss5OJD1igMExVPOiYDVvzadnDmdq2d5FPzoWJuMk44Oj3Qlm9IQ2JXcZYAq/zkSBTFIOYHPHN7GuTgT5QMSkEwlW5RiOQoH108f/DAM50YXYBgIsIAMD0AlS+MfLREcaAQIhkSDofFjHFC7Vg6EAo1xnFZA47D6m1tWBCDHnQqZQ8ZBW9AyN8DglZM7jQA8wQfPdGK8DX2ykgM9/OAT8AAQfXqhE+PxuVzjgFdftbW9dTbrQYcC5MfzcJT8huZcThty3tAFhm585vL0r1W5/2HHsVPt7WdXtXdtywLs2is/NyYLZ6NHsguobEEWtmYjtqZHwYNsHI+c9KU/HbK5/YK5IKsvvbFJ4WmhDjgjfJjbKSBdmpezoysY0J3N50ou7Mp++KNf/fs6RocseGF7mGI3/OAVdvBL75KkQF+BUVJAD8+Ov9zbigNE57hKqjzhel/uC3/i6JH2VD4fOZNSPYqbiKK2rc3/RKSEvfe+e9u37/teB4BSnkhNOZxRJmBgSrOf4ild4FBCcgCG9Fl/RkLHPgACrnJQwAIcxuW85mBwhtNPf5HbuaFIjqZjVeKZH0jQ09CZSgARhFQFqiCALT7wJgjhWUayNoI3gFKyAiR6AMkh8IMHIDeW7EDmOz4LoEWXXvAr6wEZMKGNlv6ubiibyWY/QPq8VHPL+80JlqMpGM48cF97aHZVOzqX8jqxxf38ViTGYrORkzNt3aHj7c0XRtodW6/OXXtZcQ+/y9FebM4K8OxJ3zKoNQIVkkRBHg5MB4IzfQgkAq3A6jSNvumMjtFDq6oQ+lI9sJskQI82NCt4s7FAaoxmgdH89CX4sj1dauX0+ODQ7KwKlBgqOOhjP0xUcNAfD3gu2+iHB4EDLQkS1qw3wHphspv4Zf6yojUIRjoe5Tx84Kn2pR//oD28Oot+ub5+bHJNO7dWNgjQzuUZBrmXf+xAfq32v7/VHv/iV9tEstH7s8DzuouLNRQKJCItoAAIhVN8ZXwGrEjM6EpKimZUjssYHJMxbMAAhCI/kAkisjCQMUgfOGjpZ27RvEACYGjZr+HHdyBmaEFCEHKzlA3gAUimMbcsQTZBAa8yP/oqhZIVXfwJIGiSl0xAqC+5ZKHKrgKWOYEc6FzCM2dlWzyaz9pOBU1zLNVkdD/a8v8mjx+PzmZOtWfddp0Bm/LUr2tW+1e0jflRXm4737S5428pWkvtp0ey0zEZ4YYz47N0jQ8ORG+ysO+cR1AUTPtOxHbw4Q5UDo+OtRz92Ad9QZkuzIuuACppCGyCgsXIwtNiemJjvAj0dHv77bd39mCHmkMftmBbdjE/jLFv0dQXL2iwsVZ92HWlgXYpHb9U+1cUIA7FSPc+/GD72lN5jPvNu9rsmvHuOZVOLeZbYJbPEplz3PNPPNXO/q9/aRNf/1Z73235me2evZ2yKJbBKRGYOIioDvh1+sBxOGoptAN2goB7FlQYSnZgsp/hgMMmUFjI5MxocTr0fbahC3xKT9WEU6A/+IM/6BwPXwAhi+tXcwOg7PaZz3ym/e3f/m0ng6sVgKqvYCYgWTQDDndmcgiAtpHN7z4AhEzo4VNmFSwEGlUChwIwAdBCpizpOxnxO50rJugBHPocBw3j0Jd18bNcQ697vmh4uDCXjBv9q/zYbSQyD8d4wwn0PlegXI7eYsc4PF3QGd171H+d97M3O6nKrAmpwthSBqb/crS+7unGQjcaFos5pM/06Jj5zAVTgqh9n/rUpzqb/Mqv/Er3+x44KJsW7eIdHZhxFQM/gq3+FaQEgwoesAenFfT1qdNZulV5CiKuSLGjfrABV1eqz+Lzp/E+cIBg2G/nb/S+8uQj7Z7RC+3Z63I/f8AEWN3W5z67HZvLKnjL/3OO/fv97b0n59qNW/LT34vnZxRrkzlrAw4N8DkaY3MO7/b5TPnA4DiDy7hKe5mpAor+HIrhVCcViGSSOtUxDzocTjUDpByvSlYgKiAxPJBwRv+raAyjc0qXsMxrTgAzlzluTwYyXsYDKjJyYMFCf/LIrq5sVDkLqADGgTQBQn88kUV2dFphDvRUR97JykkKuPqvBIzk00re7ssKX8iDd45ELk3GrlNItpPZ8U4fvtM7GSqzk7Hf9FHCl8yclt7xSxf0pg8c2HwWcC0uy/ICtUuTguligbOClUpDf/PvTqCaimPTBXnoFd/w5ji8qXTYpk8TPswt8AlUbKDaEyAr6PVle6V8vtQiy3ANAAeyzjCdEc/m/vxocPHggAa8xYhDWQAbujq3IQf4Z77z0HN/nFOBocpoyucUFRAYmrPYGNE7gwEBhTMMoMlSjsnMZTTGqM0Y2QRgAa2CTNEBTuOscKPH6KoM/PUbOnh1JcPDZQCmHBloAB2fgGtuc951111dfzTJgz75OAOnxkM5iMCCXjkAXgEW33QDlHjFmyBjDoHSMWPoBH1AR9tx74MGCfI9n1YBVIWDB/PjS3AjvyBNZyodwcxx8nBGx+l7IQ9ocjSng2RVrdlHTs5YDkt2etH0hyPzqQKcBpqj78h9OdmDQ9O/BCNB4BsvnF0CYQvzwhge4KWvW8fQ0Ref5ta3KoeFWOrP/0r4PPzf0wZhVLT+Tv7z7978/c3RTfnBTxTTbcsNjqKHRnI+HwBseOTJtiUP4FyfvygHkFIsY6NNyZzdfs7DqIymlAQiEZlDKedlJVlaH8byLrMwoHeAMdYx441VvqJvLtnHaYnjjpkbH4xrfvMsdC6gYWz09BUQfEejAg7wAAfwCjrkxJs5AYjT402wccx472gBqu/4N7/PeDAXpxJA9HMMz/gkg/3e7fNuLsfMYe4Xuwm6+FM5VBbmHGxk/n7VU/xzQtVOybkwOAionN06gitI7CKwaiWbwAALNjzUgqRxvte/ZpuDffoNjZpDkvFdIIEp+8tWdMneAjR+2ZdeCxvkYR8Bhv2MxadE4p0NF8rW5+OV8HngCuJMnCju006NzZ+bU+pAzcJlHo11Mv8uejwAPhowUSzwUDYH48wVDHx3jHJl5zLGwrnMbw1Cie78kYEEAePQ0hjHHDZAkl0s9lXJCgAMbw3AftkKoDk5AJq/DOwd0GS+O+64owtGgAS8soygwDFkITygpz8+ySQQyDB3545I83Ig4BX8zO/0xRi8Aqt99CQj48sme6IniJBd+Ut+fWTMqZTGFtk4LL2Zty/DQh0+n+/4EFjpS2CgC3JbmxEEHcOvwIE/zoVnzkYXpVd0BG4bx6Ybzq7aEBzIY0FSYxd02AYNDmkOfelCgOTQTi1cMWCrhfgpvgUSFZq53AynL2evQIe+U1J2gqvit3SGV3gyr8VIPJGP7ej9Z6UNvAahbP7k04+2L8zmEk/+Sq97YGaMu2yLU3WKjTJ3f+Hu9rbRifa67Ve3LTE0Jdo4BGPYKigAdQUHBl5onP6cDIU3jqIsFAg8Q0GQWJg5jANEhhVQOCWAc2rjAK5ORTgcQOJpYeO4xldA4ejmFtjQkokAEH0AU2o7psz2QBj7OTGHBmbgJKP9eBBoXGIr/vFrLEfkDPQmgHAWDUjRrUoJ0NGz0KnPCx0kOBkdVOASJM3D0TSBDp/4FgDLWemg77DlrKog+uKcFvemc6pC99YOOB399AO2cWhzcHeycmDzCNL0am1I4DffwgYv9AgvbA0r9Cx444Fu2UxwEGzKBn06ZBeYyC8wsjmbVeDq932lfx44QByLET/zxEPts2fzE+n8DXkQMtgpRoA6m6xwy1f+ub1zIv9AlADBCDKMbGFjNEYHHgYRLPSpysK7QMLgNsfrnSNwegtfQGmzD7hkK3T6zTwFTCATIFzNACxAAwr7gE2ZisZiQUK2AhAPhnFqY5GTowoUgMLxla/KT8d856jk5QSuxuBbxiGzz8ajid7v/M7vdCDHO0DSUWVXwQmgyTaVIINH/AC9PuUYHI/T6rNQD32drOQzPuhKFSa7C6xKalUDBxfk6MtpBEfj6OYmI/vSvSCIN45qDHr2C2x+KyE4uvJhARhdejOeXcs5zU0PKhay0zMaxgnQMNIPRqVHNplOAEJHYLeIbH5BnKOrzvBLh8abs9/oV2AiJ/wI1PgsGRf27499JX4eOEBw6H985IH2mcNPte9uyU+H85yAodkB1iFmzrSh6cfbu773SLt1/ea2Y8tVneOXk1elwLicxMZ4mn39z5Tf34CmgGc/oMgKwCKgcMy64ab61XvRAVaOKUPLhIzus30A47IaJ5ah+g1vylMODaiyt8CAf/vR5ygACOR1BQOQ0Mej7KNVlpfBZF+OYm4OJliYW5CkM/MCtDnragAdmtsx+8hBF2ThBLIbB/AZX1fS0BY0yeOUQRAls4CKJsfBN17II3A47jteHOvzhhaanLD6oE0HqjcZnEzl5CWbgCIIo4k+mdgKfbpSrdBTX042cZxuPSeEXgQCfMIJ+xirUqnA0NeRuYuGO2DZzxwCMxvhoz9ff+wr/fPAaxDAvmNsTbv+/FybPpSfVk9OtGhlXv4o8JKW/RQ2FOcby/9nrH8iNxDlrxf8OlAG4pSOAwaAydwcoDK1oKCPoARINt+Ntdnvu60CSDdfaPrOoEAMFDIV4wMBMJjTPAzs3XdgMT8AA185HjBxRv1kigIrWc0HGIDMITmsOWRO/WVz39F1HDjJiQfzqXB8lkXxy4Er6+JdhhJEnCbIiBzBVk5Bb5ypghvHQdcceKMb/JKH/gRG89kc7zfzawv39/twSI6BX/PiReCiYwERDXomg2Pmw4NAYhw92tjOMYHSQh558EcOMtELXdBd6ZtNObW5K/tzTHpREThmXkG4qqc+7+jT6Ve/+tWORgUHPAieAkNVAP1x9RnmyMHG9IzPqamXz1Ofis8X433gAAE8V+dHO2/ZsKWdOnaw3Z+7I0/F0DPDAWNuiroQMHYtQBlJZTGebWPu6995Jjf+rN/atq/OLcUj8894BJxy9goGAAi8HJfTMjRDFEhEcJtxxjO6DeBqH1r6oAGkeObsAMxRRXzvNQeg1lbOYU4b4Dr1cDrgMwABLec3Bl82vAIr8HMc/TiOqkNgKHBxVDIpub1zZFkWf8CHR8BVOaAhI7vfwjjzkJmO0DSeDPgAbjzJvpwVj47p4zvHBWx6QRN9/J2O3k6dD83cRXlubr5iG8uC8upVeTp16K0Zm18oNg5/ZKvgSWbz4IcN2M13vNAjWdjFZk5B2mc80SXZqypyXP+qdvBH/2RjT/Tp1jm/6hANemJLurD5LkCgXY3cdI8+vgVszi0oCSROiwQ0dOiv7F/jvZMdffyRX6BjPwFM9YGXxcb1abzSPw98ikFQSp+JwfblNt1/+tH97YfDF9pjq0fawdxufWp1yjpB4mxugMkvAbefOtPetGp1u33bte31O6/vAC5LyAIMzoEZB7iAw0IjIwAFgAObjUEYHigZYxCD4NMGlDK3S45AYh0AQNDncMBTQaaCVgUZ4DcOz8DsdKVAiB8gBhAbgKHjzkAO77TEuT9wkdfdmn6gZczv//7vd+DCAx71cU5rrEDj5hqBg05UEcbTk30Ajx9j8CnY0WPpyXG0BAuf8QXcaCiNyfGLueX4tpTh04cPtoeP57c053NlKVeYotm2PlXervHVbU9utd6zNT96y63W+LAQyDYVeNAWtDiZuc2jH970ozsOTl72I1dVT/ZraFgvsriqCajo4VGjGwEOTZUUzKjiBBDzCXqCtwpuKtncuKJtPHvixVqN9RL4Up2gURhYDkuCg8AmsNCpoA0D+FysCjPnz2IbuIIgPIVyiGviZHfM3dp2PpNFtYDscc/oT9U6m0pi9Hz+5Sr/J7xnfG27+aod7YZrdnbKpWCG5ejTWSRiPJmpQAZIQCBKA7VoD+j2cxDno5Ud+0BYzCgVSPAKnMAGJGhzbqUpWkAAqMBkq6wH4D5zSiCRuQDS5VRjgNIqOdCXTHjSD9+ChbHm58DKWPvxAHAARi664EQyEvrm0s9x42Q6uqInPHMO2VIQklHpyzoGPZmPs8psAod9+NHwKaD8OPNfGB1pT4zMtUcT2J9cPdyemUxwz75Yt61Jxfdg7n594ND+9ub8OvfWzHPs8PzzLMiHVzyzBZv4jge2ZDMB13G84FM/joufsgl+2IOOrN+QzSIfJ0evGnvQiSCJrrUFGR+OyGwsOvaRrzBhHxtJCE4/nFoIZvUXBPjB43LBga7wxV7sITCyheDApsuNLf5/Vt5XVEGU0BTIgKfO5g7IvJ88N1+uusff35VPjIx1v+qcSJm6Jgot4xkHGDKDLAjAZUBOAiT6MjBQlHNybPsACDA5AQfi5JdrxnF4QGZwjiVICEzmZGygwlu9+1ybAGK8TOaXlf4AViVhIa2yffXhJOgDFdmACngrW1p5993TosyPD4ADWHqhC07B0etvAmWv0hH9CExk0p8N8EZPVf6bixNxBLQ5L97N/eOn97ej1yU4fvTD7Wz+NOdMAvrZVA8XogN3vw5HD4F/tjzDc/+htu6+H7WxH+aJX5u3tmujd0Gq5BGkzC2YkUPAs/nOoWzksnHQanjnfGSaTvATPAU+NPRlA3oUGMhEBroS6NF0rK5guASqIjAnO9IHeVWN/pdEU8m5o5Lu9IOv5Rwcf/Tp6hSMmldgwF8FupLl1fC+ogqiFMLgDGfzj5aUWg7m2FJGcAx4GQqAbfYxOtDICgxRJbMg4Lt+jAUAHF05a24GEzRqQxfI+g0vjjtmLhkfiKYDTjzLQIuN69MAWjxoZK0AIHCVLMpWtIBJIBJI9JVFyQBonEH2c7rh9AVonY6ggU9OX0FGBcPhjAVYgUNJ7jIeXshZjkgX5KIvwde8nAA9Muo3uiH8r8vDWG/K07m2ZCFzOHqKXGRLluhksxIxEx3Znk2fVVfnrtQnc53fLfPZJ/jgC69lJ7yUnQTshfrvCF98YT86o3vOLzDQFxr4ZVf6EdDgge4EcYEJbgRfgcMxQYP+zAcbApbTCHRVaXTglEDlQe+wslyjJ3quAK8v+jZ4JPOrsQ18q/VyyqmgQIk+Lxeh0XFcX0ZXigKWbMS4nNdngOfYgFjls8/GOg4kwFYBA/iAvejr1+cDX+hV1WF8leDAA2j9/h2hiy/24wdg8WssHtAELBtZOAow4dM+dAGcI0xdBBuwA7nzZw7nmH4+o4cPtGVY/Tg/R3fKQD8+c1JOYeNUZNePbDK8zxykgoXj1hqeyv0rZ297XZ4Tn59JL3WJmg7nEiryNOuh9SndI8ee/LfvluhubW6TxysdCHh4r9M/8uN/qcY29G1NQBAQFOvRe8aRi3NamCUXm6vAVGsCHJ1IINZTBBT3SpCXU6Nnv8BdekLbaYUgUTZfjjc4EoTpXaBxGikIsfmrNTjQ1wsSIJZS/CD7KR9YCmCAAtgcxsbR9AF64AcOm/7lnMBjXG0cghPZ9KnG0YFNoNAEI8Co4OC4uRYLFPbpB2z1WdDwuebilBwB4PUrOTiV4IF/wQN/Mh6ZBBBOplpQhXA8n51iCQg1zrv5gZicmnn1M493esCDhge84cdTv6bH8reBV29u567JU6pCJwe6fku+GDsUOgkkN57K3Z15JuWu8MZhKyhU5WOepZr5ySuoCg6CBP1zQPI6zskFe5UDvVS1JdiSg1yqJ7KznyBLj8YZIyj4bB72c8zdlFMJymWvxfiDDbTxJrgIUDBHvrpJy/yv5nZFaxAvpsIAXFZUpgMEJwAkZaLMBZR9ozGyPpwdUADNZ8DTt0p/DgYsFQzMA1Qyj2wu6Cy2WLaYrMbKWlbXAd5ahGCBlrnRcm6MN1cPNKV0lbrmteBp01+25DAlI1qcnlO4gmDNBT3OYdVflvP4fI5EHo4B6BUwfBZEBA28PnUoj71fP9o99v7c1twFu4xD9+V1O/1o/rj3Y/tPtYqY8OMAAB+tSURBVP+cx95P5bH3gtpKGp44sd8rsBsZZWa24IzsRQ9s5xTt3e9+d2c3jq6RgR7uvPPO53RENusMHFvAYmP6Mo9jfrtBN8vxCh/0pCoxv4TDRoKKquG1Nq+Bn3oFsdAQQMRBAIjRgF8m5VQcjpPYKkjIXsCkr8zBuDI1GsYaxwmd2/vOYTSOVVUJEOunmnC8ysqlMqO5jQdGQQxfsprMb14lsmyknzkEPLTxhzf8Gl9Vkvk4iLn1JwsZVR7KXWPNIfPaRxbzVEVCVzb0BUJ8CKY2n4cy16NjefrX2jxZKz+cWzrfX2oNaxOrclXq5qP5IdqGTW3Tuvm/Eri019LfOCHZnTYIpBUk8e0Yh7ZewNE5uQCN5woOZHZsOmsWdEm+yvacm84FVp8t5rKHNZ0KDkvZr4IDnQsOmtMZwQFvha2lJXv1HHnZBQiqZ1gOwBmAwsa5ZRJGBQQOxJGqfzmdqoGzcIy63GafIMCZ0ZD9BQRjOGSV8egCsqylCuDES4HMWPNzWllQEDPGVQYOD2RoOYZnjo4H5+0VnMikpBYYgBP4KwtWtYSm4+ijoZ9jMh8ZyIp//JQO6IZc5K7TqYfPn26PDaXaWpM/phkaMETEQUfjfO/Ic39u2LK1bUyAMMcgDc9kqzWHqpDIIzDSieqIfqciEwclF7tXoz8BxA1rgoVgo7+KSjBRcdCL4GAcGrWms5yTSxiuhKAtMKnOBBW6JN9SNi++Xk3vL8sAwQCMxOgADlQADyScGFCUlBxOY1SAsPlc2Vc2sKHBmdHURwYxVqbnlD47ZuO0MjT6aHHmxUCDDp6AijMAHeBzSsGJ01arwOM8V/DASwU38xhrLYK8sqF9aPquP5po4BePQE0HNnPqh4+SwXvpotNNvj9xJL+WPJ1FzTV5/sTopVd6is/+u6sWI9HThmdPtP+0ZlPbnQAxkYCN7uUaHQqMToU4sHN6AYIdVENOxTi1NpXgwKnpjBxaVQ5O/TwTgo0EXn2cUtCVz2hZyMUTOiqU0kNHqPdS2JEgplORCD5w4uYpNCUjdOjutfYTDbxsA0SxyGCclKOrCDhWOZwsxJEYVh/bQgNzEA6mCpF50KgMD2CyMjBzNnSA1H4gAnQ0zVngLb68F29om4czcHaOILvJiIAskKCvcuHkZAFIdNGQaTl6naaQD5AFLoDX3xwap8MnUAM93gUUTrhYIEN/OP2PxCEOHsst3WO5SjKx/CW/MNXxNZ4bp3YdPN4+cPX1bXsC3iD/rCX40ik+BURO6F6EOjVSUQgOAqFfYnJ2+sKnsWRSGVljsN6ChuBgXUHVQG72NIf1HTqypiHI0NViDU3zOe1TNbAR2wgO9MbGr7XFNfCyDxDFdjkjEFSWABKOVxUAB9E4kGZMv9lfWV9Vgg7gAhAaHI1zapwWOH03Rj+taPbfBQ8gB2zZDj0VBOewn3Pb0HGaU2Mr+HjnOOYQxDgAEAuAPqMvmJCvTlsq45oTr6oK9BcLEuSenTmT2+Rn2pH8N8bx3BrPGZ9rPT1Zd8iNlm3szNm2Jb+3efPZufaeXXva+vBWen1uXO8DeoI1HTr9wTvZ61IhPgUNTkov5dQ+a8ZyYvLRhQVgAdppg1vkBQf0KgAJMuawQCyAOFZ6Lbb6PJnX/PBCx+h6L8zUmNfeL9XAy+4qxqXsLf6tDC/rOh2QmWVv3zmKclbW5VgLQVMU0aiNQ9sAUoavdQO/5gRCmV0WrPNkYFxIGy3j8cFB0JD1gJeTVxDiAP4CTnZ0Gc+NT7IfGTi6ysNKvzFkc0MVuZwjT6WMFiiU6M7LBR39ORfw47EybMlZ7/ocTPC6d99j7Yv7ptt0brE+tGGinbVoefGUYzbzjJ841bYePdluTWD4+XWb25sTHLYn23rK9XJNILV+4oGxAgleVQf0j9fpVGSytdMAVZxgWAGH03Jgt0Z//vOf76bxHxauaJBbANVX8BE8yErXboKiX0FmMTvjiR3MLTDTs8AkeBfN5WR67djL4D6IKzECMACM6C9rclhNluJU3jUg4MgFxG7nxRc0+nTQ0hc9wQWIBAZgtl+1wgFUCJxNQDC+AkXR8p1DA6V+eKtTFPz4LFMKJBzDvPrZL0DYhwdzlxNxDHIBPH4EBt8FM+P1Q0+/qozw0290MJb5J4azzWStJBXC6lzCnMgP6ybzw7oN+S8TgWH38Zn2ptnh9s5N+Sfxa3e1rVkDwfdCen3adEEvynd8CKQClTG+u2SNL/sFtJKLnsisGnBKYXOXqdK/HjhLL3gXYJ12WXMwzg1QAhBdLWZfAYS9zC3ICzTmr8puOXn6sr3aP79iTjEWMxQjcxAZBJCAkENyHOCQPTgfQHLc5RpaRU9fGRyYlKGqEvRlf7/MlMF8Nk/da1BjORPQGu80AQ945NTebWjVhjfnw/qqPDiINRAr606B9CMT+gKffmjhzT582PAoiBX9xRyHI/mPzS1rJ9rO9fk9ykR+pbp6XbtpZHW7bWyivTVP/Hr7pq3tTf5Ra+v2tiV9KgAupTv6FaxUNaoAGVpWF6ycJnD+ytwV9NCiN2sIgoq+FQTI5rcqAgB7klFg5Og2+p1KdWKjl4XBoSo5VQs74a8fHC4nz1Jyvlr3v6IDRBkNSDgkcJUjAp1sLFtbXwAyzqMv0NmWao7pK/AAoUVNDmksJ+CI6BU4zSVY2MxnvDUCfaovYKMHoJweTZ/158z1WUAxTtCoxcwKfDKnwGeMfej4LKD4LsviQT+Bx9Zv+HKqsC77t06ub9dO5h+oJybb1NrJtief927M8yg25xehG/PL2dxWTQfL6ck8gtN0qiVZmo6m4rgCWZ0y0Z/FSAEMLbzqa32HLGxDDvqhA6cN1hVK33RB5xye8ztFcQpGNwt5UzWoSJxO4Emr4EDfl5OnG/DayyUa+JkIECURwAAZ5wRIGRhYlaaAzKGBBBhXAhZ0OXEtbglGnB1IBSQBAv0KHpURHcePDMvxqyrBB3qcwxjHOBHgy7Lmk5HL0fUlC3r2ycocjWPhyTH9yW0ux/BHBxXESkf1bg460A9fJdOgeuGsnFHVwyHpVNZX4TgNIBtn5vCCF+elI7zL7OQmq/Uigc0xurJuQx58GEM3KhF2VFUtdbWCXsjuNEV/6zv4Wap/6eG19+U18DMVIPqicioOxQFkIcC1KTkrWwGhxlku18qhZES0gZqTyEwW34Dad8GBg9Zc+gK3rGnuuhxZjqsCkE05EYd2XLNg50Yi+8t5SyaOJEObS5UgSHEk85JNw0utnwwiXzdowBeyc16nB3inE2sLThvcgETnU6kkyjntJ79gomoguzUKVybwy6kFG/1t+DUHh59OJSCY1B/pmqsvDzkFBzoWfAQH+tJfAKKzfv8BRXyt20UNvCKvYgxqPeDhlLKZDQgBVNkPmECtBOWE5ViXo12ABHq0AFIAAkaLZpzVnE5vOKw5OQegc2oLcLIqBxFU9OXcrphU1uMEzrc94VmQE4TsUyGoMvArsJhf9hYoOBbefHeaIYgIHp5bUY5yOdkGOf7/2ruz5bqKKwzArcEaLNkWsmxsjEHEYEjAkOAEblKpVC5SzitkqOKFeBQegAsMVRS5YKhUApkZDCbYQXiSNY9Z37EWORbnaDC2ZR31rto6R3v37mGd/v/+1+ree2e5ligjWK6ADUCBmmpAdM45BtxIBFDZ2zltcV5dxVzYDFkgR3XWHvays08qAcSTxKpM5VEebKUciko+3DNl+E0rObDUnW8dqyCYROfQoYBFB9WBckQBcJ1LJ9bxdCZpmztgK7PKU+fOPBMIiMAx4AVqHVRn92lXtrTS2RNQ6mPEAwqkIn95JPCQj+vlDZyuyzTy991x17rOyO4a+SlH2xBMtrtVm7Z6DAEZ1SkBZAfwjlFL6VIgXMeQIrcH+SFCx6VHctpr1BdXyFWSiE97gB5xcFOQw3goEUFP55p/G+fYIm/0ch5B29mrksNWf9WN03U0QTQ3HZB0GkBJwDoGSEY4nc0GUMC42Zb5NeeFcIBFOYCgLMQAIEAqXgDERn7rBcRGAAKQXeMT8ICNInCNuqmTaykM9TV1SJ2og9FXnuqfyki5iMIxxKE9AASYrrmTDSDVT32M1tqnDoiWDSgiI7c0CAQxaJN6awsVww5IMtWX9iMOqkM7tJub4Hr1BPbxIAjXNZODdGyNRLSRXaRLBdKc9k7aWq/5vwX2DEFkk3VQoAUqndL/AKujGXmNbDYdVEfbqLM5B7xGe/kZXXVcHRgoAcR5wNTJAcgoCrRcE2ByDviAWh0sBJIPYCEI+QG7ugIAMAKmNOqb7VFekpPviAcQjeSOa7M8nNsuSaifPIDX6K4+CELd1F+b1FUa57WLigJa057SsgN7JSEjATbJN2fJE/FQBNrlunSn8jfw27CddBfC/UCUyEda9tLG7bYt+0X9bG2BPUcQaQadTudO0AIouavT6eA6I4ADoE63UcdzTufkXxupE0yOyxcoled/eQoe6tRGVYA3UkpnQy5iCIDtU1qEYOR2zu3MQOE6BKC+RmsEZRTnbkifRIdIclYBaKUD1q1uiEZ7rFng6yMx7WGrBCZAq1+6EwKEZhyM7NLmpv7SqQ+147V37I+AgF7+6u56bUQguUmjLQhUUFM9LHxSjnb5nep29y2wZwkiTZkg1pn5ujqbDmgGwWgH0MC/FVABQ6oJqiRvJgJmu7Js0hlVdXpTfkbdl19+udHZTXeqw9tvv11effXVBnGQ4l5ka9SVThlGbIRg5JSPV/kB2XiM2ogHURjhEY/jZhwALK/J9m/0iRzY4M0332zUExEgVXV3f4T8ciYD8XjEmyCh+mljtjfLoEDMcqibZdSUB2ADPeWAEM+dO/dtUDWvT3LwagDXy99Dff1ercrJ8urn97dAR89ibNc8gmtGOR3faGh0BgqA1ZmBEdA3G63IZSrkQshgRKETAyalQOZnxzcKC+QhJGlyibI6AJ6naHMrAAJQAZ0yAEL5GX3VhzpRZ6OykTXVg3yQhHq4dRrQfhVvJn/llVeKB/FNTsdLYWbitvFIFxOjZbg/HkK8P+IlAfb9A4MNwJplQFaIhppBDukWqbP2IFfqyff1tmFTRMOeSJc91d/uOPLTfnWjSCiCzCMJCoEKaCJq9hC30PZMt93fuabfugX2vIJoNhXg6nTchJTiwEb2ktkA5zxg+EygN+fhu3M6s92GLABYeiN/XisfYKNSgFhZrgE05SMmgAcGgTznABZZyMtI7DtwSWtPkkNSNiDzHXkgGM+nPBpkd2HqRvlw6lr5aDaeqbAwXT5diEe7zYV/P32zzESa6RuT5WLUCTmoP5JSL0pKnupsBLcjTmVnrKBR8NofabXByO8TyWgLG3M3qCx1Rp7cirSZY+IN0lAYNuelSxuuFVE/7qEFKkGsMy7g6egAoBMboQEZyIz4RkJEIU0SxbosGv/Kx6grD3kZOV0vHyBzreM+gQI5ABCZLW+jMtAhJtfwxwHUeTuw+B85uA4BAZRyM/8kC/V17noohqvxVKmbp8fLxwcHy8dD+8rn8Ri6rwb3lf/GfjlepnNpX1f5anmx/PviF+XP775fPvnb38tokNpIlKUOiMIoTsEYyf2vPOW22pAY1wjIuT5UAvJTH6pAu4F+PFyjJBltQkrcL24JO1EcVJw0/q/b/bFAJYg2dtbhdUSgIKt1aqM1uQuQQAuAwCxt7s3ZOUchGPGQALCT1NJSEUkQiMQonCOmTwSRIyU3wTFkBSS+AxqQAgxAmR6lEozYyrKrnzoD4Uy8KWsy3qN69dGj5eJLZ8rEyYfLjcMB1OFYmBS3fM/GMyKm4oXM1w4OlYt9PeWjy/8p/wo3py/u+Dxz6sly5PAtNwKQ3SuhvtqW7W9ut+/KZiN1p3qQSAYuKTKuFfcrH0WH7GwIRTsQg13bpOF+aZPy6nb/LFBjEFu0tQ4PfDo3n1nn1nn53mQ2NwBgAL/VJi0F4TkQQAPYpvHIbQRhowwuhKwnq5GHdzsgJkCx9JoScK+C68VHjOBGVnkhAsSV05pIRJnq7NxHn31S/todN1e9+KOy8uKZePVFRCGiTY29ucLILkC4GqTSc+nrMvbeh+UPJ0+X55863SAnhLkVkKqrulAB6isoSW34zt1AtJ7MjXCayQyBmuUwQ0NZIBXXbaXM5mbU73fHAlVBbNGORn2dFJiN7mQ2EFvPwI9GHAiCS9GKJPJaCoASAHAxAflSCs5zN4DBMVN+gJQBOfkCHVfC2gHlUiTAhaSM0PJVt5T/lI+8ENOnPSvlq/HjZeH0E2U13pT1HWJotkMQRxeFE+3hWvzqyInyxPFHysEgolZta740vyNQi8G4Fx7+ol7Aj+iQF6JDkGymjsgRMXi8vTiFJeLIb6uElOXWz7trgUoQ27SnzowYEAVAArdOLMYgPmH3PYlC+tx8RwLOUQZUCSAhC0CRZ8YPlAFIfHHkkb4+kCEjiiWBJX//SwfAypAP8lBOb3z/TLzh8HBZHI17J5rqlHVr9al+y7Gfml4ox4bjEX2R32YE4RruDpVFBYyHQqCwqCKkZ+MuIAft5f5QSMgB+Tnn3otmF6ZV3eqx+2OBGu25QzsDI2IAQiM1YgACEjrlvZFQGoBtJgrXGOXlkYudfOduUAOIB7AcM+LaAB7Y7RfCDXHDl40KATwgBLgsx7X+RzQHH4pA4spUPGJrqay2cYEamTX/CaCbCp3r7S5XZ+PNXfGiZi6LtrTbkAOVk24F1YAIAB8BqJt62tlAvIEbgkwQIVJwMxubIaJsS7vy6vF7b4FKEN/DxjowABrddXgqQIcn6Y2KXACAt4sTNI++rjPqCzYCfwYYgYb7AiRIAnDs8kM4/HIKQt6pOPyvXNe1BXDUNRAXrfWwWp+bb169txrXxI3tDbWz0RViHZRTkiSVZNZCm7kZApbIIldIIhJEJxbhOnXPmZlKDBtZ+v6eqy7GXbB3EoVIfKoGikKk3uhpZE3g5sjoGsdcY+SkJIAlXQqEQknkOa6FICQJjnCAzojuenm6jpJBNtRD8yZI+Y+bsXBrJZ6sNRgB0a7bzzenbf7etbJa+ubmy0uL3eXUqBfn3BrZm9PkdyDnKgnCpgLSBscoBAFXZOgcEqS0xCi0SazB+YyZZJ71c+ctUAniLv8GwAkEZLQR1MgK3GS3QBxAUw/SIYkkF0RAiVADRmGEIS1l4hOZABNgURGukxZJAJYy5Et5NLsa0kVJ5eJEPJdharJMxXTm8gZuQpqjqyduRAtiOxwvzvnNUNwtGe7CYDyGrjvyW78hQArI+zepJ8vFEZXVoNyffACteqk/twmRCNhask05NNd5ff71/52zQCWIe2D7BiiDAICbH44ofBcv8J5KIyjAA0W6Ha4hyykQQKcQLCTihgC9YCjQIRqLjsh16QU5L4RUVw4/H5nk+olsmvxWJqeCYCbL5XgvxtzorTUH7WYyurrjJTZBKvunZ8uzl66WX//gdBk7GMTWIi6AAKkXBEUtuVcEuSEGqkJMgXLQTvXTfkQnEOkcUmQL7a/bg2eBShD36DfR4YECqJEDVQHQNgRhxKUAbAACxHakYfddhF86gJNPBu9cB3zSiHsYwZsBplxlOW+jVgZ6g5DCtViKvL6ejVf2IYE4bzqzsUeakAfxBpuV0j0zW45emSw/jpf2/nLkaPnhIxFUjDo1lyHfVA6mXM1ciCMom2slLWVASeUUJndD2yggpNGYYVGHSg7M+UBulSDuw88CoACesxBGXSAnx8UH/J9qAlgyLVKhEIzQyALRUBjy44ZwL6gFvj7p7lOejisLoeQm/6EgIm/Mmoz4yGoQQaySiwVTEbSM9F2Rf9/CYhmK92OMhVvx3Oxy+cXAofKTk0+UkchXmes3JHUh1AtCUD9uEnWDOMzSIAebdSLSqJ+ZGgShfpUY1lv0wfu/EsR9+k2AIUd2o7uRP4kiFQFgSZNKIgEOiJmGCyHmYFRGLq4Bfv+bKfApX2VwOxKEPvfFaD3cE68JDCI4FLxwcHGlDMf7Nw/MxWv2ZhfKidnF8tT8Sjmz2lt+emisvHDiZBl7aLRRp8wnzaUM7g7gq4N6md5FUNQBNYE0EBl1gRAEWMUdEN36/DLf+vlgWaAutd7B3wPAyW4SHdiAR0Tf6JvuBCCZ0jQK8/PNYHigClLg0/P1gXV8fLxxzwNiQDJiF15A4//1oz9AIxLuy5XrcZNXuBRmPg9EENKNWQgo81lvHtdSKMjgtddea9RDPISbJPiYrxsUZxCkNDNjhsL9GxRRJYb1Fn2w/68EsYO/T4JNTAJRGG2RAReD/26ZNaIAKmmMxIJ8FAWSMGoDOeJACgAoH8FC3y3JdqOT761IArE09lX3ZdyKVUhnbwdk6xe4M27A8h1RITrqRdCRckBm6oE0uBPqIN36Ouyg6WvRW7RAJYgtGupeJkMUQC8YaWQHLgujHDP6pqIg2XPFpvPiD4iES+KBMPLx3eiNJHz3cmCqhCK4G5vykQPFo14ZQKV+kBlFgyzESvI+kqoc7obldyaPupJyZ+x+W6lGazEJu0CeT8eAUZCSX5+xBy4GsJP54hJUBWAKEFITSIICsVEk1htIL2Ao3zvdKI0kLwpCHIFykCeXhIKhZJAY1YAccmr2Tsus1+28BSpB7PxvcFsNjPq59gEBGKkbsYIAP1XA3wdIcl6A0M4tybUGSAWYSXok4o5Q+RnFyf92rsNtlWjxDzVD2eTSaPkjBesYfCINhKEeVA2iu9OyWhRfD+2QBSpB7JDhNyqWr26EBkJ+PJXQeFxcuB8JUKoBUYgDuA8DeQArggFMn0Z36fMVfq6xbzcWgByUb8m0uiAEMZGccqVwuBXIwTRmnaXY6NfdXecqQTzAvxcgIwG7gCMg8vHdw0DKA6jR2i4mYdYASZjeRBDSczdef/31hnvgmLtAkcRWNyqE62AZNZdFftwHq0OteUBiVA1y4AbVrbMsUAlil/yeyAKwrSUARKM51yJHcoClHCgGgUMb8JL60iOQvP9hqwTBVeE2CIBydZCSeIZy5Oc7chJz2Gqeu8TctZprFqgEsYu6AgVgwVEC3wpL8Qnyn5shUDke6yG4G45LS30IFgL4W2+91YhDCFhyEzaLESAaay3eeOONhluCCLgP1kCIZyAHakV8Q3516zwLVILYRb8pQAOikdsO+FwKMx12QU1xB2oDiXAPgBeIKQ7rE7xr4+zZs43ApXSLy0uhDJYbVrDSsi9iHuIeyIE7gxzkbRqTe0EpmEmhZLg4OWOyi8xYq7oNC1SC2IaxHrSkyIBrgSjsYgXUBCIBXIoDUZjFQBJWbH7wwQeNGMaTzzztLrEyuTi/9uKcUob7+svo/qEyEvs3kc8777xTzp8//23+yAYpWKRFmdSt8y1QCWKX/8bIAAkIHIo3cCVMdYoXcAeAmtqgNAbi/28mb5S3//KncqknHg8Xj7yf6I4bx1Y9XC6WWscjpE72x+PwBmJF5seflj++/165FFObXAlERDUIRsqrbnvDApUgOuB3RhLcAqM68JqWFIe4EHdaihdwCwD8Srwb4+JATzn/7OPl3SdGS/fIobK6L54VETaIWzFij4fLBLGs3rgZr+WbKIurC+X5n50tv/3978ozp59uBDuREdekbnvDApUgOuh3Bly7OIUdaSAHrsg3EbQcWpovQ+PHyupzz5TFeElOJLrV+lh92WAI/+2LYyMHSnk23rcRL9p5ZGq5PL62OEt+yKhue8cClSA68LdOt4OiQA5cj8tzM+Wfx0ZK/5OPlsVDQQCAjhjstsYHoojjQRx9xx8u/eGSTF2+VuYjjSnPuu09C1SC6NDfPN0OU52w3zt+Ip4mFTdsnTh6q8XtAL9GGt39+8ry4YfK5aXV8uWNa2UslAgFUaczO7TDtGlWdSbbGKZTDrt5yxu9r/T1luvhOiwN9EfT1lTDBo30xKnFlXhd4MC+cjEI4mYsmDJtWre9ZYFKEB3+e3MN5hYXymyEIhfiJTgrQgib88Mtq4S7sdTbU6bi+rm416K6GR3eWVo0rxJEC6N00iGuRm93BCxjCrMnBEDXVsmBEUJ9dAXB9EXgs7en/UNkOsletS23W6ASxO326Lj/EIQnUg8FMQzEnZ/dYg8CkZttkUbnGIhpz5GBeGtYLKLqzlmPza6t5zvGApUgOuanbN0QBDEci6VOrHSX41PzpX92fo0gNiaJLqoh5j4PTs6WR0dGy4FYbNUTx+q2tyxQf/EO/70bCiKmK08PHyovdPUHScyV7ognNAIRlIR3YfjMfY0EeuPx+KM3Z8szkfSxw3FDlrdqVYLo8N7y3ebVac7v2qTjjgD2qcceL0uxanL+8hdl4uqNMhszGsv9fWU1zn0blwiSEHPoWYzX+U1cK2euz5Rzxx6LKc4DjbdqdZxhaoM2tUAliE1N1BkJ3Jfx2OEj5ezsTLn45Sfl85n5MnFwqCwMDZYSU6C2lSCGwanpcuTGdDmzUMrP461aTx8/EafrCsrO6AXbb0V9qvX2bbZrr1iKdQxTcT/G19M3y0QQxUSsbbi+MFfm4n2dtoHu3jLaP1DGBuOt4nFH51i4FfsjQNnqnZy71gi14tuyQCWIbZlr9ye2cMp6Bjd0zQRZTMezJeeXxCTiCVShFIaCEPYPDpT+mLWoqyZ3/+/9fVtQCeL7WnCXXo8o7FZH5gKovNFLYNNet2qBShC1D1QLVAu0tUCd5mxrmnqiWqBaoBJE7QPVAtUCbS1QCaKtaeqJaoFqgUoQtQ9UC1QLtLVAJYi2pqknqgWqBSpB1D5QLVAt0NYClSDamqaeqBaoFqgEUftAtUC1QFsLVIJoa5p6olqgWuB/4ZN8V95pM7UAAAAASUVORK5CYII=;" vertex="1" parent="1">
          <mxGeometry x="712" y="451" width="145.52" height="140" as="geometry" />
        </mxCell>
        <mxCell id="li965YYbxcyMD9VlGafR-12" style="edgeStyle=orthogonalEdgeStyle;rounded=0;orthogonalLoop=1;jettySize=auto;html=1;" edge="1" parent="1" source="li965YYbxcyMD9VlGafR-9">
          <mxGeometry relative="1" as="geometry">
            <mxPoint x="1220" y="516" as="targetPoint" />
          </mxGeometry>
        </mxCell>
        <mxCell id="li965YYbxcyMD9VlGafR-9" value="" style="shape=image;verticalLabelPosition=bottom;labelBackgroundColor=default;verticalAlign=top;aspect=fixed;imageAspect=0;image=data:image/png,iVBORw0KGgoAAAANSUhEUgAAAOoAAAD0CAYAAACVSLqlAAAKsWlDQ1BJQ0MgUHJvZmlsZQAASImVlwdUU9kWhs+96SGhJSAgJfQmSCeAlNBD781GSAKEEmIgKFhRxBEcUUREwAI6FFFwLICMFVFsg6BSVHRABgFlHCyIisq7wCLMzFvvvfX2Wmed7+7ss/c+d51z1x8AyFSWQJAESwOQzE8TBnk40yIio2i4EYAHEJACFgDHYqcKGAEBPgCx+fnv9rEbiUXsodFMrn///b+aDIebygYACkA4hpPKTkb4HDLG2QJhGgCo44hfc22aYIZvIUwVIg0i3DfDcXM8PsMxs4xGz8aEBLkgrAAAnsRiCeMAIGkhflo6Ow7JQ3JF2ITP4fERRp6BQ3JyCgdhpC7QQ2IECM/kp8f8JU/c33LGiHOyWHFintvLrOFdeamCJFbG//k6/rclJ4nma+gggxQv9AxCZqQvqDcxxVvM/Bg//3nmcWbjZzle5Bk6z+xUl6h55rBcvcVrk/x85jmW584U50ljhswzN9UteJ6FKUHiWrFCF8Y8s4QLdUWJoWJ/PJcpzp8ZHxI+z+m8ML95Tk0M9l6IcRH7haIgcf9cvofzQl138d6TU/+yXx5TvDYtPsRTvHfWQv9cPmMhZ2qEuDcO19VtISZUHC9IcxbXEiQFiOO5SR5if2p6sHhtGnIgF9YGiN9hAssrYJ6BKwgAZsATmX0BE9CAKaADE2CSxl03c0aBS4ogQ8iLi0+jMZBbxqUx+WzjJTQzEzMLAGbu7NyReN87exchefyCL6UZgGXIPYI2LfhiyACcuQgAec+CT1sKAOmjALSqsUXC9DnfzHUCGEBEvgVUoAhUgSbQA0ZIn1bADjgBN+AF/EEIiASrABvEg2QgBGvBBpAFckAe2AP2gxJwBBwD1eAUOAMawUVwDdwEd0EH6AJPQT8YAq/BOPgIpiAIwkFkiAIpQmqQNmQImUF0yAFyg3ygICgSiobiID4kgjZA26A8qAAqgcqhGuhn6AJ0DboNdUKPoQFoFHoHfYFRMAmmwiqwDrwUpsMM2BsOgVfCcfAaOBPOhnfDxXAFfBJugK/Bd+EuuB9+DU+gAEoCJY9SRxmh6CgXlD8qChWLEqI2oXJRRagKVB2qGdWGeojqR42hPqOxaAqahjZC26E90aFoNnoNehN6F7oEXY1uQLeiH6IH0OPo7xgyRhljiLHFMDERmDjMWkwOpghTiTmPuYHpwgxhPmKxWHmsLtYa64mNxCZg12N3YQ9h67FXsZ3YQewEDodTxBni7HH+OBYuDZeDO4g7ibuCe4Abwn3CS+DV8GZ4d3wUno/fii/Cn8Bfxj/AD+OnCNIEbYItwZ/AIWQQ8gnHCc2E+4QhwhRRhqhLtCeGEBOIWcRiYh3xBrGP+F5CQkJDwkYiUIInsUWiWOK0xC2JAYnPJFmSAcmFtIIkIu0mVZGukh6T3pPJZB2yEzmKnEbeTa4hXyc/J3+SpEgaSzIlOZKbJUslGyQfSL6RIkhpSzGkVkllShVJnZW6LzUmTZDWkXaRZklvki6VviDdIz0hQ5ExlfGXSZbZJXNC5rbMiCxOVkfWTZYjmy17TPa67CAFRdGkuFDYlG2U45QblCEqlqpLZVITqHnUU9R26ricrJyFXJjcOrlSuUty/fIoeR15pnySfL78Gflu+S+LVBYxFnEX7VxUt+jBokmFxQpOClyFXIV6hS6FL4o0RTfFRMW9io2Kz5TQSgZKgUprlQ4r3VAaW0xdbLeYvTh38ZnFT5RhZQPlIOX1yseU7ylPqKiqeKgIVA6qXFcZU5VXdVJNUC1Uvaw6qkZRc1DjqRWqXVF7RZOjMWhJtGJaK21cXVndU12kXq7erj6loasRqrFVo17jmSZRk64Zq1mo2aI5rqWm5au1QatW64k2QZuuHa99QLtNe1JHVydcZ4dOo86IroIuUzdTt1a3T4+s56i3Rq9C75E+Vp+un6h/SL/DADawNIg3KDW4bwgbWhnyDA8Zdi7BLLFZwl9SsaTHiGTEMEo3qjUaMJY39jHeatxo/Gap1tKopXuXti39bmJpkmRy3OSpqaypl+lW02bTd2YGZmyzUrNH5mRzd/PN5k3mby0MLbgWhy16LSmWvpY7LFssv1lZWwmt6qxGrbWso63LrHvoVHoAfRf9lg3Gxtlms81Fm8+2VrZptmds/7Qzsku0O2E3skx3GXfZ8WWD9hr2LPty+34HmkO0w1GHfkd1R5ZjheMLJ00njlOl0zBDn5HAOMl442ziLHQ+7zzpYuuy0eWqK8rVwzXXtd1N1i3UrcTtubuGe5x7rfu4h6XHeo+rnhhPb8+9nj1MFSabWcMc97L22ujV6k3yDvYu8X7hY+Aj9Gn2hX29fPf59vlp+/H9Gv2BP9N/n/+zAN2ANQG/BGIDAwJLA18GmQZtCGoLpgSvDj4R/DHEOSQ/5GmoXqgotCVMKmxFWE3YZLhreEF4f8TSiI0RdyOVInmRTVG4qLCoyqiJ5W7L9y8fWmG5ImdF90rdletW3l6ltCpp1aXVUqtZq89GY6LDo09Ef2X5sypYEzHMmLKYcbYL+wD7NceJU8gZ5dpzC7jDsfaxBbEjcfZx++JG4x3ji+LHeC68Et7bBM+EIwmTif6JVYnTSeFJ9cn45OjkC3xZfiK/NUU1ZV1Kp8BQkCPoX2O7Zv+acaG3sDIVSl2Z2pRGRcTRPZGeaLtoIN0hvTT909qwtWfXyazjr7uXYZCxM2M40z3zp/Xo9ez1LRvUN2RtGNjI2Fi+CdoUs6lls+bm7M1DWzy2VGcRsxKzft1qsrVg64dt4duas1Wyt2QPbvfYXpsjmSPM6dlht+PID+gfeD+07zTfeXDn91xO7p08k7yivK+72Lvu/Gj6Y/GP07tjd7fnW+Uf3oPdw9/Tvddxb3WBTEFmweA+330NhbTC3MIP+1fvv11kUXTkAPGA6EB/sU9x00Gtg3sOfi2JL+kqdS6tL1Mu21k2eYhz6MFhp8N1R1SO5B35cpR3tLfco7yhQqei6Bj2WPqxl8fDjrf9RP+pplKpMq/yWxW/qr86qLq1xrqm5oTyifxauFZUO3pyxcmOU66nmuqM6srr5evzToPTotOvfo7+ufuM95mWs/Szdee0z5Wdp5zPbYAaMhrGG+Mb+5simzoveF1oabZrPv+L8S9VF9Uvll6Su5R/mXg5+/L0lcwrE1cFV8euxV0bbFnd8vR6xPVHrYGt7Te8b9y66X7zehuj7cot+1sXb9vevnCHfqfxrtXdhnuW987/avnr+Xar9ob71vebOmw6mjuXdV5+4Pjg2kPXhzcfMR/d7fLr6uwO7e7tWdHT38vpHXmc9Pjtk/QnU0+39GH6cp9JPyt6rvy84jf93+r7rfovDbgO3HsR/OLpIHvw9e+pv38dyn5Jflk0rDZcM2I2cnHUfbTj1fJXQ68Fr6fGcv6Q+aPsjd6bc386/XlvPGJ86K3w7fS7Xe8V31d9sPjQMhEw8fxj8sepydxPip+qP9M/t30J/zI8tfYr7mvxN/1vzd+9v/dNJ09PC1hC1qwUQCEDjo0F4F0VohsiAaB0AEBcPqepZw2a+x8wS+A/8ZzunjUrgEgDACKvAhCIjKNOiAZBnqW2ABCAcIgTgM3NxWNe/85q9Vn5ux2ALB9TuolJR19VOfiHzen4v/T9zxmIs/5t/heQWQV1VVAwWgAAAFZlWElmTU0AKgAAAAgAAYdpAAQAAAABAAAAGgAAAAAAA5KGAAcAAAASAAAARKACAAQAAAABAAAA6qADAAQAAAABAAAA9AAAAABBU0NJSQAAAFNjcmVlbnNob3STMa1FAAAB1mlUWHRYTUw6Y29tLmFkb2JlLnhtcAAAAAAAPHg6eG1wbWV0YSB4bWxuczp4PSJhZG9iZTpuczptZXRhLyIgeDp4bXB0az0iWE1QIENvcmUgNi4wLjAiPgogICA8cmRmOlJERiB4bWxuczpyZGY9Imh0dHA6Ly93d3cudzMub3JnLzE5OTkvMDIvMjItcmRmLXN5bnRheC1ucyMiPgogICAgICA8cmRmOkRlc2NyaXB0aW9uIHJkZjphYm91dD0iIgogICAgICAgICAgICB4bWxuczpleGlmPSJodHRwOi8vbnMuYWRvYmUuY29tL2V4aWYvMS4wLyI+CiAgICAgICAgIDxleGlmOlBpeGVsWURpbWVuc2lvbj4yNDQ8L2V4aWY6UGl4ZWxZRGltZW5zaW9uPgogICAgICAgICA8ZXhpZjpQaXhlbFhEaW1lbnNpb24+MjM0PC9leGlmOlBpeGVsWERpbWVuc2lvbj4KICAgICAgICAgPGV4aWY6VXNlckNvbW1lbnQ+U2NyZWVuc2hvdDwvZXhpZjpVc2VyQ29tbWVudD4KICAgICAgPC9yZGY6RGVzY3JpcHRpb24+CiAgIDwvcmRmOlJERj4KPC94OnhtcG1ldGE+ClkGouwAAEAASURBVHgB7N3Zd133cS/4AjEQAEGC8yCJEjRY1uhBtmXZjm3Zjh3bsRMn62atTvrmJdfP/ZKH7od+6P+gX7qfOit91+ruezvduXbHubEUz44nSbYmS7IkW5RAiuJMAiBmEEPXZ0MlHcEAB4GSKOlsrs1zzt6/oX5V329V/X57QMdSbtHe2hpoa+CK1sCGK1q6tnBtDbQ10GigTdQ2ENoaeBtooOttIGNbxEvUwGqzmY6OjktspV38StJAm6hXkjXWIQtyzs/Px9TkVIydGYuZiZlYmF+Irp6u2LRlU2zetjk2bdoUGza0k6h1qPktq9rRXkx6y3R/WTuemZmJM8fPxKnfnYrJJyZjaWQpOs5lFO2N6LyqMzbdsimuuu2qGNg8EF3dXdGOsJdV/W94Y22ivuEqfmM7WFxcjJNHTsbZp87G3K/OxeKjuYj/YpJ0ekN0LHTEUvdSLA3mseuWYsMHOqLvQ32x58490b+tv03WN9Y0l7X1dup7WdX55jYm3ZXeHn7kcEx9ayoGf7gtdjy/M7qiO5KeKUwSNv/ZZjfOxomfHY8zXz2TJO2L3sHe6OzsbM61/7vyNdCesFz5NlpTwqXFpZiZmonph6ai7+f9sfnFLdGZNJ2Pc7GQ/y80/y9/ds92x76DV0XPTzfGzKHZmJ2ZjdUWndbsrH3iLdVAm6hvqfrX17nFo7FjYzHws8HY/uKO2HhuY0PNla2Krv51LnTG7sf2xuQzUzF6ejQWFhZWFm3/vkI10CbqFWqYixFrcX4xJk5ORN+Rvuie6nklzV2tLqIu5r+uha6YOzIXUyen4ty5c6sVbR+7AjXQJuoVaJSLFUnqe276XHTNdMWGRXPR898NiqzmrAtn52N+Yj4sRLW3t4cG2kR9e9hpVSldYnGddGljUvAiLdmQdeOG2NCTq8LtmyBW1euVePAizXslit6WqaOzI1dvN8bs4Gws9MxfIJ5GJD1jsWMhund2R++23ujqai/6v11Q1Cbq28VSq8mZ2W5nf2eMbRuL6Z7pZg66WjHHkLQr/810z8TGnRujb2tf+/LMWsq6Ao+3iXoFGuViRHIn0vETx+OZF56Nn3f/NJ7uejom8p9rqCu3V66lds7EwY8MR88t3bFlW17KaV9HXamqK/Z3O/e5Yk2zumCTk5Nx8uTJOHbsWBw/fjwOv3g4Hpx+MJ7q/k0cHTgSH178SOya2p107ckY2tFE2Zm+mTix5Xg8GA/EM1NPx6df+HTcfcPdsW/fvujv71+9o/bRK0oDbaJeUeZYWxjXPMfGxmJ4eDhGR0djYmIiTp06FceOH4sDIweiY2PE9lu2xdC1QzGfq7odExlH57O9nkx792yIqd1TMXlmMl488GL84vFfxNzGuXj/+98fN998c5usa6v9ijnTJuoVY4rfF8SdQ3NzcyGKIqZIeuTIkeZGBTc7zM7ONqSdnJqMHVfviF1/tCt2fGp7xHTeMngm7zyazZsccg47sHcg9m3dEx956cNx6r7laPzoo482q77d3d1xzTXXNGS1uNReCf59O1wJR9pEvRKssIoMSIqIyPniiy820ROJtmzZ0hBXVB0ZGWl26euHP/zh+OSnPhl33X1X05qbGVwnNQ9FRo+37b92f3Pb4H333RfT09Px0ksvNcfNd6+99trYunVrU3YVcdqH3mINtBeT3mIDrNU98oiezz33XPO5cePGuOmmm5rizom0Ps+ePRvXXXddk8aKjEhpR17Pn/b19TWXYRDVb6kuQiJx3Zn0u9/9Ll544YUYHx9fS5z28bdYA+2I+hYbYGX35qJTU1PxyCOPxIkTJ2Lnzp3xoQ99qEl3f/Ob3zQRsUgmopq3/tVf/VV8/OMfj927d7+muZVpLLJaQProRz8ajz/+eBNVtfGe97ynidoILgJv3ry5/YD5azT51v9oE/Wtt0EjgVQU6U6fPt3syChSioLmp1JdRBIFRdMzZ840RN6xY0d88IMfjP3790dvbz4lfoFNZL7jjjsaQj7//PNNVNZ+T09Ps4osSu/du7eZt7bnrBdQ5pt4uk3UN1HZq3VVq7nSXPNRc1Pp6tVXX90Q08qu4yKd4+atIq4due66666GpFLdlRF0tf6U2bNnzyuPuP32t79tIqv2RVwLV1aWfd54440N+S+m3dX6ah+7fBpoE/Xy6fKiW0JGEbNWbV0TRVTHLOq8973vbYhiEcm1Utv27dubqCriIanoefvtt8e9997bzDmR7GI3BEdWbYnUnIWoKjojPMfw9NNPN32IrhwEIre3t04DbaK+ybpHUpdWEANBLeSIWAgq1UUU6e2TTz7ZkGjXrrzkkgQ6fPhwkxojlfPbtm2LD3zgA3HrrbeGdPZSN2TVp3T6wQcfbMgoemtXNLewRAbORLmBgYGLitiXKke7/MVp4OLd8MW11y51AQ2YX5qHHjhwICwOIZmV2Ouvv76Zj4qW0lHzVau4g4ODDaGt7losEnWR1fGaw76e1FQdZEXMIiEHoF8y3HDDDU1EJeehQ4cawnIy7e2t0UD75WZvkt6BHAmeffbZhngIKnIhX62yWiBCjIMHD8add97ZEMjKr92ikpRUpJP2ulQjokpLVyOq/uzOrXa+ho2cIju5qhxn4nqttPfo0aNN9Edoc1ar0O3tzddAm6hvoM4RRfSzMIMMLoX4Lt0EeCu1CGjF1xwVKaSajkl5EVOKbH6oLYSVNouk5rHmmUUux6cnp2P81HhMH8knaUbzofC5HFxmxZ07cyFqX19s270tejbmPcAt81ntqus6qvkwWRwzf+UMOAVycDLIW86Fo6m+30AVtpt+WQNtor5BUJCiSiGluRWVgFsERVJRFGGltC6TKIeQyIcMFnOQo1ZjlRPppKlIiqz1PKnjo8dG49Sjp2Pyl1PROZwLP6czTZ3N5+D6MrLuyVeF3rIh+v6gN3bdtKt5ckbfrRsHYk5a0dt58oui5CafOawIrH/XY0Xz9vbmaKC9mHSZ9SwaAbNIKEIN56UO4Hft8pZbbmkWi3SJyMjhPIIAvoUh4JcCi2IirsiGyKKgaGvuaHGpSKqdkaMjceinh+Ls/zERW/51a1wbQ/k2wlqlXcpbf6fj5O4T8exzv4upr+T8854bY3DXltdERFGckyA3+fXzxBNPNGm473YR9Re/+EWTnpNHamye2xqhL7M62829rIF2RL2MUEAaZJLmPvPMM00aCfxALpICtHRROuyyCAJaqJFiipCiJ+Iig/mn8uakCK1taak7kK666qpX0uG5mbn45f/+y4h/3BC7Ht0TW0e3Nq8J9Sozm2dRO/KBN69gmegej6N/9GLc8N/fGHs/ureJ6K3DlwKL/jWPdiOF79LfiqLK/OpXv2oyAavB5Vxa22l/v/waaK/6XiadIp/01IqtHemGhoZeWYBpJamU1oKRhSOkk+qKkCKvuaprpiKr3wgt9URUt/q5T7ci2OJCptfjmeo+1hlbDmyJvnGvC11ISr760jIEzXXiJGvE4MLW2PzM1ph9Kd9CmH+jRputG5m1LzXncKTUrQ5E+ivyGpfUGKmNQxSWSbS3N04D7dR3nboFUBEPwdygIOpJTaWyQO+6aM0HEUMZ4Db/q0hq3im6WtBR1pMwrpv6zgGIqgiCNK2rvN6Sf/b4WPQ/ORADJwfyvb35orMWkrYODWHJOnhkMKZemIzx0+PRv6n/FdIrK9pr32Uh6S9HIRtAYKR0zdfc2kIXxyIbEHERuFapy4m09t3+vn4NtIn6OnWIdKIOMJtTipJIhaAipKho/mZT1lxTSoyARWYRUhkkcA5RpMiOIXKREsFEXtdOa27atJvv9Z06k+WO53t9Z5bf64uQq22OLyzNx8apjTF6ZCSmT03H/L75V5xI1dG+SzE+H3rooWYBydxUCm+s5q2tK85SYWOX6ptTG7cMoL1dXg20ifo69CklBE4LPgiGoEhkhdQCC5DXpQskQ2hzTxHIfE/qiNCiJOJKlYFbfVHUky3Iqp4IJcKZD4psrZu2F+YWome+MzqWJLcXs+UfjprMetMLv5f6Vm39iPIcjihqq0fo6tZCsiKvMXiu1fhEYbooZ1PttT/Xr4E2US9Sh0ghMoogLlNI+ZDMSi7iiUKV4laTrVHXGxVEReUBWXtSZsC3IYVUGTGeeuqp+MQnPtGkwyIUUohqyK9e7WRZ6kjS5StAL/Ty7aaTl//b0N8RnX1J7g1rkxtZ9WuObO4tvRUxpb6iKocjLSYz2aTDIjDnQk4k1kY5rNb+298vXQOd/1Nul17t3VdDuipFddufuaSIJwU0zxRNV4JSZJESSwkRD+jdRI94iAb4jiPbbbfd1kRUc1fH77777ubmCNEKGYC+5n7K16UfcgwfGI6ln+Xl0vGcCy++9tpoq5Ws/XpD4Uz+W/raYmy5Z0tzPbXabS3rO4IZEyIiq6jpGHmk5SIoR2M+LhsgK/JyYhyY8fvNebXJulK7l/67vep7AZ2JikhqhdbbFkQX4DW/lI5aLAL2VjAWEREPcBHZvbx1q2Dr4pMU2HlkMAcEeuCXXlt9Fam0L63Ut8UoUZc8R48djbHZsTiy/aUY7R1t/n6b9/eutjWXaZJopwbyb6l2nY2ZhZnGSaxWto4ZEwJyLggn1TfXridq3GllEc0xZWUKFrwQlHwcCd3RR3tbnwba11FX0R9gNXf7JHkQTQQBRGC1wCPVk+qKqq0ErVQXoJEOuRAZ0IEb4epWQeDWlpQX4EVf9ZW3yus74AO9dLJJc19Oe4HfHBm5z5zK+4O/8Vzs/u3euHMs3yp47uYYmM8V4JdveLCIlH9pJiZ6J+LIVS/FI90PR//Xst97rm5Scc5AxOYgVmYFpRr9yCaMiV48RGBsoj/d0IfMguxkdbxIrU1j5HCMt729Pg2056gr9IYgSARs0j3gRFBpLlADY+vKa1VHbiAF6OFMC5VBThFTJHVeRHQOKc1XpcJ1TLvK+/3zn/+8ueEBgREDKchggUe72rIj79TMVDw6/2j0b9kUsaMjti1tjY4zEV3591D9xfHFrlydzvf6ntlzOg5/8FAcOP1c9I73xsSzE01fnEFFb4TjfFZuMgj929yMgXQyBDJbCBPlEV00JSNCquO48+TnpIxvNd2t7K/9+/c10CZqi04AX6RCUrf/SVGBtwgnurVG0KqKNMgtikj5fEdskQRoi/xIan4pGiMq0CK2CInMCGNlmHMQVUUj9aXGUlDlkVcUU4dj0N7EzGQMXLs5eu7sioVt+aja86Ox4XSmwDO5+JT8Xdw7HxtujNh/2/449dSpOH7yeFO36utTO+StNBexWjdjR+qhXDjjaKTnxoGwpgSuA5MR0ZHWeBCXLpQ3bzUebfhsb5emgXbq+7K+LH6IZj/96U8boiCn2+OA7ULAAkbzUQtHyOZlZIgI3DaEQODvfe97zdsC3ZoH1Mj4rW99qyEHMkuLkV2fbiBACo5Cm4DuAW9tIgmyukcYQfT9xS9+Mb785S83K7PSdWOZP5fXTZM027Zva/pAdO388z//c5MtGKNVaOQS/aTAUljHV3NKHBJZvvOd7zSEkwIjJCL+8Ic/bDIOOjP22tSxAGelmJP7whe+0DielY6gyrc/V9fAu56ooihyADDAAa3UDmhFMinfalGUOoFQ5BWRRGHgls6qpx31kFT7Ls+IJkDsnGMAjGiuUboei7jeXv/JT36yaYsDEHHtiCyCOYaEyKhfbXzmM59pLudYkZWOcjrKk48MHI3dd0Qji5RUVJaqkrccAnmNg5wux4joraTSpktK6nMY7knmDIzfcfoaSgcjOlc9mYkxkNcYLcJZjNN3e7s4DbyrU19ALZIW0YAdIdaai5ZaAVZ9K5vqiizSQOCtCGxuhlDIqLwoamFG5BQFgbb6QyLzWRFJ+kmucgDOOaY+kmrXLqo69r73ve81pCqClKytn4gkYiMz54T4iCTamlcipj5kAGRGWISqMZGFEzMG6bI0HSnN38mozeFM8bWlnvLaNLYiuehdKXY5tFYZ299/XwPvquuogAKgAFaRClmAEHCAyQ5YBcyVKtMGggIqUCIMYouKAIwIlUYDrLuMRJoivzmmvkW2usSjPYQDeNFMlEZoUdFvEUub6iCV8khqMxf2nl7yI9uFNsQho3ZLVlHUd5txG3/NmclBXzIPdRFLP3ZjNx6yicrktCG/uT75taWs9tVVxm96t9cY19J302D7v7wG/i7aAEu0QAQRDfAQE0EQCYDOtyEpUIsiyAeQUlVzOgAsEiOTSOvuJf0AOSICI7IBLGKby1pZRgYRSP8cgCgs7RTNkACxRW1RHrDJIGqaT5rvimYXkr11XGTlVIpErstqD7nISCeyA1Fd9NO/1Lh0pb6obLzm5RaT6M9unDII+tEemY1Nu8hvXks/Dz/8cGMH9tB3XS9ulbP9/VUNvCsiKnAjCAIU8IBd2glwBaRX1fL734qklZKKJIhkviU6aQ/okBhwAVjU4wQ8DaMvQAVepFIPsC0IKad9xNcO4ikP3BX5kUPUrAiHOCLyUM4HneN0LmWryMppcFwcgnHYRFDnkVn6Sq5abSanOiIk+dQzt7cZH6LajIlzIRuyqqPN6tdn6UxZEZleqkzTSPu/VzTwjicqYPHgiPPrX/+6ARySfOxjH2sWd0SV883pSlOi4nCmsv7UBEJ+6lOfam4LFKWRSQR57LHHmn6+/e1vN217yNvtgPoDbHU5jaEkF5JL/b7xjW80kQvAOQ1vghApyWyVV191r68HtgvISFSrxxcjf42j9VM9RNIWB4BQvtseeOCBhngifzkVsvzsZz9rMgQE5uCQ05h+/OMfv3LJxjHOhu5dE+YAak6qbWPgaMzn1ZV10CEdKHsp2YH23g3bO3bVF7GAXYQTRXl+wAJEkawWOi5kZEAyJ3R5QVQRGYAMwUUC0cfmuLLmrcpxBAinH5EDkREdSaWQohDHIUJLB5WtFBZppM0Arb5NeWMgi9Vj5NXO6yVp0+jL/2mXHLUSjFTGgzzGiqhIpW+r03TKQZU+RVZ1fUqZZRFIyhFZlaYnx2QJHENt9MVG2lTfVpd3Xk+WUO2+Ez/fkRFVmoss5n9WTgHCPNK8z1yI10aCC23qARnySVGBs+oiE5AhLOIDLdIglH6kpY4DLDIjXl0GkYK7IR9Ardi6pEM+QJcuArd6oq42pabGpG+Rueavvl+OTR+IKWIalw2x9InA9CDaIa0x2YxdGk8/IiByk51elaUXbYrSdIK0yom25VyUVca4bMrQseOIernG1zT+Nv/vHRNRi1TAw+C8v0gG8KKBSApAF0qrlBeNzcsATzQWCQEIyQG1yApkyKcOkNvJAeSinb604VIHh4F42rZgxJGIVFZstYHMymrD9yI+QhiPqAfANS9GDL9rW1pcfqnazNRMTI9Nx8JUvpJlIa+jducq76Zc5d3SG/0D/Y0zqDqtn8aAlGQjA9npS//GhHjkrEUf8pOXnpVFKroyPumyJ4KQVF3645QQlG5kDtorwpbtlNEmWTgF5YyTA2sda6vc75bv7wiiVkpY1/AqLQMYwACiCxkaOLSDoIAqvbN6aWHIMYTSFtIDERBqU1krvPpGXClvnRNJ3FxgXodgSC5iVSr4h3/4h01Zx6R++gRMdyUhjXk1kOpTW6KMGwyUKZADKtlnZ2Zj7ORYnDpwKkafGY1zx+ZicTpfE7q5M3r398bWmwdj3y37on/z8r3Ka+nDWBGO3JyNtJyjqCdhRHMprJRcv4iMYHRlHD6N3x1I0nMyI6/sRhvKu6TENsjaummPo0Bs49WHVXVRmDNYS+bWNt6p389/PeJtMGrkKrAAO5IO5TxQtBIBkOd8G3Dw6OqJZAhXixvOSWGBU5sAg/RFEvUAELhEWfNMUQigpI1SVnNb11IBU1RXH3C1pywScAaAKYqa4zlu/qosoBsf+aTJnET1X+Ny7szxM3HkV0di7Cdj0ft4X76eJeWYzpvyt+Rtf1enLHdm+vwnc3HVTflKl+15x1XP6mmz/hCU/PRpPiyy6ZOcpgCISCc+6UQdpJOyswedWFjjUGreLbWX4bgsg7DOVWZS46A3/emLbtmBTtjSuOnj3bq9rYkqMgGF64CikUhk5ZQnbiXUWsZFGERBNATV1je/+c0GgJ///OeblV2RsFI7ACqvDpDSbGAGOART1nkgcxxY/faHhu+5554mkgIrUAOf796KgIii1FCSl0zALLIZi4hNPuelnSvBqq/nnnkuTvx/J2LL/YNxyzO3R8dsxEK+T4mj6TiWD4w/3xkzj83Ec7/4bYz8NyNx21dvi537d74yllb9kBcBjYdujEHf7glGFuRBSER2nFMpcnOMCKyOxTPb5z73uYasynBW2kd2UdhY2KrV8dC1cZIBaT2twzYiq7bVfzdub7vFpIqg0jNzP3OaIgpwVRRtJVUZVuRBbtGL8YczxbKyiSjaBT4kcknFrj2AAZ7W9hCMY+AgAA2hREsgclwUBWZ1zNU4ECmsBSTtKasNqS0yAbwoRj5EqPkskiKsaEQWpGgFNZJOTUzHof/8YnT/c09sfTJfM3o208lz0Tzi1rGYb/RdyEfJz22IzqnO6D+zKeayvd5b8m6nfWsv1hgHeZFL/3RGNtETicguNScfsslafCqvjChIVnrmdOjVuO30pTynyBH4rmwR0KcxOq68NtUnByfmuP3dtr2tiIpM0lMkBWbG4+V56oqkrUBmTERgYGBDap7cjlAAV4ZXzi5y8N6rzaG0hxwiqTRQe9JdxFMXeEVSUdLmnMsNnAdgcg5SPuAjg/JIKroamzKOAzpA+66seaL5LfK0bs3rQk+djbH/eDa2PJLkGFu+2cDD4q2b3x1LG6L/3KZYPJuR9q6l6L6+K3r71l79Rhh904+5p7EiI6fhGDs4zgZ+IxX5KkqyCwf4ox/96BUHyAkal12WoD57Ga96rZv+HdOOMvpXXh+cgWNF7tZ679TvVzxREQAYeG8e2qUNRGEkUah1FdExROL9rUby2Ixbu3oIq01RGIGA0W87sNX1zJXzJwDg2clQIAMiO8I7bk5q/oWAIimSAqE+EVsfQE0+xERaDoYjQUptOI+4VlVtNcZWIJe83pJ/6uCp2PCfOmPT4U3RPe+9vq8ladNI/recMHZEx2RHTH1gIjbcmMTduvYqsHrIQD9kpU928N2Y6cqGjMbvOBLJPuzGoS5dkJf8ztOh8doc91td+naeDYuAPtVzTh9kUN6uLPneLYS9old9GZJRRSI78DK+CLNyNVdZBgcmhAR6u++MyQvXwgiPrh0RTIqKOOY/SIO8BZQGTS//xwHU9U/Et3Ipykm/yQU4QFUR8SMf+UiTJoo80lnpMBlsCFrpLmdizubTcdGZzNqxkGWc2jY+W42TXiZHJ+P5h56PHf/d7ug/nO9uyn+La7yAu6msfv479h9eioF/PxD7P7L81+Tq3Fqf+hLRZAt2j+HVfFFmwglxUu6qGsp5Nv3SIZ2xgcU0dkHu0hUnhoCyI3bwm4NS13hXbmTQFkdoykE37EVnnMI7fbtiF5MAkucsgIhKjAIItcBThAIIZRkScHhx5W3mP9JYq4+IwqjaBhyXEkQE580BC2Arja48by6SKq8c0HEeyKsPczfl9E0+5zkO8rvZQTkycjIuWxgLuQEcKdVHSpHDXNY4tVHZAaDayV07oh49nHcPzS/fhLBS7tV+i6wIvaHDGxz8uvAmQnJg9IRY5vUyBTrlWGy16EVmTpCeOUjl1DVWqa/f9IhwLjuxiTaQnaPjAOhz5UYGjpGO6Yjzo199cMDv9O2KJCpAAjyAAzISmTsyOGMzGpICrOijDOP7jkTmUQgBNABjr9QL8LVtZVI7ogBiaZfRV26AoY5FEZG0ylmN1Jf6jpkzA7GUl6fXN5K6P/f+++8PEdYO7AVE0cX9vwCIuORyWeYnP/lJ3HvvvY3joQsEL1AaR41pcS4vTc1NxMxSPgCe/xDwfFsmlc2bCic3TDYv7J6fz1Wni9z0KQ33kDqZOTk2QDb6/oM/+IMmO+FkOEyXkhBWdDRmx5DL9Wi/1RdJbeUgRWu6qTR4pWjsRU/aVoej1D7Zai67ss475fcVQ1SEQDzgrXkocK5MSZVBTB5clEMi5RiYhwd6u99AXeTTPqKJXghhE7VEsSLOSqOqIzIDhMsN2hL5RAVk1B/gIKQUVzuiA0AZg5TPjQOVDYgE2vK75s3kAcyKusbnZnv9IDsy1K5/49VO8zmXn93zcWLH8egd7Y0ts5m257/VNse78s2Ep/Lf8fnjcfJYvvrzNzON8xPVyG4Hev2t3PRNTuOTonKMoqCtHA2HioxsKNVHbNGOvuhau87LKNhVv/RAd8bELmxmbJyn/lo39Z3nsE0dyMoBcA4ll/Oryd/aztvx+xuymATgdgTySXHnU55yjAWsAACsQMpYDMpripbOATpiMKzjohmgAIWyyKNuRV1GkXYBhHRL2saYQwkc5dVfSzYyAeOPcuVS//oRQZATAHn14bzEA5QA47eNjCKjCGEs+rFIBezaqXkZGZ0TDdTneIDYpSFRCln1VeMRWUVY7djpYGI6V8GffzH/cHE+ZjabhMvIunJBSaRF1PGOvC666dE4dnv+GY5d+SB4vimf7slU/Wufzcimj5UbXdEZMtGpuvRp7IhOVvrmqNjJOccq4iEqnYiqdKiOftiS83XJSl3H2XI12ziGxPokP9k5B+2q904k62WLqA0x5xdidjq9/ERGucmcU+XfN+noTE/en/eCbs6UbVO+HaAn/XoapYgMbBZSGAcpGBWJEE854ORpGZ0xAIn3BHBABprVAAVg1QcAIKlIrDxvzAkAVAHT9yrvOyBKZ93+94Mf/KD5u6SAU30CKblFTLIhMU8v8krryEzOSncBC4CURQLn7rrrrgaMnAfwWSARlYCaXsjAWegLGOlIuZprLy7lq03nZ+LxTY/H5J6cO/cnWeaSqPm3ZSJvemgWgJNrHb0dcW7zuTi+41gc2nMwlnbk+4M7lvVGFmQT5ckm+nEOdjKLWuRWTt928pmK2DgjZKFXx42LDdVBunqli+P051MWYUzq0Cfnx0Z+wwAnpw3l6bWIp+/WrbAixbbAJLKSl20RFn7eKdtlW/UF+JHT+ZqRJ4/GmcfykawD89F5qisWe3Id8urF2Pz+gdj9gbwd7epdMbB5IOYX5htjiS52m5VUxtYWYDIoL0n5AMRwdmUA50IbACGTORUwDqUDQASGdY4TQAaftStv5xSABvEQ996cM+obaMoxiA7qi4JSYUDiEBBbeuhuJHPW8vwWuoBJHRGWLMZuHiu6WPk0VqCVPSCmsghj/ECNUJwA+YxJ9DbfvnHfjfG+3jvjmsO5cvpU3tb3/Ma82SEf7N6UC1DX5WWNj+U14y/l6miuOz174NkYn1j+U47VLmLSu77t9E5ucumXEyIH8BdhkE1GYcx0Y6yIRT/aIr+xqWOsdELvdGBDqLou67c6dIrgnBciune6nONaxFOPLqzg0wtb6I9DK1m1/3beLoz2ixidP6g7ejqN9tBwTH9vOjb+tDd6n+uL3oVc+eyYj+md+R7aZybj8JF8mdbHMxW889oYHRttQMqLIw5DI4QFBgCQBjI4AEmTAIrhALmIspZo2inj8egIByQMjSxIKWLpw6ey6jgOJMCvLCD98R//cQNSYKkIo39AtgKsjLadQy7AFQU5BYARJbTtGNIjnmxBe0BrvMhvXEU+ACeTNgFZxHFeG+RHVpv6vlvQ+tAHPxTX7bk2lnL6PfZYPkF06Gy+ZiGiYzBfxn1TV2x5f94Y8r5rorOnM+bTJsZIrtIJXRgHp1PRlUOQVZCnNe1nB/UQmW3oQkRjK+Ot8+R2V5aoyyFxrsrbXZKyKcv2Nm1aM4AHERHxZDSiN7lgYDXiqceReFyQ0yKz7Ijjp8PV6jQdvo3+WzdRKWRmciZe+H7+4aT/tDEGn8i/U3I6J/STCZLmzyrk2/fmcrl9YmfMvDgTp549GQe/cijmOuYagFIkwAAshTI+EDMKowNxfTKIMpWiAr29iAdgRUBkB0YkFYH1A4wAb/cbICqNLNIAB+B5O4OVTKAiQ0VS/QMuz++784gLjObY+mgFlnPkAkyRiqdHYO2JGt7iAKzqIQZ5pPXGX5HfWDgcn0BNft85CgBt3jZxw42N7hbnMm2/81wsTmUqP5/rAz1phYG8xrsl9TiwPB+vyMepIL5ITo8iI70gi1VzxCUXByLDYSO2Ih9nQ0a6lR3QhQyIzEPppJDSztHYTAdKt+rqx3h9GgN9aEN9UdxxevmHf/iH5i0Rn/70p18TXVs5ph5skMXYjINu6d10gsO4kHNvbe9K/L4uoiKMOemZQ2di7r584v+hHbHpZF7szpG68G5Ro8O/uVTkqQTLeKZ1Y2fjsf5Ho/uG7th1zTIhGYdRERJRKdx3BkA8qagIg0yAUvvKY34DL0OJPrwyEJoXaVc/AOETEBi36lTKpw5PbEEH4fyuTb/alWYBsHYRBiAcIzOiISOwGRPZgQbQkUy/5srIDvhIV1GTjCKXyGTTpoyDbHSNGGRAKhsg64uc6hlPsy0HqKYOHa7clNVvkYnOAFl9bZOPs6q015js5DEeOuColDMebSGD45yjPpHZcbo2PnKLqsZMd2Sw0QsnhOz6V1c9OvDbPN6clQ45OyR3jjPXNrnVsRuP475XJsCBcqZFfufejtu65qiIM3JiJF74yXD0/I+9se1gvrJybvU/T5+qTP3k6zn6xuP+e74dXZ9Kpd6SRN2+fJ9nkYcSGbWVlI4Bqp2iGad2v8vASA0oPDvQIynSIacyDFmG1T7jAxvwASvy2KSSUq0CU3Mw/1NGZJDiIgmHIiKRSx/kFt0RBzh9F2UBTdRwjGMgn2hSMgKfvhDdhviIIJLZkEH7+kcGxLUhPjkr6jcHL/I/MpPPmKWtviMjOyApGfTLGQE5h0VnjpfzQDjjYQPycVr0qSyCIavjzitXpER4hLIZo769kREB2Uh5m/6UtapOH/SrDL0Zu71Vb02l/M/YtAsL7KNvepIpsNvbcVtXRHVT+MRozpueORG3HLk1NmTkzKc7V9VDRdeehZ7Ydmp7zORTH5lQNkYpkiCajbF4VTvFAjnjA7LfdueUsxWAhjOV0waQIKgIhKC1lQOoKG3OCHQVMQDExfTy1lXPp0iDXIhKXiBEWHKIJsiOgJwDAAGfyC61taDica+SD6CNRco6NDTUyAhMJZeoox/tOG+8IoTUsaITnZBVGc7nUjdjRUpOQlvaNi5y6ZP8bvJAZM5BGkwOzolebYjqPIdHPjqiT/KzCbnoBuHZil71hXQiHZuSAfk5C+k24iG3je0Qkz3V15c69IS8dGEF36fzVc/Y1GNX/fszJaK248hKHt/fTtu6IqrXfrz4m8Px1P/5ZLzvf/tg9EzlxfImcq6uAufmuufikWsfjpEvnIntH98Wu69fvh4JIDwlw1G4nfIrWra22Krk8tRIAACIAlSM1FpOfUDk8SsFq7kWAAAX0PLsyNdal4fmnYEJSJzj6YHWGxeQVP+A6tWg+rGyiWyOWXASpYFHG+rq21M6xqgM0gM7oOtPeSREfnUA39wWKegJQIHu9ZC0VZf1HemA3zjprh7NIxPZ9I8QyIRs5QDJai/SKmvc6mlHdjGUxEdSJFNPW9JYdrBxAPo1JgtC9NS6aV975SSl+zbRUvRnBzan55Kr6nPOHI1FJlGWjY0N3t5O27pueJjPiDp+Ol9b8kReM3w4X851LucYFyDqQmemnNvzpob3zMTGq5OU/cspI4XaEI8h/a6doWyVtjY/8j/lRCcEZWjgZ0RAbgWwdpBJOYRCJCRgXEbUBrCoC4StdfWNSICFNADpmHLSKUTTLoIhuLZFIsQXeYDCDuTqKgck+gYw0YTs5CKHY8ANrLWAA4zk5SRsCApw+rtcG4AbC51KrTkvKS85OE2yczBkFJE4VHU4Lbu6dEgvoiJSIoZbLY3RxrZ0a1dWfef0pX1RXJ900OoofS/nyY50y1b0SyfqO669Vrn0qW5FWvLb9W8Mjrf2o/yVuq0r9d2QNzO4iaFvV28sbFi4qDEubkgPN5Av6+pfiJ7+rJugpWBGYgCkKNJSIqUqU+DwvX7zqCKMuqLNUHpuJNVebcDBc0t9gJBxgQ8YpLJIAlRWBx3XX+umvnJuBwQqXtuOLMDjGq1LOjbHyA4MSKxNBCUvILk5ApDLIQC9lBMxyCMb8KkMeckNeMamDEdR81/6uJybcSMYwpFB3+bXFnmMl97ISxcir2PmxmRV104f6pNNG/RJZ2zKVpyilFekpStpadlTm/SIqGyov1Y7apMubVbyTSu0weHph1OgX8fgQNtksZHNXNvvGhd5TB3I39pPU+EK/G9dEdV4AHNuKu9E+mU+UziRc5GF1Z+JTL/brAJP9mRaeOuT0XFT3oy9O1Pd3o2NWsrz8XL2VuXpg7ERUsQCFiACZuC1MYw2EKI8vzRXGQAAGAYFLp9IK4rph7EdR4pWD6tPfSGjVNZ5YNGXTToGNIDgOHCRD/iktVI5oNMOOURTgAFUoJcmFknJAPza4nzsZFPfZlxAhTj6Ue5yb4BM9kpRK9IhIJ3p13eyGCedimjsw2ZksvsuYtZCjwzEcfrzne7Zkl78touodE0fNjoiR23som/y+aQ79fUhu9A2eWQf2iJX9UuPZKJLnxyGMShDLu0Vqau/K+1zXUSlvM6uTJnytsATh05E16Gc0E8myZo/adORY12+PJPmS5p2RP5pozjUdzCe/kCCPtPejQPLl2W0Q2EUSfG8KtDaGQFIgJSRRLjhJBjPzADKO6cNRpYumtMhhmjJ8wKcdhAMqJDbnIWxEAR5bNou4PhELF7a3wNlSKm1FLTOkUHfUltRz8b4yKQssPqtfzKRgczatQMaMisvApEH+ZVFCuXV53CcNx/2qY21NrIZo7HYfbfR78VsRQjj0hbycCraMR4OiQzadtw4yO08EtCTNux+l1M0VuSTZbAZQqmHNEiLLMbKLpyU/jnP1rFqU/v6V5atyei3fkRTG0ddcmm75NKWMVS01Q9ya9Px1r4uRldvZpn1EzUHb555outEjDw1Gt2j+Q6cDekJExdLG5KoeeN3ZypirjNXQTufjx/3/iiOvDcvb+TbBSjXIgNF89BWYSmPR6Q8hqVAn3ZEBggGsujgkSv30laKqR2G+eUvf9kQVV2rv4wOEIgrujrvNj8OgXEYC2jIAAB2MkhL/dFf8yxpEoDx8iU3sHrSxe+KrspJe/UtckixRH9ABTTpvbYRm+zqkgGZEZ9jIRfyquu4MpwBHaxFuIag+UKzuem5mDiTl3DyFS0+ZyczsiwuLYMwfWeR6EIg049+OQyOTeagD46KHSqDQLhaPOJI7cZT/SCJaMeu5vKcorocGSKWzTgjbXGMdMD+7Kpu66Zd7dOR71JeDpqN2YZ82ocDDo9dlJc6k8W4fFdOHeeRmr3UL7lb+7wSvq9r1bcGgDxnz5yNl57I2//ydZWLjy1Gz/GMmGN5T233QpzbukzSn4/8PB469WBsfe+2eN/739cYAhhqTiOCADdPzSsCN0/LU1IwYzLMUM5BkIFiHUcYxxHCZwGJEwBu55GP4ex+mw/qt9IwhkVmgJRWIS3g+LRzCvoFEHLpy4aYSI7sAIJQwEUuAPe3V1wesIprfNpQjowVRYBlOLME7QKwsXES5ABsTqnGWjpv/aT/8bG8PHTgWJz6Va4aP7IYXeMJyvkNsdC7EPN7zkXX7V1x9adzXrjHy697G/la21jru7ZFVTLSPyC7XALoCEBviGLux7EgmEzIOJGWHuiYXRBQpmOOXvdAI79x0zX9O4/4yMM+Vpm1Rw9IjWxksKnDuXMAcGTFXR3nSy4y023JxTnU1IFcdAwT8MYx0D/bGNuVtK0rotZAKKZ7Y3rOwQToznx06qoEx7U5p7wu36VzZ6703d0Zi7cnmbedjcNnX4rJmckmOlEYpVAixQK4346Xd3OcgQGXwhke6JWhTMYCEOcYV1oDCEiBpDX/AAZG095QgqgulzC+fgEGIS0amZMCFqN94hOfaKKy9rSFkICBqGTRpygJ0MBCF2RCXiDyojPRBIgAgdPRpzGrg8yAYgOiclYcBo9PVu3qa61t/GyS9Om8++kHeYPEtzti8Kd5DfHAltj0wubofSHJciAfiTuef+ajbyQ29Odjankr4Vrv9V3Zh/EYNwJwcLISsrMPIvruHLs5z8kiLn2zD9361IZNhuB86+UabTgvqslaOAG/6c0KOrvRFR341J7vPtmNvhHNMXIgc/WtTW1xAjIx2QyZ9Fn9qqcNtrBpQx1jv1K2y0JUgzFYZPWnEzbt3RSbr8tbAd+bF8dv2xrbbs3b4q7Pv+Kd6e7YxFhDBApkEGSiWOAFbgqnfL8BlMKBg+ErtWIshGP08uT6RwJgV6+8ubLatRjESOXtqz8gYCBG1Lc5EqNaDPIme7cSmkeKgkBEDu2obycrQhkLAOhLCutGB85Fm8aI9IChPrJzCvrkGBx3XtQAmHrMS3oM0PSz2qZvUeG5B5+Ls/8yEb3fz7vDnsznV0/m61Cm8tLXdM4ZJ3PdIG/d7DmTDzMc2xATSxMxsD9Jtm3t53BX9kW3RSR65ZzIzzYIW4AvwqqvDL0ir7p041MZ2Q37qe+3T6TwqYw26dZvTpONHFdGuxwzPRq/+rCkHw4PyfymswaT+el34YFtOVZ2Urfqk68wRT79qXOlkPWyEZVxGoNuTEVvSUXvzMsMewdjy+4tsXlbknZrfr6chv7bv/1bowjRj0EoiYIpHgkoCmABmvd1HmjtlI6copp0jNKVlZIOZfTRHiWTRXvaqnQKAJSzIQkA+GQ0wBNFzWFF5C9+8YvNjfnII3pXBCcPg1aE5RzMJ5VDGs7DPItsDC2K2o3deX0BGucj7bIjI5mBkKycirGqYytgq2/nfIzN5/T4dAz/Xwej+75cmX1qRwycda/1q5HA986lJMR0OtDDA3F2dCx67kjiXr38nOnFALFIZDxk5Xzoja2QqQjGNpyZcmxCV2xYpDLGWsgxbucQSj32shW52IoD1I+dM1DW+Onfrn+/9W/jGPyGF206Tnb9agvGnGcj9kZuOlQebuibfeCg1cGUbE0nb9F/l5Wo5xsDhVE0DwbEFM2gDEupwCgqAQIlSf0s+iCl6AbszjEYRUuHGcpvRq02tFvgAxbG047zyqnjmHkXA+ifkRgMUdTxlj3zMP1VW9pFLjsAKg8A5qRVjvG1y4lYoXXboHcEiciiPCDo35js2kB4ehGFEZxsdERWQK75OnLoV0TQDzmnJ/OSxqGT0fF3ecvcb3KuP9nbXAJbzQ4I272UKeHRrph5/0x03pjXpzMFvhQQ0oXyQE92BDJe4EcCtnC+CM0pkpO9lKVDpFDfeBx3Xnl76Zr8vtNLLQwhu7ocIydmowc2QywycAJwgWxFzhqf9tRnb3Jpuxw1Gfx2ji1hkbzVDuyo3ypfI8Cb+N+bRlRj4uGAkPIAlXIAkgJFJOQEZMcpWnngVochzFmUARLPiUpN3fLHmIzmornzwAwUynue0V1F6peXlGYiEoNTPmIhiijlcSrpLmOWp3ZcBKi2AVI9K74AJqrXtVZlgdZ9vFacyc/QFemN2xjNkb/0pS81iyrG7pgxm8tyFOpoy3GgQeBajLHY0mQUL+Qi1GN54f9f8v1DI5kq5j/3VK+1eaIpZ2Zx9o6x6Lwp53M7l8m1Vvm1jpMToH2Si+7owVgdoxu6MwZTDceRwlTAWNhT1sLOHB+dDGU2VHqtfrUhk+Hk6AGxkcdxi3gyGefgQfvksFu8gwf611crwUou9tUnhwEfdKsvdjJ9onvZjbUI5YyrSF/yvZmfl2XV91IERhbG/e53v9tEEMZytw0v67tzvDRF3nvvvY3CXB7hOSkPqJGpUk99a5NXrJRSeQDghRmMor1twQqiqA1ADCbNRUDE1oZjnkFlfLIwsD617a+IMyaDiZBAgPz68cnh2JCIoQGJh9dGRWP9qU92uzEbKwej71pMAnptlnMxDjs5RNnaz57O9//++njc/b/eE9tP5jOX+e98RCWf87/7d/lHkv8sYu8H85ro4PJKKpIYs0+y2C8ETOMSzTgquhHt6IaOW+vSLR2zD32zCaIjsO8ISH9Wu9Wlo9YNSWUbnBO52A8B6QsefKcbJOach3NhkUMwFu1pF57oW1Ao2diWXPpHdJ90oF2k1S/7GqPr7dpx/K3Y1nUL4esRmKIpzeURBpbaASGFUS5gV5SlIBvgAj3gUqSy0hNt2Xx3jKEoF/jVBRyEYRyb875rB8g4BW0wtHr6KIdRXlhZKadooD4vroxjJa962nWeIUVsY9CGsfHagAywzgGC836LJsBKVu0AEVmcs6tvfLUDpGPOiZ0b8jr1pW7jUzknP5Hp88Hll4HRAVAbQ+uOMI7XTjZlfRobW3BqztMnW7Kp4/RQOnS+Mgq6RiaOl81kH/SJEPpGwpVEdRyx6Zce6IntTKGURSLtVlvIK7JWpFRP9uR4TXXUMw51fIcxv8nFIegHTrXNfsZFTv2Qp8Z2qbp/veXfdKKWgYcyykk/RRnejJIYlKEogrcbTs/oU2pbhgdiRirvChSUrB4QMz4y1CIOA4lA0iN1rQz67TtwOa4/xkcgRisjIAPDWZlFSkbVF5nUIxPj+Q2kjMvraqvSMQAEKHICq7Z5bse1icD6Jw8A04P27CUH42rPVuc5EC83i7zld3TzWPSP5jz93NrPWpqjirj5RqRwG2euO+fK8DJY6c6mDzoxbvK0ykGWkqeVrI4ppw2653iMT8bA+The5YEcWVrtpa4+7bIRemIzuoIHmzEjqjHDCl0jnHb1pS6d20Vp7atrZ29EJRtZODmOXF19sSmnqb9aS0BMfckAyKcvulEPxjgn8qj/Zm1vOlENjHGlJC7ki3yUSSEWjShdtAIWSgR+imcECqVEl1CkQgzgnPmORR1AoFALQQhDmYinbcAz3zDvQHTGRxC/OYICBwMVKBEaeH784x+/IrP+nNc2g5FPGwDE2I6T3biG09G41IKo5tP6ZHxA82ksxmQeBwCOAReZyWY3plZAAJwx6rd5i0Zy7PD2F6P3eJY7l3P7/Of4yg1RyT2yKVdrtyUJ+5fvv9WfMQGxT7+1bwzGrx82qSjuuPN0atcm0JPZ+BCHfjkwdqBbbTtvHMrSE9tqH/jZ0XnOix70aWqBILVxisrYXJt2w4Q+ODfptH7oiz6VqwyFXT0PbGzOk53z1Y/v2oCtirR+l0MQDNhR386T1e6YscKw8dDBG71ddqI2BlzMiJPe3q1riY9mIAZmr43B7QZJsT4LGAxH4YiLYMhCuYxb4EBOxygVmG1AAgxSlta5jjLSS21poxaSvJFee0CIPKKB78owKqNIn+zm0Y5rV7QgX8nGAZCfQbXB0ahLHsRifGMtGQCZ7EhNFsA1Bnqo3TjoC5gAV13EVo+eijieWjq0+WD05gquV4XuOJdzsBVzVSR1O+dkXz7Sd3tOJ/YmSbuW7+gqnQOysQFkRSW6oTuyI2vtxg3oRSplyOiT3uycDiclYxBF6aDGaGzGySk4Tnf6cLymGMrSCx04b9Mu23LC9Etm9clDp34PZaZGfvWU17dIySb689s4y1k6Dm9lD3X1i7xIyHlIe/XB4dCJuoKL9mFCu2R0zl6OjMyOk8W+nu2yLyYZkPcijeX1usmxvCieb73bPLg5tu9YvjxBcAYVhRhFJAJCUcen1VBekNINDnDcl1sLLi53/Omf/mlDCgPn3Vx3tLrLWF//+tcbb4tI1ZfjbuWjWHNMEYxCeeYCEULxzAyjTx6ag/jHf/zHRta//uu/buoCGFACKXnLYDy4tsjMgwODeTiHUhGE4d2tZKwMbMWanOqQ1Vaf+gAeZcmkLyDSHhA79/yB5+P4ibzbanwutp/ZETc+dFPc9HC+zCv/eWNV016SNF9sEyPb843yn30itv9pPjm0K39PLl8rrBSVE0AqwAV+NjA/853cNjqrz9bvzcH8j12RGQaAmQP7+7//+ybbkfHQHT0jpc24gZytjY1j8zIzn5/97Gfjb/7mbxqdqlc6QgLOBSYcE3npujIfrxeld07TRk5OzSU6WDG9EY3Vrbb0R892x9jR+Ct1JzO8Iix56Z++2FX/yjumH6Q/dSIvO+VLFdzn3rcpncnW5RtiyraNYJf432UhKmVMTU7F0QNH4+xDZ2PhyXwNx5FMCYZzvrUtvcxVaeBb8r1C78tB7s/FhNPL7yoCRiBQH2EpiSLKc1EsI1GsQfptY3Re1TlKRngEAHpGQzLRSjuMyrOrD5TSVaA376RYhgMSxNM+8laEJAsj2TkHfaqP8OoChyjAoPo1HsTVPpmH0rsjpDECJyJI1cgNCPoGGONXVz1EQULfK8oAsj6VRQBEIBOwkENfW7rz2uZwRrZH8yb8pzJijqX+59PLb0z978nb7+7Iu4j+IJ8cuSmf0+zNcU0ur3aaJ+uH7kpWuqA3xCMrQFakbY0gK7FmHHZ2JBf5XLYyJnor4GvXef3albfrl/7Y1FiNmS4QgS5FuQI70nBgjptC2ThkOCKr4/pjwzrn8ppxcUDWMeiVvJyL4+SlV9/J4pzxw4d2HGeXspOyHJmIPdgzGJPP5UMdD+ajc8N5PflU2rUz9bEz9/3pNu9ciGvu2R/brnJv+6UvRl2W1Ne7k04dPBknvnsiOr67ITY9k4su4/lnJUZzvtObfzox39I+8ZvxOPPcSEzcNh7PLT3XvEG/cn8GsVE8jwQ8lMNAfvtEPgoCdDvAULQUi6IZRqRkKMYezvmh80DimEgE4MilHx5See0Djg1YlHEeAQHAEy7KADLDOe47Q3IEdSMGGRAdwERt/QGM38AIcPpUR78cCdBpx7iMWf0CCtmLIL4jsnEoq70CEb247LSpP2+QuG4qRm7Ip0nuzDn+mSxzLgnbl4Dfm69FvSH/7GS+9sYfL+Y4vATdOOjeXIyeyIZQdqBEGMf1STY2cc64lKWLIg79+W43ZsDWtgjH8XEw2kQe0Yf89E33xlPELTvTFwdcTznVPddkV099OmdPuuEo6anqyY70TYclizIIzg5krNVi9cikrDbZQDtswvZ2ZYzZJ5nhhMyi8MyxvDNuIv/05VO5KPXAYLOw5y+8ZzIT8/25MJdrAiNP5Nx96Vgs3bMU269evsWVzi52WxdRKWshlTx+Mi+tfCej37dzMv94AuBM3r+b/zyFmg+hxuJ0Rsq853TpdF63eiFv0XrPSAxev5xSUaLBm3sAhjYZm6cSASmXp6RAwOLhGIHCGbgIgxiMaDdPpFxtaE85hgE6fQCMlEX7wETh5S05Af1IwaVf5qbaYpgCib6VAxhe2Dlg8ZvxtcuRGIfjQFrkB3JjBgJjspNPOZt6HBgZqj/1lSMnkBiLMoBDbwBGLz15+2ZvplpbrkrA5eNui/nYW1d3Eiaf++0fWAYZmWzKa8MneehG2whZxzhIZeiYjK3jVUc5+gNyu99kqz58ZwOZg7FoZzgdqGPaJr+ybFTkK+JyZs4jOdnoh57ph25EV99hw3yVbmQ89KEfZJNlaZvO6Ugf2me/IiPHox/jIaPdd3WMRzn9ktN4bByUMnA7no8Tzj2cUfRALpIdzdfQvJh/rzX/pctqyi5OLcXGkXSOp/J57O58g+PZ09F5b14SvPW1N2I0hc/z37qJ6ja2E789HvP/eSH2PJV/Nj5vBs9L9c28qHXtsW8yL1I/nwY91htPDzwdvdflTdrdr14KoWDGYBRKoBgRhME8QeE3AjAy4vzrv/5rE00ZzB1CPDUvSKkMxSAigPNIAVDIyBDIZ67LiIDJcD6Vkx4hsXt93VjBiDZEIZsEx91EAABAAElEQVRobefJyaMOuQHPKqfoxpD6AW4y8eA+nbMhubbIo30yirBIAfDqKs9bA6GxKFMg1IbII3IDU230NjBgf/XNCHVutU/90JHxkpUD5OTsQE1PlSL6TV5Og/z0RS7ykptDBW7gNf4CtU+2IT9nVWsNbEZn5GdbstiMga2QUXvKuNOIvuz6IzOHqAxZXTNlAzKYUrizjIzWLhBdG44rz476Yz+LhPBVjpUsZNd/7eR2zIa0HLNxF1H78q9BXP10Ppr42Hsi34/ZYB/+W7eu/NMiO0Z2xeQ/ZaQeORWjW/NF6jfvbNpoLXe+7+u6hZDAnkM9/MhLseX/zrs+xvPSxcue5Pc7zUjpXNrjpV2H8w+PRGzZk0/I5CITb8dQlMCYPgHBnA5gGRsBHZOGUZLjwE3RjABsgAxIDGkea7HG/AEhpciMqh+EAfRKk0VZBuQAlEFixmZARrWpB6zKArWIi2TDGSHK03MirYAjK1K7nATMwIR4xqddwBIFkIFnB0IbQAAfBwIwxqe+39pQXgZR5ZtK6/yPjo2nMgFyIobx6AcB7caojO/sT2fl5EQ1mzpsZIy1A3uRUnnH/Ta+0tnKIZAJuZRhH3pnS7b3qQ/ntUPXNjZDcDudOsc+dCiyw4tP9ucI6dP49MER2cmnD07Y7rdx6tM4Wol77uC5uPqZq2P3SQ97ZHbw8iJeI0zLf44j8mx/Rt/3bogtdy0/NdZS5Lxf1xVRzU0nR3JgB0Ziz1yCemltQUsKT3JsH9sRI2fPNH/a/mjH0Qa8FMr4Q0NDjRdkGPfLSm0Qh3LMpRBJub/8y79sAEvRyF2PhjGuuWVFAv0ipjKAZdcOMiAqsjAeo/kt3XUzvfraqg1I9I1k+icPAHzlK19pHA05GNWKr3raBXZem9GBBsBFQd+1AaDa8QkEiEE2xOaEOANOTH2RiKNwpxUwXk6S1hgBH8DJKWLJBFyvFn3MxUVG58iEIH4jpwzGWOmQgwF655CB8/S7SFdO0io8fXKwVmlXI2uRmbOlW/1wWH7TB7nok63Yx3yWs3GeftiVY+Hw9WV8xiHCIqtPN9yoQw6f7AAj+mLf1k9j9NuY2XtifCL6RnN+OytA5eLRGiQt/SqzcTid8YFcOJueaWQ0xovZ1hVR58/lg8LH8n7Th4/Fvl/l+4DOpRfNf2ttzi3kWwiPDxyL2aHZ6L8mXy+5c7CJgIwvzQAU4AVkYK8oxdgURFm8ntSJgRwXRYEK0UQaO4MyDKUPZ9RDTGWBXWSSEjGMfrXHITjHOTCm40VUbUiJkYjnplxlAVFZcmvbxriAYX7kU3ltASjwAq4xGR/npB3kJ6PyPLdxc1jAJhOQxikPTEjqe8m2lq5fz3Hj0i69GQ8y0hEZRZWa3+vf+drJqaxxGavjgKwOvbIPvdicU18f2nWusiBkJYO9Nt+VpSvnizhIyGlol1ywoW0OnszOwZFjviMyslf67JjMqxwkvbOjcRiP/uzq21uPaZee4KZ7OP80y/Du2Dy6pURe8zNnwDG3kKvy+RKF3s8tZymtY12zYp5YV0TViVeGdnbzJhe75XWt/GtiLsA3L0ZLIxg0MiCT75TiuzkTMgAwZTEG4zIYpVM0wzmG4M5rhwIZjIG1g8SOAwjlOw5Q6iGUssbCw/LQzpWHV0YfIgXSMFKlVRyFcvpANp/KM7pPpALeApnzxmEDJnIYB8dR6RySStMAqOao6jumP/1frHEv1iKrlWMH46Qz42YLxDPOGlvpyTjYAsjJb5xVFgk5K+NUHhmUpRu64PwqxefIlDHG1s14a5WcjekFLrTFcXNkZKJTmRM5EJGzNg5tyhDUJRc8KS+zMUbjU884RFqfiM3Z1K6uY+ppk4xs7xLMYkfrakyr5K/9LlAtdueKdU9OA/Ma66XYcV1E3dCZzx5uyVXG/YMxN5hPxc9mirNw/vR3vjNXifOVLPP5dzsXOpYvkCMR5dgNnhIYUYSkmJqbOc8IDOANCuZ/ytsZDsEBCakYUBsIAAyAoR6jAYq2XONjdER0DMgcp0BEsQOd+sjuOHAALzma9CfP++TZEdQOJNIvkV05jkM7jM37A4u2jNNvdZUDRuCxAY+2yCt6cCLKX4pxXwuT1/eLTvXtk0z0WmStsdKH8wDsO73Tp3EXYY2RntgDcStS+/Rb5KUfRGEnzql1rMaOVM7rl95s9MNmZGJHnxYf9WfqQBYYQjJ9cRhSZuXoW7vOw6CsiXzVv/YdV7f103fOXaCZ3ZRk7sm7svJf3n+kyqobkuYzUDG7Zza69+UranqWHfaqhVc5uC6iUtDgrsHY/5Fr4tTN+Qb4iYwS4xZE3Bfz2hhrEAYz0TkRJ68+EQPbNseiC8JJBsoUeRCFwW2MN5zpoDtKKFXKoj9llHcnEiIDtjTY9U4KpHgkBigE5tGRWNooWjI2w6iLUOrysOYw5aEBxDnGQGSP5NV8CuHJqA4DkpsM6iIbIJhHWswia4FNnzUmq5HG5pzxu2GhHAlwO69t8gIm8F/qpl1b9X+p9VvL07eUHbDpmOzAznkBNRk5E+WQ1U5H9nI8xmNs9GOnT/pVBtmQ2HwRCTk5/TlXW+FEVkGv5rhsWA5RNGZrsnkk0Q0t1g+qf+2TgQ2QnOyIrS1twoXj8MbBwgvcVAbGfmTTByxqDx7P7MzFpv6R2N2R72teWn4jx0rsI6l/Y915t97tE7H9zsxU+l/7oHyNc63PdREVCDb2JcmuGowjH8g/U/G7fPg538+TD0M1l2eWBV4W0rHp/PdSRz7f1zcSvRtcR1q+yYACDN5OsXYEsCLKoLyz3zwuRSEEIjASGYAFQQucypiDAoaNwhlFisQYjGWRh3EYAijsviMJOaRKvLJyIi9ZANE57fquXSDlqTkTkV8bjpFxJUkARZuOIybgO0ZuxPepHc7BglZFsrWMt9Zx7WjXVsRZKctadc93XBvAaXzGL9MQCWUL+kMWutDnyk09dqzMATnZwnhFMXXoxiIRHbsHGoH0WeNhfzuSaIue6jenzMY+6U2bXvWqP23BFOLTOTkRj6217ZxLUY6pS6ZyMs7LCuwyirIfeZWf65yNIz2Ho7+zP26cv6lZ2c37rV4JVBaQ3E+Q6+Bx+vpTsZgv++u+5tXLVyv1tNbvdd9CaCBzM3Nx8OGDcfCbeQ/rf90ce3+bF/xjcwqXOXz+I3gulcRDGx6MX259KLr+KP9U/C3Xx85dOxvFUBwilkLKWzESL+ucxRjHGZKB//zP/7yJerwqD81wIhDwfPOb33zF2/L0lOsGf0bkSYfT6yIKwqqv7lAu3iA7YjquLeDjuc1f9CdSKscLK2tHTAaUbjNwvauXoRmTfsitX3faADKCA4x+67xbF0UBmzJWQjkicipH9vNtjR0yQo2cGYnjR47HVK7Gz8/lLYB93c2C3Y69y4+BrUai87W72jl9IQi9cop0aHxAbnHN+Ohmra0BeMqqDTpGMBmQKP2tb32rsadLa96AwSHQH2fALr6LxNpQD1kdhw+E1K+ozyZsCS/a8uIAzrfVkQgQ7AY/7KG+Nl1BYMuyse8wCEuOkbX6felw3un0/QPR8+jG+PjMJ+Iz8bnIJbUG+5nPNOnu2YykB4YOxJavD8S+z+ZK+E35Zyy3Xty17tLhuiKqRpDJHTH77tzXTJSnrknjPZXXnfLtA+HW3I2559NK8zvmYqAjr3kd7o4jI0dicGSwuVmZUssjU2J5NIsXtUgABDx3zUcQhQEpjgKRueYXjEjpiEbx2qsFI5EQUBlVuok4IimPqm0GAR7tISd5gKAiCVkBUx8ihLYYmayOFUC18QpxXvbE2iE34pGpyKc9oNKey0rGo199cUjO1xyQjHZOQPnagHf0aK6ePpkLNw/lLYa/zjuSpnPRzHX3LDaxLx8SvzNXYT96JrbfmA/Hb8+3afSsTaRqd63PxubpoICWbKIWeQAf2chNr2SlI2Ohk9qRk758IpzjbKMNjlCmwzHJZFyq0gebieTOGX/pQD+yLr/JQbf0Z/FN/2Sle1jSpimKOto0vWEnax3Ok18b8Og30rKpbIpDpmfRnoMiK5lPnzkdsztnY+uX8m6yq/pjfCnT26Pj0TGR2svEYin/Isni7oXYdkeuNdx7VWy/Ni/NZdp7qdur1r7Umi3lrWANbBmIofcPxci+kRi9Z7S5//HcyVxN7c1rR7vzHTt7d0VvPoI1/ou8u+e/LL/wmLHKM1KKDYApxS6lZZjvf//7DdkQUIriGPIxCAMxBkBLHymaQYGecRlEP7wkAGlTtJJW8YyMpk/GpPiKFj6RShtSWqBkKMZUFvjIDJh+a4fxkBY4ycSo6upXO0MJQkAhc0UVIOOdjUnUJ5/6UrciqrFpD7DUV5bMnFXjLE7kO5V+dSxm7s+/kPeDfGXoC3mJK29jk3R5cmZmS97w/2Suor+Uf1DrC/lS8w8nyXa8fqLSjd0YbHRuXmccnCo7kJH+6I3sRVY6RFC/q74xsDdieRVOlUcW+kUw+kUY7dJBjR+R2FtZOvO78AMr+pGtsAXn61P/nCZs0KFP5IQptoENdoAHmz4bZ5h2QNKS23lZ4J79e+Luj9wdd7z/9ujryLaGcyowllOPTIK6B/Pe8L39ce3Q/ua1N27pNL5L3S4LUXWqc4PcuS/f1bt9c8zetLy0Tcn+EJTdYKdmppo/EWGwlOMYpaiPOKIL4KuHUJQuOlYfFKUfUQ9RKJFHRmL1HGNIIEFkm/IMhrDq64dR9a8+hYumdhGSEaVKbuoGiOFMlZVhVPIgZDOWPAaI+lIHAACGHMCnL4bUN1nIqV9jd8xv3rx0py3H1EVKv9VDVP3b1TNGsgNYZ0dnHH0g/wzI92Zi4Cebk6Q5F8t/y+sDzfCj72ze5/tkvkB7Mt9dtJBPh+yeir7NeS0zQWNrJV7rd3LWXseLoOSovcZDbjqiZw7K+OmJnMbjHLsal2P0aKdTNvLpuPP6YQtjl01xBvSqjDboutpDcASke9mR8/pjO9MH7ZDNTm/WLzhBZcqOMhny2skET87p21yWjfRHNuPTjnbJyQl/6MMfiqF0xPqeunr5eWF1ZC6wz45+v95t3XPUS+nYoAzwhz/8YbO65rdUpaIRRYpIRQrGAUqkoXTe2pyCgq36IiuS88LK8IhIaKHJai7vCvhedlabOax5J6//5S9/uYlijKIfqbA5kpsevOWQoyATQPLGdsRjQODU9sc//vGmH+3rmwyMy8tLzRkIqERi9TgDkUdbjAqYiG6sfgMJMACuc3bfHXOObmouf3b0bMyMpWP6j7ti/6/z762ezT+BmPOiVpLWuEXXjKNxvDvfE/U/59+V+Xe5YLdt+aEFwCOjT7tx0Ye+imyO0YNPWwG/ZC55jdfuuDFLX5UFYg6XQ/P7YkALH/qjK1Mb+qtIaF5MNsRFMmRlExFYdBd94cQxJGZz7emXc+QAjAf+rD24lANjdGvlFw7LEemfPQUANiAHkroHWT9/9md/1syDjeuN2i5bRL0YASmJQSkFYZEFQBgVMHgu4LYgwQh+UwwFUCKD+M4bIhODUKy2XDvjcRkSYSwkaIOyGY9BGE1dxyndMQYglwjAoG6s98pOJC/F+0QmHpWzcFsdr0xOxie7dqWxZLFoUXcskb8AhwTGrKy+yU9ecjF+EaZIQqd0o3+7tgDTd8T1fWR0JPqH8z1TE5kGr0FS7SBvLt1E//ymOH74aEwcyBeL7Vj+k5D0oW8yIAZ5aqebImNFFERkx/pdspDHrryNA0QWzhGwOVZ6EfVqHE3BNf7Tt7bpSn024jwsPmqD06NLOxxwajIy46EjfcEXuzquf/JYu/BJz+zlU6ZjPKVjRHZ8KB0MZ8wBG5d+beRAUgtVsKG/N3J7UyOqgQAtQAB8/V0RCnLMYAGAgUQYpLVRJuBQDqUznijKCNpBGiR1Iz1iiqAMg9gUry3G0bfj2mJEBtYG0Ni0IY0pMOmnNnX1zXnwyGTVNnm1ZwzIT2Yg4FjUNxZ1EWE4U2jykhHYEFo99R3zWbs6dRx5Wne6AkYPRJz8zYm463+5O3adzJeT57/VommNoSOJ7Fr2Y3/ySEx8Lt+YeFMugAws3/RO1tbd2OzGaQw+awfY2leeV9ZuMwZy0xsiyDQ4Uc6JswZ69S+00YM2RFHRTYrL1qYtNoSyIy5MiXTa9vRTyWJs6pHbyjw7tbYLC2xA3rIrm5EXRny3lw4ck3HVNXBO4o3c3tSIaiAUB9wm7AgIcKIMJVEeRVE6APOkjE3BDFUgcIwHBXbkoDwkrgUA9dVhWEq3qFBAp9Ch9JKO+dMaUhwykEl7jmtHvdr0J40DNCQhlzJ+Iz4D+g2AwFOpH3mBQfvSXRHBOfX1JV1r3fSjvJ0+7NrWp91mHFXGbw9CICgSXmhDYuVmJ/IPQo9N5SOJeS9rzp+A2OaTfBwX/Vd0BO4CaAH/Qn05r6w22Ei75ZSMSZYjStIXh1rOcrV29a0M+bTJobIbspg2aYN9YEQ/SAoDUlgYY1M7B8wWnIY66mqbDeFJG9pkHztdw5B24UNdZcgqmppiacO5N3p7FY1vdE8r2kcYwBZ9gBBIpRuUzLDAaB6qnGMUYmMkXvVHP/pRs1BAeY7ZEF70VN+qr7a1y7gVSSm1PK8+lGV0huIonAfM2tRnPG0jP/IAHCAU6bVjIwsASvm0i+yAop60WHlR1Lid41y0bS9HUp/A7Lj+ipg+jYV85Jzvzb+YtjEfPHDvdP678Lb8/qSljXn5pj/nx3mZQDvAqj873fhd5ESO2gG0vpPfXuXUIZt95eYYAplmIIjoVTrxna6cK1nO10ZddpHZWFOgV22yE91xgFJR5BrODMZnOTzYgBX1kNXclB2NGzHVK1vIfJwzZuda2zFmbXHOsLCavCt1sN7fbwlRAQ5IKYtyGQrIfacAhKHkb3zjGw1B//Zv/7bxiAaLVIz7ve99r1l252kpmKFd3BapGdP8j9ej+Pvuu69JORFXeXNM7dcb9xFImxTOy/ss0DCiY67nASP5HLO5zUxfACtFsuBh8YRTkUIzIqfC6Mo5xvDIqw1AMG66ACDfHS+y6gMoiiDkFIUrMp2bzTRtU76dofdsbO7Mi+z5gPJam0jqLpnJjfmY1past3n53VTGY7xkAUaylAx0Z8xFTnIgHD2ShY7szjtHDysJ2/pbP+qaFiCXuSs7yDZggoOrKYN6tSGh8+W0yICQ9M3m9GFNgT2kohy7+mzispx+BANjRGxTF47XeePQVkVH5djQK2JFT489kosDZgv40T97wYUxa6NV3pL7cn6+6XNUCqcAk3MA9p0BpBjIBiwUIOqYhwK1raKv8575/Kd/+qfGAJT8+c9/vvl7LYwinf3qV7/aKJhSGef+++9vVv0YUB+Ui9wMDSRAYxmfbNpncKQCGnKZ81qIYDCEG8rUmUMATrIXsYwFEHh7TkiGQH5A4hQAGlhrY1xt2Av0ytrruE/lkEZb5KmFjtmZXH08mZce/ks+DP/ILXHNSEal6GuunVYf9ZkzzKadg3e8EDNfz0W22zOtPrccRfVNByIHR6C/ikJIW3s5Fp/GTCblEKk2YDbOIrCxALbfvjtH/8alnjGZQiCOY1aGOWrg15ZNPyI9nXKoCGbTFnvZye+9SmzkuI2MMqV6r6/xaQdGRFVO1NqFeuabxk4WNiQz+WB0OJ0JR8CRsp9yHBx5OQbYgbU3crvsEdXgKLYMyegMQ3m+MzqPZqfginI+KcXgGYkypBYU4P27PKdjDM7rMybladtvhgZgWysZkI+C7dJfhGccEZfBpaL6BgplOBCOwjgYHUEt7SM5WXwai7rGqG9e2He778AABIhrzIxaY/JpjAXWVlI6Zie/HQm0rz1jI5c+yGqX7m7sz9TrYxkpe/JGjMcno+9IXp/MfznTfQU3SDrfNR/Hd+QljY9OxzV35T251+eb7SeXrwUiAAeANHQO9MZqJwddVESrMRZ5W8dNf36zv4ijnp0OSuYaNz0UcX3SK/vQv7FyhOTgFIy/HJS21WUbstJRkdctmC7LydDYSF/GgISIadGRHOVsRUnyGT/nyl7s6jyHboza4NSNR1vVNhmRmn7gklM3TnriQMmVKUxTXxv29Wzrq93SswGfm8vHuE7kcvlLeeP7sbyV7VS+YLs3FxR25d/uzFunBnfk37scOdM8jcKoPBziGRTFUj7S8GaO8XyUQLmMyWgMRWGiqLIUixQUTRkIDNBIj4SM7NorUiOMnTId1w+jMDiAmTc55+kb6RJC8ab6cN+pDZgYiUxkLtKRhdG0S2Y3S+gLcRGA3MDIURhzgbf1s0gBIIAJCNqjC7JKqX0HTASmk2v3Xxub78jncm9LQF+Xl6p+dDZ2PLMr42pGpPznksx4psaj14/E4p8sxK57d8bO9+RdOVvTGQ4u/7FoQNSnvkQg/dpkK/qkbzLb2JkMRdz6dMwY7Y7Zla3zRegiMlKwU9XTP13JXuhLlLIAxAE7x5bISxaksJOJzujVzmbsrk9ys1Hpl804e+XYEuFEQ1kVXZILvthOf8oaSzkRQUV7+tMmJwIXplHliLs25I33xzOTemEs5seTqPnMdfdgvsNq70DsvW5vc8sszLye7bIQdXEhU8a8VHD6qXyC/sF8K98zSaiT+achRnPxIq98zGzPed7No3FqKF8aPXUgnn7q6dizb/n5SopAMED0ndKQmNEo1+7WOucpBpkoi5IRjKIBC8Asu1Mu4iI5wwKEc66PMq7fUiGG4RjsNqAqo+qDYQABYcjkHDnLaZRDIRflA4e2tQtUQIaUxmJebRzOl6EKaOoBhnL6MW7f9e+3TV/AoK7x+QQ07SOT82evGYuje47F+P688+hX+exrPijRuZApbD6oPL0t5b81n6X9yq7Ym7e7bdr86l8J1662tEtPdIxAZOUQyFJApA/jFdHIwF4XsyEjvRibsdrLztpHTOfp2Lnqmx3d/mfTL3uyU6XeRZr6JKe0lfwiIlJqy7ic46w5Vjo3lqGcwhgj/OibzZQbTufMIZO7orr+OQkYKAdE76ZOTzz0RHQc6Yi9C7kY9WQ6q5dycW8iw2lOs+cG8qXc+/JFAh/Khwjuno7Ba/PtHpuXXxpwMbqrMusmKqG9mvLwQ/lSsv/3bPT9MD3/oXyIO//lemGTgmVSGBO78w8I7cs7cnpfiq4bumLr4Ktv3KMERqcsAKU4v03weXlAQkpgYghGpkgGBiy/EYjiGcbNDq6nMSBlS30onJLV5y0Z8zOf+UxjROAAFAZ1nBEZjVeXFkmbbOqTAwB8MqqywIbcZLK5DCCyO6+cvvWLsEBgvNrg9YHXmO3aMUZ6QGTA0j7ZEL2cFH2Igtowbtu2Xfnay48NxPit4zH2x2MxN5akOJc3k+S91juy/827ciqRdyJVVGgqtfxnbJyWtulDqke3dGJcwI2cSGo8QGt8ZTe6XmvTp91YbDBTDom9jE3/yliX0Ca9Kcf+9KJv5cimrHN2ctnUVUZ7DzzwQPMdsWGEQ7PmwIGyr4VBBKV/v43TuGRXdO+c72zhuzadb7W3Y6Lvnl25IvzYeLxw/3BsntwSe5/Nvwf78pNj5EraxvTGdLwPjMahw7lCfe9E7LsjX2Kw69L+fOO6idq84OxUGvX/ORXX33dD9J1cfmWi+RMhbVKwnSd2xpYT+abCgfxzDDefii2blvN6511fLEIhG6ICilVbRkG8mtNSHm/p4WAGrI2CXc4RYYCG8s1B1Ec6RgV4YLFYRMnK1hMrIiejmSMpb0HKS9XIwbD6BxqG9x2Rap7MmLy/vpCfQcljIwsjI695sXmSPuyIqH074AMWmRy3kVc6Z56MMHSz1o0C+uvrc9thb+zet5wlNI1c4n/aoSM70to4QvrkbEwxjAnIgZmsHI+xq+ucvXUrUhWx2JDNOa7KXvRl/KYMSKotJJQlSX/pVzQcSh3QkbaQlmz0Bws+bXRMZ/TOmf3FX/zFK9ewkZ3j5cj1Y/rFISO5TEuf+jE2zgQu3U5KZlMocnAknJWyg/353PTxm+KWx26L/Yv7MzBZWEsH8vIagfWBzbP5MMXjO+PpsaficD45tmFj/oHmnUnU16qpkX2t/9a16msQY/k426EHDkb8D3l71fM5iZ9djqIrO0zzpfh540Df2bjvU/8S3Z/IW8Nu3hO79iwvyQMGZVEIUDAOY4ocFOs3xfOMPKT7hRlKFKgnZRBIOkLhPB4PipBALjozvp2x7TUfonhAUwcRpdqiMCMzhminTecYyHFyMprUWypGTn1wLoDL2PoCKGW1IToDZ6XCzpVsCKiNSs2MFzGMEYkRwnmyih5v5kZOtuY4EINDMxb6cozu6JmM9GP8bFkbEimrDodIXzbljI0+kcbY1aO32vSNMHQGD/ToPMcHBzDR4DCdaN1U4jwcOM5ZcxycL9k4BhHXccTmtOEEgTl6+hXVyUJu8rml1HHtGG+NB05P/fpU3PJfb42bn3hv88RSEbTkr0+XxhbyucOTHzkW/V/vixv+2xuax0Pr/IU+1xVRgXh6Iv90/cHRuPp4/h2Vc2u/MhFJkbV7Kf+WR948PjedNzksLIMYAeyUUIAguN8iik9AEKkYxo5ItRglujG68y7RUCTDuM3Mca+RHM6UE6CAidIBAgkQQtuitLLqiXyOMTjj+O6yAeJom4FFAIQBCOfVBUTyAwQHoh99iMQA4hPwyD2UjgIYtGkDfs5KHWAEOuPWjkgDMM6vjFZN5Tf4P33SnZ18xopYnIydvEBLL0iHQM7TD5I5Z1cOZtiPDpShP7/ZY7WxOaZP5elLtsVBWjQqO9Ap/SJzRWY24CDJIhLWGPQnE6JTtmHjGpOyyiGt4+SCKX06rn/HjYGd7b2T+ZjcXGYUSdPzbWJs73xedjuSTza9tPxCd0/WaPditvURNReRZifyWcdc4e2azaZyuoCQ59s25ALHptP5d1wm8u0DHcuXYiikgEBwyuDlKFSqRVn1hgZKBA7XJSmbshiJh0RqHltU4wVFKW1Jg6SaZTxpjwgJcENJGIb3W2RGUuUqIpCnCO6YsiL3d77znQYE5AIO/SAWMkrVgceO2AAjEzAeY9VvgRMAjanSSm0AuPLSL8BHUjJcrFHPp//1njNOsgOtcdCVKGucPk0D6Mc4lKMvmYB0lb2QwnHOjeMxLm2ebzNufSmrLsfMKbK5mxNsbMB2HBuZtI1QbKYODMig9G9KQ+/sY9XW1EZZfwiM/LAAFzBEdv0rW+Q0Nk5CnZ4kak/+XVpB6ELYl+v2nMpH+E4sLyDmNYjzDfs159ZFVML7+yYL03kZJu85vSjfkDzums1l7nNZOokNlJRZBvSdQbRN2SILBSEuxUihgILhKVEaRbkiEpJQIkMyHIBrx2/H1dcWI/PudZshIvH4PjmF1UhBFu3pC7HMg8hsrkYO7WqTDGQBWn2SlQyIp34B1DgB1E4u46iIDVjSaGNQfjV5XmPFt+AHu5ETYemM/BadpKciEDs5XtfGkVQEZQt6M35tXOyGLPoqfcjA6JvOisj0VSSlV8fJIFKyB2Irw/kVUclCVjqWBrMzQhsbjCE+XLCv7MA42RPaXe3onE8sL2ZfOZDzhygjzXpTmXVOZoKcdZt2UsaL2dZFVMroyntNN27NJe98sfZFbek8Z7fmfax9OedZzNXgVDgw18Z4dmmJ6IhUlIwclOgccli5ZSgK1AZvypCIIgXi1SsyIpe6lKy8R5MYC9mkyozkUSYgQDLjUt6njUIZEwCd5zTMkfQ7/PJSPlAgpn1oaKhpnzzGRk5jMJ/VB8JKwYBENmCcAPXJT36yAbC+ZA0yBKk6WbVV8pSu3qpPjgV4jYkOyMs+xkpvsgzjJLPFIHqnAzZxvBypKFmEpb/zbUUU/bAvx4psbGHTh6hJ9/BBn2RUXr/I+rWvfa1xipU21zhkXtqv2wYrAIi2pkTs77zP2uETO+d787pxzj0vTFLF8w829+UC66b8cxz50P6Fxtyqj/URtTP/XsnWnK/csD1me+di41QSKb3L+VKAxc6MirtyDrAjb2zetnxtC6EQkDGlFIwg5UVGkcgNCIwgFbSqCuheYMZDA7LI6G4jQHEx251E9YeFAIOhXHdFDARhTCt9SMJjAgvQUL4nLrTFmwIdwzC4u15EDOmr/hxjyL/7u79ryGm18gtf+EIzl+WNjac2RjY22QFiGxfSkUcE0p+dLIwHQPqzcyaiK5mB71KMW/1f7k/k5LRqwY8u2EFEojdytm6cFwfH8VgYVF85JEAKJGKD822cAd3RB3zce++9TSqtLzZCSG1LY5FX2+z5/7d35092XNd9wO9gdsxgx2AjCI5AUCJNrdZCy7JoJmIklSVHsS05jsvxD06Vqlz+G+JK5bf8kFR+d35KybbKVa6SqiRbEmVZliVHpmiSEkXSXEQOCRIgCAxmXzAbcj79cMDG45vBADMAMeS7Uz39Xvddzj3n+z3n3tv9uk1DENtwl4xkthDp8T5kShnk+fM///PKuSM0W8MNElvr4Fzgjs3Uqyzn8Pq+18uF/oUK84i4GvYb52Ld5cRC6b47LlXF6vy12HJDq74U5B0aZ5+PH03/95Pl0N/HEw3Oe/wJcd8QmZAeFxqXusvLAy+Vh37jW2XfR/aVQ8OHKg8rotkMSxgsIxfl2ABWhAEIipIPoYCfoQBc1CEPACA2oxmqIJvbyhiKYigYcTgHZDEkk0f9iOR2RdGSQwA85LcYwVFom7Hkl5BRXaJ4glVbnEGdqOSSD0BFVWAzUtA3pCS7PgAs58O5yE9WuiAbWeXhrJynr5uRyCFy0jUyGJ0AKnk4N33QX3rJobBz9aT/9MMeHDE96Ju943SlDn3XR5/1Tzn5c0jNFtoTMVMHypPHOTKyO7yQVR2Osz3ywgqSG0Vx0hyIQMBZ+EzPZPEdxhCRjIiqT87TBZ1otxq9PRtvc/jakfKeR+PN4yUeNhB/zSu/jgXCy6nDr5aZz0yVA78/VI5/6s6qzrqeVvusDxuyNuB7AuHuw7vKq796soyfjCfAx70B26fjOuJl74Km4UnimurZrjPxysWnykT/RHVRWGcZgxIoCigpgnczbLIoRFFWeBEYSJBJOUMqZRkH6J3zOBZkUlZ9zjG0pIwkL7JoJ2/ilt+GgNrjlRFZ/YyB+M7zyGTVBqDknEs7ooW85kycBUAlmdRD2UAiL8AAgqEbubRpy9GEeoHRXr+1B6zaUFfO95qjkHPqAzDvBVqJVfXOrks3/oedUp5KEVf5B4xk1ie6BdKq3qifbnLTT7ohy2oRwnHnbcitX/SnbhudaMNnkZPjUq/+cGpsjkDK6QPCw4i+Iqnv5NUOuyIhR0DHjilL59rUB/XQvXbgRF594Jy1qTwsOOackZOy6rHBgHyVg7g4V54beC7uQArnNR0kjz/EbISpBvZdW42r5WXyQ5Ol9+Ohg+E3rrNfxQzVac58Q0RVC8G91uLQ/YfK+QtxC9r+s6X7yXiA8Zm4aD4f9/F6Ct6u+XgpVCz6HD1bxnvilXYX4rUBs437a3VWp3lRSqQYygZctwFSJEKJNj4zFMFFLsY0lLHyhwS+I6LzwzFU9F39jAgkFK8dYNGW49rSB0ZXNwAa8vhpHIICgTofiKFWRhB5GJvxbYzKeMBjU7ehtTzaAEDOARGRzqWerEOfgNOGGOTVHmJoT/36oZw8QA28Ig+HIE86Os9QOn9ytEw8G3P3l2PNYCaAEtfVu4fj4dfvjjud7jhURT35W5GKrNqne+2Tg3zy6mMO/chOj47R67UkbSujvM90Tv+S/pkn0lPqFwbYzW9Htc8ebCVlebrJ/ojqhqv2yEinaV/1ypfXThHVNESAUBdik43TMIrKvltDMES2kRdm2Nj5iel4F8+xuNa+N5zNTCxInorH3Twf19EXYt0m/hb649bJI/Gb1xjy7vjtgbL3vljFP3Rtv7Qh04aJSmFdPfH09A/Eawr3RXi/81Q5/0+xePN0PHluLFZbO2Ip+9h0/MIj3g95b/xwevz28tS3nqwUrsOVENF5Rtd5ShVNDF0MURgMYBiIAoGJsmwMpLwyyC7iyAPcorBrooDN2AyWxhB55Udo7aorvTLgOzcS8yGXdBxXnzyMr03ngYq8QE0G9XAmjMojA7x+MKZoiMDIZQgGQMoAjU0f1akMUgOOyxr6DdDqBVKbhRD10w9dAFtfb9zG+HpE7J/F0xX/KV7m/Ei8buFf47LHeAzND0RkfW+8Ne1X4ub+T8YP5e+KZxjHe2l7+hr3vCY5yUlH+qNubbOPNs3LjSbIQu5MqUP7+md6Va9j9r7bMp9j9KpNm0TH2kYcq7N0ZeTABhYK5UNQZdNh2rMJmZwnM91aQxi+5Kg5HPNUNkh9uu9bneqDnaxD5PaZnBw/Yptq6HfKr4zjdGM/f2G+HPvQsXLnu4/HTbO95fxPz5X574fzjle7iKTz++IXRe+PN839m3iDwofCee+98ukhqcu19hzVhuaozZXroA5MT8YwbiqurU3GPZpBYo+m3LknrpvFBBpxvvnNb1bApRTzAR6aEg05fQc+yuHhGFBkQ0ACG4LYA5VzDAHciERx6mQIK4+Ioj2LBDl8Miex8MM7qlcd2mJoBPDbVfWYlwALI7vu6gfEGSW1BTA25fSbE7AxJLABonzOSa77Iqm2HM8NUJTLiJDkJYN+JcA4BedEV2WA2nkOYndnRO5H48kT34h3vTwclyhKDPmqv4aF3Gs9uTOG5fedLINf2F5O/MaJsuu2uOkkHAOHQ/fI6TNAIgDngJz0neTUl9zk03/9zU19uSUR7fOz/An47HfuHWdjDpIN83eeCEM+ZR3nOMjGuaVTJTv7GrUgKTvJJ6kXBtxymo7f6jrbcoamKupmA3WQX9v6Tuf0T+dGbtqDKTqHOyMvjtuQ2WJg2mVqNN5NE/e/s5efIW7fGfd8x33WbJ52blhm/f83laiarQy58oZBHctXzBGSUiie0kQfipHsddpqr2GH4eGf/MmfVABCIGQGGuBUFqHkQzj3YlKW1d6/+Iu/KF/+8perV1AgIUJzDN+PR7cgPqLaM6abFryfhNf06FCKZhCLSYZPwMCYVgmBQD4rsIZOwKI/gACo5Ecu0dAtavpoGA8kAGZOrX4b4OsrwwMBOW3yAYFznBHw0CedaQMgM6L67o1gE2PxFrOvzpd7nr63HBsbLtsXGg/ZQtRM5ktssK13W/nFR58r2/84flx+10oVNQBRexzkcEQh/SJjOg9t6xuyAW7liMNJ6KvNd+eSrOQlu/7on41zys+O63+ClqNDUDcZqB9JMorJQ79kSKdlZGKlXJ3I5Lxz5HXZjW1Td86Rz9TI3shAe66TsqtFJ7bklOEi7a0N0VydhuJWiJGbbtRNfnvOkrxGbs5Jdfz7DiN1/Dt2PWnTiXo1IRJ4AM0jAR7FADVFJWCBhYEo2zVO0YjhlLMy6/m7DMQzIhVFG/oyNpI7hsQMg9RWA3lZhkznoD3KlgeQKBtJGdQ5BmFg9TKY9uVRD6AYZgELY/CwHAoQAa1z+uq7/hlqmVOqM/ulb9rO76k75ZIs9rkBjvwZpWan42b5l+Jp//87bkk8GcOqpXiQeSxkWHVvTojb1dFVzu04W575/RjSfzxetLSv8ZtOzgHwtJP2IVNuzXWlPLknF93kpq4EtDyO1/f0xYEhaA4xOSkjKQ4jRw31drPfnAOHxcmLgPb0yA5GUfYcOpnggzM3pxcJ2U3+vGLA+csPO8gGS0YVRnaG33ACj5y9z+RlW9jgTETv1Rb26rJvxudNmaNeiyCMlIBHEkCmUMoWhRgLoCkGiRmckRAGcEQAyqR4Cwx5njFEBgqUx+8Y7SVgQERtq4OB1IlsgDESwy1kcnz40twGsORXTp1WoAGE7GRVJ5kAWz5GJH/KwEkgJdKL0voKjIgujzoYnWNBPP0lky0/28ujDSnBrj0J+Tri4YT75w6UwaVYnLm82lidvuKfqLp8MRY64qn5F07Hr07OxztK4xo4QGsj26IfqU6+jCD67nM96vsub8rmc24pZwqiH/qdzo99tI1AHJm9upVvTtqxsQfy0LW60rnTKUdJl5yxBFtWbOVDXvJrm6zDYWdTJOck9lM/PZAz7cJe8OjyHLnoRxvkFDzIrN4bnW58C6v0gIIYSccpjhJ0mKIonCJ4Osd8F0mV4VEp0jwTeUQyw2WKdm8mQxqm8qQIom6JspVjDORkAJGSh0UixzMBWIKMXAgm0pKBd1UPuRDXMFwfHEN8xuNEMipoX91kEUXUxyE4z8jK2lIX9sgKKAmWJFHmyTIX4za0lYV4HMtK/KIm/q6WLG7I1zUfeS/EXTKX2kr907l+kZcD1G8E8NnmnLy59zn1tFbb7KYP9Mwp61euMdCDSMYea9VHvwhCh5ykOukaUdmc84YFNk1yKsNmnKU+KaM/hruwA1/KmKcqJ28SFV7SaXLi6lJWHeR0jv4cvxnpLSGqzvKICEVRoqg9Y1EAT8grGlpISUSfgQnAH3zwweozTwc4FGYYorzPiJte0nyU4gEcuRiVoShaWwDpu/OIy6iMj1QSw6gDwchiyKUMoyqvHHJyAPrinLJA7HMO50R9owR18+jkVbe82Qe6sWX9CRayas92mcQRTv0CadvFN0egSvAW/0Thbe5NjUBCviSkPSDayEIHPtvbkkTK5Nai+jcdYgvyIpd5ITLov7kdnWkj9fymwrUDSKqOkRj90L+pDZvCA52Qn1wwZeGIzFb3tYHM8plekcdclj3lSSwKBgirLnZhM22qzzm2V1Y7ysEJ50tX6re/kenG1t5Ccp2lAACnAACkFHM6k3tDIPMFeUziKdiKmmjJUMDOq9p4Op5QXsrze0J1Uab5ynCQgfHMN3J4rQ6G9h2pEB6Q1IPE6gck9QFRPSEPJ6Es2VwCeuCBB6p8DKc/DJ9RlewSIIocPDniAavkmDbqJHRef3KhhmyOqVc+dSW5V1Yaz+VxCaxaMAoS2q+WDJhF1b598RvOfY1ry9pJ3dCVuoHORg82/dYXOrElWH1OWbSpfHMiM92kUxY9TSXYO/XTXKb5O8xwukiKbIhk077j9Ml2onQ6Ybq2Uk932mdXmwCA5PKK8LAgaJDHHUyISlYr/cqawoi8HDTSGzU5btguSPiuH/Y3Mt30xSTAswpnhVYUZTjKoDhGpwRgZByKpDhv30YQhKNswHEJBLEpiYc032AwwKBQHtOQx3f3/TKQ+i1gfT9WgA2P/uiP/qgyTi4iGMaSywpyXk6hfLJwDDyoiAgc6kIy78AxEkAk/SEfsDCu9oFaH5J4HIVrg+QguyG1PMpLCOK4PtqSKPk9ZQGU06dOl7FXxsod//d4uePZuN4369X0rYkqkvrN5GTHeLnwP+bLjt+JW/biKQPIpW2jArbhJOzN5Wzs4ruNLrWv7+QkUy7+NX/WJ2Xog15EJAQVfZLwrYhdKaHpH51ZDKRDiz8cHKeIYOQx/2QDsrChzxYU7Z3XB3bVH22qj3OyR3iRF3n1SR4r0GwNi2zBfuygrDzqhAE4tk7i/nIjhPX2p6l76/p6QyKqjqTxCc+wyKfDoqDLJTpKkRTAcJRNocjmHIMiIGVRGmA67rtzhlFAjpSIDhiAZG5qSMQAwAGAlMj7AQzZ/IJf5AYuBJQAlJw89veDyOkpGQogeHN51Kl+eXlj11kRXX7A1EcA0BYia88GpMrQx3BEevXIrz31GQlwRnShL7YEhTq1rc4kjHqO3XGsDB8bLpNn4z7c7rhP9Zm4Z3Yybr2r4uYbhEVSkXayM56N+/Fz5dD74ska3lcb17UTXGkvOqQzerb5rm0y+Fzf0rnYc050mRHaXh8QVd/0i15yPYBeHdNHG93YfE5Hra8cGpv6DCv0pQ5y5wovO8KOfI5x0myiHnJw8GyB4PKRA4ZgR53k5gj0W/RlL9jSZ2VhL21E5uyDzwIGe3LK7KdN9aRu0uap53WxskWmTSWqDlagiqc3zM+Gd459Z1dEnv7e6sIvJYlIOqdTjEVRCUqdQl6dTSPykq5LikKOI6WEiBaUDF8pmgNAKImiyEFZ6mQUQOKFGcdQ2jCHLOrXlvwMTi6k5FWd40AMhZKkKW+CmAOQHzByZREJ5ScXmXwGVnnUqd/kog+RXfvK6pv6nVM/725Ih6DAYaMrgNOGvvv+wtQLZXoufp85Hzd+PBMReSEIGH+Z3Mo21x/PNb4rHlL24FLpe1dcjultzOkyD92m3vNY7umxviVZk8z2+khWDpQ+EEt/yEmnyiCBNvSP3Gljn3OjG5+1h1AurbEbMtCRsuwEJzl1QEZ1i5JGMuyN8GTg3PPSXN1pKk9/dIyIHIK8HIFhM5zITxZ1IrrPKTs51cERKcvxn7jzRNXuzORM9ehc5OwOPffFTQ9eH6Ls9RJ2U4iqQ0g5/Xr8tvTliCqvxKWG0fDG8eLcbd2xUBKvXdg2FO9/ib/HfvZY9YDigSONC+KpAHUAKeUxLqMjEmMimXMMw+gUhqTmoTqOSIzlPCNRuGGx4Y9jSEyxzlEW4zgONAiqPhtZtA9sNg4CYER0Q2vDZ9+B0l5eZEOglJFnBVDtAI65OKIBl77Ya9teAnJAJDNZRGZycDbaIas2yJrktFeHPkmH7z1SRheifG/crnlwuiyfixvU47LNRQtGscC70h+rrofi8aG/Hvez3hdDxAONd7FWhdfxT9u25kQH6VD0Vf/YB6n0wZ6M8umbvPqVhEnCI5Q8ztGDfBwa27KDc+pOG9GRz8rLn3NU5HJOYg/HzS0RUX36QG/mo2xJRs6A7Nry3TkkR3xyKYeoPutDyqJf7KC9F597sTzc+XC5ePJi2X9xf5k/FT8SmPMA7hgq98eq/95Y7xiOm0DiZnzPU/YIllb6bNZv/fumzFH9UuPV518pL/7NSNn27Xg/x2Nx48K5mGTHX+XNy1w5c9vp8tMDj5cfzvywrNy7Uu557z1VVEzPhkSAKQoBp413YygGsHCjc0jj3Oc///mKeBSKDBTIqyGtVT/kcReRyIuoFqiUt7LHgEiG3CIeow0HqADI9VfnRT/tiHiM9Ad/8AfVKrQhkHMMDizKqJNcgMaBpOenaGDSJ5GXHICsDkO0jDRkcLeMYTTAAAB5gEbfyZpErxuv/lk7U5NxO+Cro2X0uXii/uvxY4T5uIw0GJeXbuuP3wzvKYePNZ4Xda0gqbeTn/UbcHM0w6mS0UIandOPvqyW6iRVB8KYSnzlK1+pFvbM/dg4dZwy0zFbZ8QcieitvOEux50jFuQ0KnKbKKK5aUakpEtlJfKzC/woBy+SGyIsLmoTPu31R1n95njZzP6FX7xQnv3xs2Xg9EC5v+/+8uHpj5adr0QwWQxsxN9CZ6xP7I6f9d0XT978zzvL4fviJ3SH9112slWD6/i34YhK8MX5WFl7NF5x+DfxYOjH4lUDE/Fbz9rQC2H7Tscvac7EzewDM+Xkx1+qFCNK2iiCoZCLEinE5RKGFtUck4+ndcxnhOQBKYzhhgPY6snhJ+IwPBKKrADPGOmVzT0QJgnguPIZEcxrGZKBrCb7zPOKlD4jkbZ4VHUzmvYAB2gcl5fs8nEU2uAEyCZKAjVnwNnY6xsd+GyBg9zqUcdaoGdneXbtbvwmdPfB3dWzloHakwQMu7YPxlrANTxM62rYYQtkAGi2ozuOkk7JfDV5EVVf6U1UNIJCOE5QHRbp/GpKv+SlLxtnbi8/XZKDjemWw9Rn9jFKgRFOVhBwnl6ltLXynCc8mZPCB1so77vpCnwjMlnVBXPsChfqGxwYLMfLneXQa4fL3XP3liMX48XYjXtGqrb6lmNFeCweoP7dwfLK4ZdKx/a4JBY/iOg73BgNVZnW8W9DRNUJ79k491LcNP31i+XAUwfjzpf4xX0QpyZrUDaGACtd8dzTY/GMmW3l72P+iryUbIjCyJQtalKEYY5zoinlMAojICQliThutEc2pDYsBQyAYSjDEiRgEOUZm/ERyDGRlJEATduAYq6BcJ/5zGeqPeMyGCKTCTj0lzGBxfK979rhdQ13AVRUlBfR1SGROckqj5VJ9xgDIIOLHubN7jmlD3MeDghQlLsa6NPO+uJ9p8hJV+RTtnNbLOZ1vnHjf+a/3n3qy55+RKz6KGM1edkmRzFIhJjsoY8cJEf42c9+ttIlvbKtpB/6Y0si0j+90x0HoR7nOFW6ZTOXZ8jnHH2yN5uyj7bomc05UU7WqMDtg7CiPzZl2UHdytSjKbv2d8Q1+LkT5cRs6GB5KEaQdeRf0nBMQfrjHuyhbxwss4sxTYpH5u472Hgg3qUcV91tiKgUNz0ej+V46nTZ/kgskozGhf54ymDztbz8HlfjysGVCP1jMZyYD1B1N25M12HEpEwJgH0WeRCNgpGV58v5H/KJOEiL5EjhPAIa4gB+ekgkR2JgoHwAQBDe0zmA0xd1qxNwyOQYwpHNvb7qQDTGBaT07jwugwKBzcJXRhXH5cvVSp6ZIxmOEYAEuPoI3GQDCvKNRGQGHKAy7wU4RLxaUg/dbGZCFDogO1voC5npwRAeYbK/9XbpT985H6TMqKQuelGWrEjAvmyYkYyOmvsrH32JljDCBmzGlsrDjHPwgHyGuzCR5NQ+WwkAkqEu2cmSIwOy0aH6yE6G3LTvPJlhiywDMwPl8NyRcjheZxHr19Xvr+s6yM/uwd5zJp4H/VjcuPLRuPvsk/HTt3Cq600bsmiluMl4z+kL58vxs3fFkwXfTNK6ICJrd0TWneO7ytxMvPF6W2MBRx5KpBzGBU6AQAzezXFRltJtPos+wwF2SmUIxPKZUhnJPEle9fgROLAwBsAgN+BrB7EZJA3GaFmXPfAgq0UJ+YAB4dXPa/vO06rfUMixkSBZ5gdgx9PwAKhP6iQDTw745CQ/8AMfInBU6nIcqIHD55uZkJQs5KcrINcHzoNToQt6yiQ/XNAV/SpHR/QO5MoilqkDXYtQhp/sTqf6z27NSb3q5FyNfthL+/RBh5ytNuTxSyWX9hA5Zcuy8qSDgRP10jGskY2TZzMJEWGLU5AQFL60yXYz0/Gzyum43h3R0q2Z1mPWSr0RqHpOxSW7k43LgTeNqBdX4tEfMT9dGI/LMJcembiWoM55rKiHoFHcymJj1dBxCgBye8BARopmUGBwznFGp6i88wgYAFpkdBwIctiiDsqlfI6A4pEGKdTHSEhhz6AIB4xAyGhkUR6x3c7oHKMBF8Boh9GdT7KlR+YUkFc7+pr59IfHJyegOg9o6gQW9QNH9oNMogQgaw+IyKSvNzJlNKRfMuifPZ26Jowk6TjIjJzk1n/9pWf6RgzH9VW/EUw5+Z1TrzKmJRzYaiRVH/3Qu/w5rVDecdigE2Rnb3ZlU/3QPtywn+8I6jxccSTysY+y7KMebahT/23q8N1xeCG/z53x6FuPDL16Mq4MnE3EL5TGomzoTD3rteOGImq0Wz2btwRh15sQ1ZNFqxvK46ZyCfAoiwERioelHGQEYtc8GXAkPB+SUVqSMEHrmI4zoGNIpk7ANgx+6KGHKoOqRztZhzmOvOa7rrc57s4kYOQ1KdLeMIonT2MzPAeBwOlIkFubQGdPdmUY1btskNKWMqsbcG36q2/KuM7MWSR4tSlCK0snwKSOG5WSpOZw9EJOEd0agn2CK8mJRAhjWMnhsIPpAwemD/Zkp2d1c2BWZNmaM3YDSkaxVn3SjpsZOD+2sCZhWqA8XZijksH81EjLQiRHpy3kolNzYthgLw5PQlKrvhIccCTKJBk5F32R2DOJlY5Jvu54+LaAtZ7EtVpkXQ4ORGWX61tP2Q1Zu6MzhrL9cY1ob9w7uq3FJLqFBBeDpbODc2Vl+0r1Q+ZUAC/MyIZWAMs4lskRBzgoXGSxp1CrwfIBDYVZ0EBAxgQYREYATw9rzgAAQABJREFU9fPslIsMAMGj8t6MzRvL6zjCIQTPap4IFJmQkNcFSEBDJLIAXBJQW8o4R8ac76pTXoQTlYBI/QDjs/bVAXTaUYe+IorIJR+QAKuRg7zKA/5mJ3rSPzocCcdINvqw0RF9J5H1hcNiN58lZMjIKb/+pGNiU+RCfnXQk8jWKorW+yXyqp+dkSdXc9mDHckIN+qhK/pLktI5MrKttuibLeCNQ9RPuqxHd+fk0R6ZpSQpG2cQYIeFgbgM1r0+7Jv6Le6Nh9UPNX7FlQ6v3tfVPm+IqIQe3BuLK/fENcejsUjyYtwWtspLoqrORghe2BYPhNo3XjoGOsrcQjywOR6ARlE8MKVSvu8URGEUb3EGgCjbeca2uOPZvoAsylgYoEyGZACRTFRUhkf1mWdXDwWpF4gAACkQgHGRiqGRXH4gkBhHXTbG9RwmjiENSg73i2a9jKgObdhr00IJGbUpGuuX/ElGQNN3Zezpg+zKqkM/tZ19A/TNImvKpX6bCCVSIZ0+04k8opDzdMbx6SfbcUr0QXbHbDmyoT/25FitqrIrx8oxIfNqfVCGrqzw0oPvMIecWRYWkJQdXNIiKxtrC0E5UrqEC3Vw5MoYQstDZnKqg61t8iqjDz7byEhuZTkmDspQdmZHTKl6IxDEX5ReYzEpHhIe9xMsHJsv/XFnGD3dNKISfiCeB3Po7oPlpU+8XKbHpsrgmYgQ8SfpSMxKqz/3n872xIrd0Kvl3N64l7cnLl1EQCBsGiTJ4hgF5vATOHhCwGQoAGcsCpTPsdwogBGAXASSB8gMl+wtOohUDMIY9sCClMApv0ssQIpEormoDjCACRDkYywGBlDyAzEjKpMGtlePdpFL/QinPRtjqxvo9VE+8juX4CKfKG5UkIDWtva0i0gInuc4G0BNmRynm4xqlWFq/+Qnl/YB115++qVv7SewAVVeeqADOqtv+pty1JqoZFc3gpONTtWNVOppTvomn357DE7ecmqYrAzHoD/koldOj87I7Dv7GxWQkx5EebLpK52PxEhBtFQfJ6lOdk+7+azf+qI8m6vLRgfk07401xcvqg5MD+6OgDV+sHrTewP3V/bKZZuzd58ti7+2UHbfEz827762GHltua9su1Jy9VzfI3vKqQcDbC+Ol4vzMT+ZiJXA+IuF7YqqSDq/fb6M3Xa+nLk7fpw7FMOFzsYDpXSY0gxBDYmAhJEAHlERS6SiUEBmPODwjCMKBSz5gdVxgEjAUyzDAIahDUPI65h6kUgZ5GBMpBkeHq6uc7pDKec0SGqTtKO+lNPChfaA0NxaX9Qh8mvPOd5f/wBEf82hABUAUhbk41yc55T0X/tkRFrneH31ATf5kYaObNryrlp9nh6LXx3Nxu1u8b0zANG3o68M7Irb1+LGhyRSEl0dZAduutE2eemFc6DPdBSArh2y1SMtXayWAF0dealJJNV3epTUaSOPzWdlEA3p8i4z6xT0wDGTS/9toqTvsEA/NpEUca1NcKT06Ly62Vgf6FUEVied04uNDPRAj2ye0ZOt5LNJiCyfN7qPvft8OV1Ole5n4ocUr8V6y0pcgYg/CWmXOuPJhftmytSnJsrOB+MmmTtXH0VUhVr82xBR1Qc0Pf095cAvHygnv3iyTPZOlotPBKCX40LzcignfqHsNqqp4fBwH5krO+/ZWW5fvL1c7Ghcm6M4nWccRuCx1ElRFM5gQI8ASAnwwGpRwB7AGAcReVrGQB7DRPVRtkgNGAxmA0ZRWTn1Mqo2yQCgvoty5sHqtyEDj8372pCVYyET+RmcMdWpHvUBM4PaeO8EvfqVtyeXfElY/VWnukQM8srDUSWAAUr9dEH+ge3xJMW++J3kZDxt8JXJMvbCWFk8H79hvRA3iGyP1ycciB8bDMd7SOM2wt6d8QzcWFtQVwJ+5FKE0QZdkxcJ1E+vdMqZ0S8Sk8n3OkEBXKoTjmxJJvbUTyQnv/4lKQHeJj97kctepIQPZehcfvqxd56uYcCClfPqJZNRi2MWluiYfdStP3RpjQKB5XNOfc7TiT1Z2YBNtOc4ouu3+h0jI9kGd0Yk/ZVYjf9gPFvpsZky9lBMB+ejzZVYZELSmOrNDcaI5ePjZeend5WD74+nf+z1c8RrS5tyr68mdXbpQjwp7+xEGT89XmZH40L++bhgHE++698bEetIkORg/BYxFp+mZ6YrI/DkPBaPncNRSuRxKZ23pxyeVR4J4P3YG6AoWXmrtRaeANv7XxA1DUfxDK4ORhuOaIdU8uYQGgABUkTkHBgDqBD829/+dkWwP/zDP6yMD6BIAlgMz6OT0WKLPZnJ4zM5RE/t6g8Qqx9hgYTHBxwpAW4PGPqrfkAnq+NAyZE4r9/Oy7ct7rzfNxnvZH3qQBl6NC7/nAwHEe+hNaKpHoC+LYB3OF5H8aUzZf8DQZS98eCv2ca1XzpEUP1RFwDqf0416IHDk0+/61tdbjIBbhKOzKLoX//1X1c6pwt15nl4kdRHN/bI55o3Alpz+N3f/d3KMYiANmQhh7b8vlR79Et+jtUPMWAHCZGbw1Ev3TnHnmzv4e106Zz+6jeb2OAl7c8pwYb2jGi0oU3yIjN5hgNPtx+9vXKWc1PxruDX4n2xr4yXhem4cSKe/NizIx76vj8efXt76DFGNdXLoeL4taYNR9RskPDdfd1lz+G4IX9PPEArfk3T/DM3HaMc95zqPKXwWkAHDI75zGNRtAvXlG2uac/QgJ3DHQZgXKBAFJ8pEggYlEw2q30iNUMwFhkAkJHMR7UNCMohD5Jl1ERePzzXhvMMTQ6fOQsyqFfU1T9JfYwPHMojJYI5r00EA8YcgtmTF0DIK58yCK49dfHw9EJfSRpOw+fXHn6t9D8bv8o5Gc+8PTdUuhaYNVZn488QLO70LR2vxj3KX4s35M3FM6Luib7sbgxj1UF+BNI+veu/dumALGTST31OuyXh2JDORcjc2EGd5HaejMrLpw0kSeJl/RylMvIYuXiiB6dNB+yVm/rogkOkI7jIUZW6OHK2Vb9EXnLY9MmQVxnl1ZNywkf2Xz72Ugd7GTnpU8rtGHksDhoZwYM+ehB9384ISvGKl8ULjTucuntjRd/PPOMuJHpU7nrSpkXUeuOMQkEMSzACNgtJMcBqeOnxnwBoHkJZzlEUQ/FcEs+W3s3KHfJQDiWlF9UGEiDtcHg6+dVHFiAXWXl5oGBkeW0I504hHlR9CSIymauaJzEeEMhjMxQGchFPnQzvuDw+J1jJyvl4LiwgIXyCg7xAhRzIDUDyqBcoEsRJEOSgG3Xk0Gz8XMyd/6qUE0/dVW4fP1Z2LPnheC7kxQX1S38u3S30LJRXjr1cXvj8L8rSvYvVTfz0TAZtao8MaSvtai8JiES+27OxTZKfLegaaejUd7qwp196dV5em3bYhS1EKzqBB/Ubtlr8Y0NlMmlXVLMKrE56o1s2QOi0D91pA6kR1JMYHFNGH5VhH+fpHU6UZ/fUPTIa8WlPcCC/uhyXl/1FcvWSsU5Adqrrhiz189mfa9lvWkStN0ooBlor6QwjATXl6TBgUALw6KiIxJhAnkZHHsckCuT9EwSMj9iGtAxhWASE2nBcOfVq18ZAjK1NyhRBtJ1KRWbDJHkNrQGQnIwLHMojp3YZlfyOieA+A6BzhrtA5hxZ1atO0d3ogFyOAYm2GZ5O6FB5+/ycsul/57Y4vthZ7njtXeX2yXhbWTwytPk2NvMkfx3xALTtF+LZxc8NlZdOv1QW7owfrEZKXao3HQEA23zPvXz6ZKNDMqZMZCQvZ+g8PQKy4S77yJdyK6teoGejHCkoqx4jGg6aPuokJQeCGaHIOxwkZlMbe/iuzWzHcfo3YhIRyYJk2uTo9Ad+REQEhgFJObKxNaxJ+pBk1Bb7cib61SqtdrxV3vUea93SektfZ74EMU8HrEhoXkExCVCG4V0pkMIpmHJtopvnHdkzvHOUC/zAjlTqFiXdTYOoCS5e0AYg6kJMJOLRlUUkgJHIgoi8Oy/OiEkiRFXGecZjdN/NtRlRvQyKnECEkPotP7klMribhpMAFuCUR79tdEB2cpK/noBhoK+/TMVTHfaMxzW/6qkOImnrZOU9aBeD4O2lbyZ+aRJ1668+ksMmAbot+6lvIk2OMuRP52FPdsSjDwTSD/rVZ/XXk34kEXL6op10fsoZTnKejmfSdyTN0QlC+s5uiKYteiY3WYwAOE6/UkJUMsmLqPrDPuk09UdSBv70w5Y24XRgi205faM3droRZMz+ttrfdKICIo9GgS5+S+YNDMNIhppeNUGZf/qnf1qd/7M/+7PLwxfR9fd+7/cuR0EZGAIIgJv3dO3NDRH2vLPI6udrSMtAjEAOPyoGGAYGFkNjRnc+gQKgZHGTtyGuoRAgmT/7LOqn8bVjKK9uToInRlgkBjY3SSCE29UY28YJkFM7AAgM2k9i5l4/fQYojglQz8yfifFs3DsdC0cuhl0tiawWmAaX446hmDcBub6QH2ARCwDpYz0p5THcNX3hhFxKM8esJ/nohCNlHwt7+q6/2kMqpGcfx1P3WQfb0v1IrE6TUV6kcqkHdthUGxyb4wjtxhW21Uf6ZkO6TWKqO+XiPAy73RwBQ64osCU5tJk/PocN8r0V6YbMUVfrCMWIEFbsPG6T4QCFwewpiVGAURJNGVK59JaOUz5FpoEQn4EARv3qybYAgyESQDykiIZA2gISRuIxlXNZR3SXL72mfFZyAUzUAGygZDiy5jCOHAgkPfDAA9V5oCKLurXF8Lw+z6wPEkC5LQ7QHBNZyKxue2WVERXsySMtzsUc7JnR8v7/FY+JeT2eshh/yLhWEllf++NTZeD3B8pt74ub4AdioamjEUVzv1b5PKdPdEa/9mxheAnIzWSgH33k2JRja/2nLyMq/eT42IW+6o5CfuWMkgx7YUI+9szREOdH7xyYhUe2sk7BOWvHKIlMHGDWrV7tkosMdEx22FI/POV6BmfvuHoSE6mHm7W/qRGVVwV0SqcgxqV4wKc4kYeS5KM8c00K9uhOCgdQcweAZxiRlOIMaRBUOcbjOdVL+UCfDxCTh3GUdV55UQ9ByMU4ZAMW0Z1hJAY2jAUsw3CEIYcomA7DcSTSD8S36Yv6gUMd5AJa4FaeLPKoD8j0mbMxFdBv/UlSJon0l760jZjblyJa743Fu7G4ZrrInKsTVTSNq4WlZ29P2R73Z3sK4fUAj1ycLDuQlzz0pX90J9ED2fWLc6IfEUrfENVxx9Q1HA5PWbIkkdThHEeFMEjKThyo6Eg/7GWYyp50r3575xHZnmz1CJ1ywQJ9cwLkhBOyyZ92hh+Ed1wkZ8O3Kt1UogKmYYlhEqXzYIaclEsJiOMzEPjO+AzFYL7L6ztgmwsaOgMsEvN6SEHRSOg4AyiTROYItKkNxxBGvTYA0O73vve9SjblRYgED9JmFEA2+XlyBvfZcA94gAKoDKO0kZcDGD+dhDKAqj19AygOBogcN7fyax0k1n7KaO+7rYo8JW7jG4y7sd59tsydiXeqjBkAtx62ImlXRwwZ98Q6wNHeMhD3aNcBfC0A5GRELv2jE6ML5NN/RKPfBDsyaEdEQkZ90k8kZ8skSOq5Lgc7i450qYy87Ev/ykvsq23tsgcMcaqwAwd0lkkdZGYfTgIRBQty0b+6kd/in7xIyq5wU3cgWd/N3G86UZHDtrQU+zBYRwdwxe8CL65U3kt0M8yjBIqkaIZkKCmJySjy8NgUC8DyS0hDuZSN8JTK4yGqPEDMQPaMaL4oOvvOIEgISECELABGDoRjKJd+5NMOw0vApxw5tWlT1lybLNpWPyACL4dkQcte3Y6TSV9zQUk04Cyc42gQloenI+DIxag62CphLv1Dcnclnb0/Xro7EY+0eSLm2ufjMk/T+6kNh5e6lsrs3niS/C9PlKPvjucaxb2p10JUOs4+6xPZ6ZYzoycyOp9OKKOdkYpRB4eV0UofOS1OUx/pvZ60hURGJS6NiahugGATMsMCjClHl/ZsAQ+iH5KSLZP6yJWjJu2zP4yRi+04BTjjABDe8YzIWc9bud80olJG5Unj0SxT5yJ6nI+fCY3HU++74gfh++LBUh2z5Ylnnig//McfXgYhBTMeAzA04/tsKIRwSIscjpsHASbP7HqrOU0ajeKBxxCIBwQAQE9imAOTDzFFAkbgBBiZgYHKJr/5KS9uNRbxAETSNnAAI5BZBeaNOR3lAAPotAu85DCntdik7S996UtVv4AinRN9WfQQIdTtHNnpQH8Bj2Ogo1YeXbsupu//3P5ybjAeELYj7nv+8XIZnIlrlvGom7hPs1zsitXe3iDpgbjR4iPxUt7fjBHHexojjvUCj/z6zA5GMkBt4YcOyZa2p0NAt9cfDixvINEPukY6BMx7ftP5kkU9yrE7B20aYj1DPXTGocqPjHmMXAg2EsNr5awx0F+9PlFUm3DCfukYOWEYQmDn2ZLNLfAhMed/q6RNWUxKQ516NZ789qPnytm/i994PtxT9jwX97/G3+yvzpTnb3++/PO5H5fHn368AjSimUcANgUDtnsz1UWhFE95ErIwEhAwtqfTIUVGYYAHdo/cBBIRFFkQKfMAgKiKqI4hu7a0zdvaKyuaapvHRYScmwAcgCAkwyMY0AAGByEv8HIKmTgPK9hui/MYUddk9RlAyKB9oEdoAE7HQBd5EwivbtUy+5F11/fqGT8fz0H++Qvl5N/HnVffjsdbPhILKEvxvKaDcYPEh6ZL57+LR9R89j3l8O2HG06s840hYb2uVp/phi2MHjgQDyADZDbRNt1yKlbs9YfM+kl3HIzNcX208u28O4+SUNkmEiGoUYa2EMeN8xzrcDhv+ek5nZa2TRPYQlT36hOElkdSH1wY2dizDRupJ+USPTlTNuc8mnGTsr3V+00h6sJ8GOHhX5Txr0+U3h/ELzVejOHXTLxAaD7AGH/Lg/Fg5Z6z5YmVJ8o/d/24XHhwvtx1z13VKxlEEF6ZZ0M4RqdoCkc053hA55EUiYFFNEQc50U7YOLxLVIhJCM5z+szqDxZXj5tILu6AUr9Nnkl+ZH6u9/9bkWk3/qt36qGVNrlXHhy4EQidXEiyA2gor6RAJmA01AWMLSFjAgujyEysKsLqdVBB87JYwSgH/IBmWMJ0mbg0JsXG0+enSrTr8QF/bOxsLUUq+UDcUviUESieOD5noPx+9prePgzHQCyPiCQ9pGMoyE3fdKBc/qufwhcH9GQUz6RWORTFvGMptSvnDYQyeZSFT0YLvuFlD1957Qj+01P6mNvOlIne0tpG86FUyUrW7OdPnB62uaYySWicsDaSiyupuds/2bvNzz0BZC5ybky9k9jZfv34ikJz8QvK+bCk8Zf41JBfJoupTf+umMxo3NHZ3mi5/Gyvb/xKgsK4W0RhAIpkhENAzMiykOxDOY8T8uLinKAIZnT2ORjHEb3HSmVl09ZBmMMxHBeG4zEmEiUw1JlnGPMXFWUn1EBw3kABFJ1qiOjBsIDJAfgHB2R2XANedVnrz6ORJuiqDqBC3hcywMs9QMj2ZDEvlXSpl9y9G2Pufqh+PH04lKlC8eR07ZWVG6ukz30j9x0QHeIwGk4pw9kRRak0V990Ue61BdJXotP7KD94YiM9M8+CGq+Sad0gfQim7IZ/XL+W5dPnWTSPicpL135rD5E59CNlNiQ3OTLaEtefTOSgRW2Q3R5U+56e7fC5w0RlcK8Y2Y0nuvb+Y/xi4uRnaV3rrfql19tZELaWKuMx/0PlXuW7ymn5uLX9PEzICACZoYDQAbOjTIZ157CkcBnivWZ17QaCEAUDeiAwKsbYiKC+gEAUMhqyOM84iCuyKwMx8BI8jN2GouB3WCRdQAnIAKP9smMVNoCBPUDCbABhbbIB9wIpx/phPRDXsfI7rh85CEDoKmTw+IYkFW7ohUdtUrkJpNNf22OZX9alWl1jLPTJ31DJv0io/44J9KTj15Sd0YBdKjtbE9e5elZn9SDSMgtkjovP/vTp3z6zCG5waQVSVO2XHXmCJXRpvJ0r246cpzMbCYiy6MdeOCo5ZOHg9GPlLuVTt7qYxsiKsA3nuv7WrzGIn4dMtXw9q3uN0VcZB1aiZupR+MyzExEpZXG+z6AEWERkPHTw/oOpMCMpICHTJSPaHkLouO8KqMhhroAnnzIZb7jM0MwoMisvLuIAIl3dkyZurEYT2RT9qtf/WolV7bvmLrIYKhNZkSTeGoyACewAbBzRgHq5AAABqiAXj/JQw/2gOVuGIDSV+SUD3HI5zuAr5Xkq/dlrbx5jh7pW1+AniNB0Bx2I6/j5pBArk9Wq5sJlfWIWob9oqc+kRlB1I+ciEsfyCeaOm6UZP3CfJH+6onO5SEXx5fOgf44dQ6gTnYkzDq0AUdJZnuyZyStt3Mrfu78b5GuV7DFhZisn4q7Tv7x5XL4H+KxHfG8pLWSyLoSDzc703OmLB9dKv0H4zeB3Y3HmgAlb5ukZFQAYEwebziGTOYQlt6tzPpskclxBBOhgAopEIiBkAogAJuRRQGRSV4RT90MhqjyI6t26wBXBwKRi7EBlDNRJyOTUXnycyYSQgGO/NrXFrkAHdAAGYjIztMDKZDpv7YTwOoEcv1zDLGzTrLW5VxL7+s9p1/0QX7XEgGZnrWDHI6LZGSne+fqcugX+TI6Wuj5+te/XpGfDtSDsGlHutNHjk676rLoZkGHo6v3T710Z75sxZ0D5fDYklw5V7VGACP0VS8vn1tEORnOSHk4Yp+tkDa0mDQXw96TT54sT37lyfL+//PBeF5vDC/ib7Xk3IXOeB3E0E/K5L+fLIc+dajcfk/j1XwiYQ5PKDg3deXnVHx+ZzxKRwoGAHirhOYryJpJPkRFMnkYG+gzLy8vYvHiVnERo56UBQbzNeeQF3ABBTCAzXxJmwAAdIbljouI6bkB0QojQhreZbTWB+2TCzEN5ckB3NoEZJ+tZvuuf8DIgWxWoqNcadVHkQ3Yk0h0zBGSi63SGaZNyIFISXSjB8TPlVTRFyk4RFuOEOShF303InJpRP/q9apb+/qufrojG52LrHCDdNrgaNmnXl7f2AOZ2UMb+tCcTzu3aroSkdco5bb4pXp3f1fp2RVzoni0yrpSjGYu7Il7V/vjeuRS4ydFGUmSgPaUCDA2IAUMRsi98zZGp3yfeXTXQA25gIrHzjzyZbRlJFFBu8CFiM4BQZJLO2lsdSAlgzO26Coq8NLAwvuT0TDaOYADPuQG/q997WvVbZDaADjOQhT23VBX+Ry2a18eQAdG9YheCMwZkYGTQG4OAFn17XqT+siMOKYJRgr06TjZOTdyDkf0d45M9OG8/tMffeu77/RDj+TOZ+ySEZnIaZhq9CC6sZe+64vhNefTaq6oXo4VKWGA3ehQfbmQpA111ZN6yWUqYjSD4PSsPxvRWb2Nm/V5Y0TtjAvuA3E72sGBstSzWEo8Ad8Dthurva27sBIPNZvdHY9X3B6rkjEMZqxUmqFjboAgJWmBA2kZPMlqn5t8gMTrAoHhFyMCXdavDgBSB0DIZzjMoBJQ8uySIZq6MynH0yOYupEdMIAnI4V61cdB8O7kBTIEABQgk5RHSPM3xxLI6lfWRjaARgz9siGBJAohMyehDbJkH6sM6/xH92TJtrSrPcdzscV3To9j0z8JsZGT89A339mNw9NfeuFcjBjomd4lbSHYSJDOMXqjc3UZmeh/tiE/OdSJ+PSsbmW0a08mjo6Mzf3nEMimHxwbR5Or0s15tXWrpw3NUZHDrYFL8/EbwIfj1e0T8bbseLx/K6K61zRUX6Z7psrP3/vz0vmuMNT+xs+rKAngGNXG4wEfYyAIMDuvPYZjBMBnOB6d18xo5hjjADlgKIeIwK2c8gCAhAClboaTB2BEMnmAlgzazJSAU5d2EQxAtaOMhEDq1Qd1kF8/5AMs/RN9pQQ7ucikLXIluB3TT2BWv7rs5ddPx5UhR+qnqngd/9SjfZEUkLNtdYtY5LVYYyTB2TmvPaSR354MErnIQC/kGA5SIKpjdJb9yGkHXRve53HlzUvtU8fqJYO23MiS0ZReOVGkIx8d18sop37ycUBwIT+Z9IN8WzFtSGoAH9wVlx9+6Uh5+pNPl/npeLjwK0HIhYiEl/4oBXHdyrbQFy++PRQ33N8bd/wM9VXHeT0GRgqLM0AK2Dwrpdq0I8ICUQI3iWrPowNNEtMxhMmNxwUa9SJRRmGfRT5tioSinDuTEF17ZFBO+4CK1AACYFZlyWZupB3lkVcdympT3QCifr+PBShRPue1IqobKgz5zOVEB2CSHwgRWxS1gKNvhm6AiTDa0i79KSMveci2vNh4GoPP5NZuZ/cbl54AWXkkVTeCaFt9gK3P7uBRrzrSKRhNcID0jTAirY3jIZO+04/+IEdl+ygvP/3Qq/oN2dUrMrKFyKu+TM6R0fn8SaQhq7rpgM7ZpFWiJ+WMjMjK0bjUw5Z0sVXThoiq08AxeGCw7P5Pu8vLKyNlx7fiAVsvxhu54pFaAY+KjJ4sMLY7njb4oXi6+OdWym9+5jfL2fON5xUpj6D2vCYvKDEcsAKLjUEBypYgkI9REUOEYFxk9rM44AIMhLKCiRwIIC9PbfOZwREQmLXBsB74LNqILN5DA4gZ1eXTvvqAQfvmq+o2p+PJgR+o5MvoahHG5SByIQFiKON7RhJgzqG3vueWJDLX0k8OhxMYiSGktgyLRTDteaDc6GujZWZspiKsl+bu2B9D2rgrKZ2OyEbPiKfPAOy7oSeHIR/dqD8dEF1rV7/II4+yGb04IqRly7p9nCejuvTzgQceqMrJLw2HIyN/PSlDRpe+3HON2OxgMY0+VyMpW2iHvclmsZCeso/1Nrba5w2t+mZnvSTHjQ/nXz5fTj16qpx/YqwsvxQkeDWeVDAQRDoSQ8n3xQLOh+LnUCfi6Xrx+MTFpcYzXAEkjcjzIQXwMlQOXwEWOEQNAEHq5sRI9Q3QkBYY3dyNYDwxz+yzvElsXtjG8yMar4+oHIcoIToiF6AyOrAAt8Ud4FMv+bQHlKIAUOmPCEpe5/THeUBDCCACKvLJh2zOaZuT0bbvHJWhIkCLFkkyzkadou5dd95V7th9R9n5bEwdvhlPlliOX/PEkx/mO2J0cdtomf3kTDn220dL32BfefKpxg8BMtoiH1noJUcF2tZfukdgTiWdVTo2OtO+6QKdiIxs5Dz9s6NVbv1RD4dGf5yRkYC87KEdiU0cd95agyhNh9png9VIqhxZjBCskGuLw4AVsmzlSJo43xSippIBf2I0fmf5+mSZH4354Hj8zK037kraHU8LPBS3Bg7F/Cye1g64lAtogMdrM6bEaEDBoJTPWIayIgnQOm74xwj2jAdgqxmDTIBsrgM8vD1SAb3v6s0Im1HZHsiQyvzI6q3LFbw/wiCnsmS3oKNtoFMnoAMumYEQIR0npz4jGQdgqK9OQBIpyQBgopK8AKt+/dcHZfWTbPSi/sqhnY6b4b/9cBk+/67y4aWPlLvG4xX3I3GpK/6sC3gnytz2yHtHTA3umy0jQy+Wc7vOVT8e5wDIwTnSq6Qd/fEdOWzy1IeO8piu0Kv+SBwZHcjH4eljRmP9MlLRVw5IOaTlHNibLvWTc+bkOFc24rg4wbRx1VDTP3LQFftqj33YiZ1bOfSm4lvm65tD03WKnsb1yvPd+932FquAAT4PIaYwRgK0TPI7RrEIxzgAC+gAyFAMLJ8IZzMUTQDLD2gIm2DTjvz15BjCOA5UgCK6AWcOacnRnIAHiICSPIiBMIAIvIBMdinJB1Dq5M1FWyMFEVpEGA7wKANY+ghYUl4PFUVEMe0CpzYM/5FSfo6MDpSXsi5t3nbhtnL78/H27fG4na7ENcj4ywW9WBevrm/veL6h45ldsUL76fhB/f43Ln+pk07oUbt0ylnqSysnyKmQFbHoRH/Zih7VY66rP8iHoDY2VoZe6FQbHJ669E00ZH+X1/RblDfkpe/VUjpLetYme9Hz242k+r+hVd9WCkQIxmU0SgYoZBENWyX5nQeKzMP4wCN62ACI8dKzM1BGQcDICJOAc15StzrJAxSSvPIpn223AqNzZNcmMiCLPqnHpm9kziGhOnwXJYAWEMmGkLYEjzrUTUbngZmMSMj5cAhkJB89pJwpo2M2ejHlWJiKJ/H9JN5deibeXboYF/yDmDFOqIhaLeLFJ2lbvGi6fyaIEa+9WHrvYum/K+7M2tu4TktuTk805yDJnvYgaz2Rm/PRJ7LJj1SpI+ds+mAkwenQFzIaJttrhz3ZwahB9BVlnXfcL5JMHTiNVgnR6YnT5izUyU5WjumZjt9uadOGvpulGEAQwQCBV2aQHCYBEPIAD5ADN0PnaiXg8NyGYAzmM5AggjIMbFhmuGruBEiGpiLeasYlD9D5HSVAqE9en5HUvIyjIauo4K4XQERk7eQTES1webwKEssPpABt1TcJQjbDZpFFXvJr36YPNmVt+jM/EzeyP/N6ufd/vq8cPBN3Y8Vwt/k+67pdQguxIB/z6P8S9yL/Tjxd8f3Hq1EBna4ncQ5ktChGFpHU3Npn/XHLILshGLLRj3Ps5Jz++sEEvRvZGKqyozx0rH5zUhF4NZnYkJ3NYdWRUZQNVyuznr7d6nk2PaJutMMASOEIYWMUHhd5AZSnt2dc54EZIBhMpBH5eFrDZMZnWPlFJGWyDvXw4MqIBurSdnNyTNn04srz+spoA9CcR0x5RUUypZzOcyZk0b6y5M3+OS6PYXTO4wDYKrHv9XmktpGWzPTitQmz8aykYz++owzMxu158ZdD3uZ++C62GhYvfWyh7Pno7nJguPFTvFb9bi6vXU7TMJ9+ySaSkglJOSkbZ2o4j4z0IiGvyMeuiM2xjsRwFTHlow/nOTH10t9qMuk7HVuZ99m0JvW2WpnmvmzF77ccUSmRwgEAmBkSCZDC8Mg8h2EdA3xgAABDH3kNPYFFQhCeF/BFAvlFQ2WBQRuiHsP7jFzqaza472RRTvvqdT0P6HxXB8I5z6kgHhnIpBxyIpa2ORLATqJyMKIzR0S+XOGUx2f9QVZ9M1Iw1HQMQA/sj2un8eP83X8XPwifjJFG/K0nTX9gqvS8L+7OOkKP64um5KZL0dQoAkn1l+xGAEYoCGOoS176lOh9JEiJ6PpsgU5kNUoykjD0Fxnz+qhonGWb+0JHRi6uddODtuiC3Zpt1lx2q3+/JYlKqUlWkYshgEJCCEOpBDaj2pBAPsBPEtgrpy7AR3Yks+eN5VcOsdQpD1K1ImsSXF3ya19byKgNQAQ6IBwJYBp6Ax0ZtKNdzkE+4FWe3DmcV5YMjgE8ByCvNjgmekhdZP96unvirWFxd8nfxsLcWNxhFa+tWCshsqHx3P2zZfuHY34dPzDXr7WSkURGQH3TL9MFfeaULA7RJ0eCfDlHJLs+uhZq1Zxuya9cOiPn9dlxc1IEJ08z6URebYnmZNF/81ER2Ofm/Gv1Z6ueu2WJWleoiAnkSCTqMBqDAZHvSdY0mO8MiAQAhExSAsPQTYSQsk6AATjtaK8VWdWbdSEjp2GeBngApn71AmYSTH3OIaqo6js5fUdYMgKoc44hLLCrO/tYj1CV0Jf+IYPr1zPfnS3d58JhLa2+iI+kbkC50BHvJf3cUhn8WCzQ7Wk4pXqd9c/0i2D6ajTD4eS17iQvmcnrBhB9oaMsZ2phDk639IZYoqBIyobO07Ohcs7d04Yph7roRCSVn17Nf00V2Kk5f5Z7u+23BFEpHSF5YwT0GciBSGTkcSVGcy6NZw84jIsgyjKuPKKi8spmfiRDYscBKAlbVX6pfvVlefnVaVO/TTKXy3qRVF0AZwjOMYi0SKYt9cmTbemXDSnUrx4Rx3l5U1btqFM9o0/Gy4zi9bGdc0HFuNcaKZv/Yvpalvvih9cH4s3r/yGGvR8wT159yKhuciCUTTLc5viQ03CfnhBmOC6J6BO9sAdimXOKgDYkdJ3V8BaZ6cdwV98MXU0h9K2etK8uJNe+PT3La9hLp++kdMut+q5X+QxpKGYBAwEY1XU3cyfEBJq1kvIiqPmpekQIn81/nHPLWj6hvxUoREBg9DtH4DMUAyBlAdjxvMHfORfvtWNDVoBDMk/uQz5RBRHM+fwwGjmBGJkBFdDlaQY0sD/xwyfKxN/Ea+f/NhaIfh7RPe5Iaiwq5fJROI+46eHkiXhz3BdDT//x7rhDrPHm79V0RJ9uiXSnj6G4iEkP9G2eaRRhqIuo6TyMAvTPQo8Nqe+///6qXxwP5+g8vSjHVq1GC6lD/TYn5shEUQ6huf+ryf92O75lImqz4oEDmHlZhgSSnNeJPra1yKq8coZkIqG9+hCQxwdUCcDUAyD1+rI8MIl8ziOsOgFaXYbCbhE0TwNs50UGkUqbwIqswAvEZHbcnNQwz3fnRSjycATaSWKQz+euvviFUPdimVmKGzMmZ0vHORdiItrGFlddy/TO+EnavfFuz8/FM4LijeNDx4eqh6Ap3yohvz4hKZk5Ff0hEwIa6hryI6K+Ihb5DI85HgQnl2EyMrOR75wOknKQhsD639wf8nB0nKBFKv3XFqeV9bSS+e1+bMsSlWEQBzFyPugzMCEssvmOaKulJCBCAIHhGy8PRIglyrqF0PxIXoDMNgEPSNUPTKIxElqZdVydSXznfDdk9BnxJHM1xBRhgddlDIAnA7IYHvoO0MoAMIeiLu1L9p4wOLA3fhl0e2+89zQuXxyPXw7dMxrkjF/DfGy8LD64UAY+HzfUfypWik/EDyZ2NqYPVQVN/7THceTrQgxX9ds8lXycRS4akUN+fXKd1DDX4hK9uw5sFKBvSVL9oVPE03e6y36kGPSgHnnp2iKTNumJXt+paUsTldEY09wVWW1AJboCtoiGsLy2Td5WKckHOIZiSGqf0c58DCARRTRUtz0yARDAagsR1aWtlIkD8F1Zn5UBbJvviC1qkVud6iE/Qoqy8qvTngNyXDlkyATAfsDvp4M9d8Tq711xLfreuP3hA71l8KOxqPax3WXoA/Hj86Pxrp+BN+4Ay/K51y4iGd7aG/JKPiOQvppepG4cpxvRL3WCeIiYD9gmO70gnz4jHfKry7lMdC2Ky2eUon/qIQO7vJNJSkdbnqhpaEYXwQzL7IEcMBjdOcRhfEBq9uJZR+7lT9KKZgAMbDksNo8EXMTKdtWPjKKOdnIojVSiimgLdJwJMopawA24OSKw51isGgOycwgqrzqd05665a33w2cOwWsU9w7FddfbGsQcOjpUfZdf2dUSR8ERiGT6agGIDL6Tl0Mx0sgVaeR0zggGyURI+qGvXMXVnmPIZx2BLsw1yV8nnj5qA+nVx37ITF/y1fu5mvxv9+NvG6KmoYADIACTkXlphJCcS7DaXw0AgK8eczFAAiAgQxqkdIxDAEZ5baKRc8iJ7PKSA9kkdSGB48BrLyIjuvrtEdKWZPRZRBd5fVbGOfvmPviub9okz3qAjmhkHonhLcdGbvNSZOSUkG84FnL0XT7H9VP/9dP8keyZ19A9h8VIj4DOGzKLxmkDzoHu2IeDk8/0Q1scg/61U0MDW3bV92oGBAIABHCRglcX1QAGkIABKRI0q9WX9SgLyAClnFVQZLFAAoz2gMoxWARx9477fgEeaJ23gqmMti0YIcVf/uVfVlFKFHLcsBv4yWt1FdFEVoD2HRERULRx3yxZNpLoyMjAwhES0o+2zDW1QS4yI6W+uzuJ7PrF4dCf4+byfrYn6iK0UYiIa65rCOsmCY6mrm9OBzmtAXB4iMw2yutnsxPaSD+3etm3XURNg9QjC/CJEkiLSIatQJlzvTp4snzusx6E4OGVQ8gsL0IgFjAjpASA8mgPqZQlg3YcB0plAF5UzXLArV6yqk9CEDLX2/dd0rY+XC+oOSGyGGqTQxvq4lQk81GkMYXgODg8OkAoUVR+uhwJByYhKZnUyQkhtTzD4YBEZbrIpK85fBZREdnwWb/XMwrIet4p+7ctUdOAgJdkAQLAAwSgA0DnkwRZptUeyYAUMZRXVh2GsgjnuDmdoVteSnDe7ysRQRntACWiadfwzvwM2EUbYHYewJHXfJDMQI08PsvPEdg4AscQey1n06o/SKpehCKfvomsNv1BOjKLdgilfhFUJBX19ddikijPmVjhdVwZ80yXYfQRAZXTd9+1K2K7hCPiatd8VCTVF+Xla6crNfC2J2p2FwAAIUkFLLkgJAL4DiCAsxpQ1AGgiJHl7YFPxMwomSu5iACMopFzHAZQp5NQBrHJgeTK5TBZvcjhO5nUZZiqLWQVmUVB3xFEvtXkTh3kXhmEREBE5DjI4rj+5YIcEhvW62/+SiXnjvrhuqk8HIzoS17fzV/VPxyR1LBXnWTTJ46I3MrSp+G1CJ0jjvX2IfvyTtm/Y4iaBgUmwAE4Xl6kAlhzUCkj7mqAcVy5HHYCujqQUFl7ebQhD+fAEXAQCOcz8AOrcgl8Q14JcEUYRDT3A2z1qgs5lJeQC9gtUolaKXd18ir/1IFQIrc5IlmRSOQjj2gtyorYw0G2XMXVb8lxbXM42s32jTLMdcns+qd+ZCTlZBzntOhMO+o1+qCXdlpbA+84oqY6EBaJbIAHZMjhO7I5b2tFWMcyuoqGSI5oQJnRQx4AFI0cQw6gT/KSwxBRpFQuF6REXoRRJofFCK09i0rAri6bdgEfUQydr4iqcfegCFn9CDXayn44htzK2TuOpMqTVf1ILJ9bHzkOZMzy5CaPIT29GSIjnfyIT4/6qKwoqRySIj/nhMiSCJxOqjrQ/remBt62q75r9vrSSeBCBoADJMDn7QHXkNTiBtKs5vGVR1BkFf1EZkQXSYAQcTKSmMuNxKILsprnIR5Qf+9736uAbajoOyehvA15fEdm80Ft+K6sNtVHXn3IJ0gcPHCwTE/FXUzx2NCVpZV4nm/8znYwFqcGGz/5Q05tqgsBc5VZG5yDYa+hrBEAB6K9JKn+chBWeMmAxPpJdr9Hlcw163cdKZNyKovY5vWG+vW6L5mkvVtFA+/YiEofAChqIiJQ2iSAQgRDTQmg5EnAVgfjn+/OKec8gouSyouMIhRAy5PElEd+JJSHc0Bm5BCJRFZRRx7HJZFJXerhGDgW5FRXksSb9fr7YlFpurOcezhGB49MlumfTZfpX8R15NHJMrs8WxY7lqpIaKFHPWRAGJ/JbxhqLuo40pI5+5wk5YxsonvekGFOymEoa8sITH7R16UejpDTM2dtk7Qy6zX9e2O9/JqKvf0yIywyiAiABGA2czXky/tWkSXBm1pwTATOobJywItMyIcEIpXhniGnzTlR0zzNjfvyIKu6RT3fERIp5PWdfEjEEWhDu2RFiJOPxqNQXjlZjvbHo0zOxP21Ux3xToiQMK4YreyJleXbJssjw4+WJ87+tKz0xJP89zVeS0hmEZDT0L49gjYnshgSe6A5HckrCuunIa3ompdXlEV+owCru+R0HrE5gGb9NbfV/v5mDbSJWtMJ0Bq6AhMgAiCiApzVW2Q0JJSnPh8EPN+RUTQRXYAaWJFKXaKiaCICqisXcZwz5DU3lB8JPC9JW0gpqmvfXgR1TAJ+5NXe0b6jZdeT8YjPfwn5lnaVoXhoaMT72Bo/c/OmgsWeuMd46Hw5O3i2HP103JwfQ1Zti3KcECeg/60Skor0ZDYCcB8vMnNgjum7Gzzohi70hbMxvOZQLCwNx5Cf3trp+jTwjp6jXk1lIpUhm9VNUU9kQyBDREA3PM0oWq8LOS22AHJGEyQFaOcA2HDQ4tV9991XOQZ3MyG3OaO6kV3ERSRyyIuwiILQSEu20TOjZeKvJsq7f3p3ec/43SUemR0PC208LjRligF+Rdv5eLrDIwceLitfXq7IevzOxly6VQTNsoa8SGcUwKG4lILg+ibacxa5KqxMrkaPxPxZ393BpU901U7Xr4F39Bz1amoTHQBRpDCsAzwEQlrkycjaHIkAH9kMS4Hcj8gNgX0HWFFQ1EY8kQqQHRNtHUNqREBq+URqZdWZw06yTE3E/PPsdLn7H36pnDh3ouxYjmFw/L05iaylxP1RZd/s/jL0haFy5JOHy9CBK+8WenO5eCpEOCdzWo6F0xDtjQj8xtYowftdyEcHnIgfvSMpOd1CaeGIDttpYxpoE/Uq+kNWG/Ihk2hij2Aio8jmPOLUI5NjSGnOh2SuOyKiqIp8QM4BiEoWrpBetBYtRWPgF8l9R3LlkMEG+Orcuzvmv/EUwn3fCJnOxx1X1Uu5Vu+Qpz6IrVPvjzfqHY9hfvyGldytkkiqbU4JATkJq9WG4C7DmG+ac5OZ0+JgLIIZJnM0oiw91XXSqp32sfVpoLWV1lf2HZULQczjkMQe0QxVzdHMyQAXmOtDPOQSUZABwOVNQiMaMiK+CKWcFVP5DTMRRd68NOO8ttNpkKHEmwp39Mfq8krcRxxPIGzEzdXNgqiGwUvxTqCFqTeeNdWqhPYRlIPRlmjqGCdCF0YYZEdS81AkNRSnBwtH+kfWdtocDbSJeo16RB5REmlEDAtOiGpILMoOx6KJiClfRlqR09wOIUVJQ1qkNOQ1RARwc1DDXYtFIpXvyiECgiMLR9AM/m1BhuZj6+pSkG61hJBGCkgqIoroyGkEYQ5q8ckx0VN/rPxyRHl5h36uS6bVBGofL22iXgcIchiMqIgFqCMxLzP8k4DYkFDUlRepERPx/OwL8ZA1SW9VVKRCBMfc1eNVjMohsXmuurQlsiYJqhdweV5SfzzcuzNee7HcetU2uxiUrhaaunbGo2J2NN60nudyj6Rk43QMyw139RMhbb7rCxk4Kc5HXjIb8hrCp3xZZ3u/cQ2056gb1CHiGMKKdsgksoqMkqEv4iEr8MqLwAiIfPIiXxIQKQ2n5ReVEVekEk1F2Dr51V9FvljsOf//4sHdr8flmgurL9ogafy0vcx0T5fO34lXa9y3q+zYdeXjUNQpkpLNM5BERlEfYfVJxLSYJI/FJUN0EV+ENSfV/zZJaXHzU5uom6BTw8IkoaEsYpmzjUSUBWSRFDkle9+R0/zTwowoZL6HiBZwvFhKdELWOvCRWLRWv+Miamdv/BTtZNz2+OpS6RuPp+kv971p5RdJzU1jramc/MRLZd8X95V979lXOZLm7ptvut3R9WOXVlw2Iqdb/2z6acUXSTkoTxrkpHKo31xf+/vmaKBN1M3RY0UckbC+quu7OZ2IJAohaW4Ab0iZURRBERaJEdRKsAUZTsCijvL2yti0g6ydXfFy44GlcmEw3phe4sHfU0ulZyae9B9/XholeYPbxJ54PvBn4xGkX+gpB++Ly0F7r7zRXnTmCBDQnNs1XDKYh1o4slm1FmnJbMFIHs6lTdJNAtEa1bSJuoZyrucU8iAjMol8rkMimA0ZnMshsfNJRENb0ddw08qpoSZyKuM4IqsbKRBY/b4r3x3zzZVd8UiV3vjh98WZsrwSPzQYWCwLgxfK3N65MnU07vuNF0N1fjFeQvUr8XzhI/FLm94rXw5FTiQ17+RERHifDX1tzltcspmjDseiWS4yXY+e2mWuTQPtxaRr09e6c5uvudQC9D6LVoAvGiEBkCObYSNCmo9arPHZCjFyyI+MIi2imK+6O8jijaEzokvqKXfFbYW9XWXi8ERZeXq5zE/MlouLMeTtK6Vjfym7ju8se++LN7TH2+B7+998l5DIL5JqzzYSw3YOgXyGvmTRPpIa3me0X7dC2hk3pIH2LYQbUt/6CiMZIrhB3TAYwayeGj4isSiJyOar9kkGq8MiMbIjj/OIrKyVYvlE1HqyYotwSLW0GMPteDg3Uq1GLBFbtFa3+anozZlYzf30pz9dLWzl/c7mzeak2iRPO908DbSJevN0XZEMUQ0frawihQUb8z/kNQd0qcdijRVWc0BERSLDZaR2Hukt7HivCwK2SgiYaS1SiZYWvsgkn3La8q4cxLWYZN5cf/ZR1tve3zwNtIl683TduJwSERE5RD2kRULDYMTLu3/MV5FVJDYERmJDUd8t8CA5grqh3/XLjLjX2hXR2TD6Bz/4QRU5fUdKTgJp3T44HHNRkd9x8+u1SH+t7bfzr18DbaKuX1ebllPUQjpktYCDfAhgLoq0yGkxybxVPkRNkoqmiKqsyyOf+MQnqmiHrNeSDJHV41KMtpDQCq75bsqmflHdfNjwvJ3eOg20tf8W6B4pAT+HlOal5qMWbAx1zRktRJkLOu6OJ6vB8juXi1PmkchtrpqXa9bTHY7CHJYjcOMCWRDdXv2G4AhrUUubbZKuR6s3Ns+VKxE3tq127U0aQFjXTM1RLdSIpEhkvoi0yGfVFWks8JjTinxIJZ9VYj+hQ25RcL1JXYbdiCpCI6KobUhuE0ENqdskXa9Gb3y+NlFvvI7XbAFZES9/v+k1FYhphVi089mCE/J4N6n8yIrghqqIOhLzV0NhRL5aQnBROn9j6rvrtpyCGzR89iIn8+V2JL2aNm/e+fYNDzdP11dtyVDXsBZJLBZZdbXKK2Ii6nAs7IiAyJV3PZnfIqjoJ89ac1XlDHm/853vlMcee6yqx7BZFNW2lV3D3eZbF68qeDvDDddAe456w1V8bQ0gDLIhkIhpfmoYbHXY8BQhc5jrvO0b3/hG9YsXJPeiJlG3OSGp2wH9Skc0tbLMGZiP5iUiw2xttyrfXF/7+83VQJuoN1ff624N6WzIabNoJJpa7EEk3y0wWSX2ljjP2j1629Ey0BNPbYinPixNxJz1wkrp6I/XYuyNp0PsiNdNjJ4pDz30UHVThehrTuxXLy4NIfy1LEituyPtjJuigTZRN0WNN64Sw1DR1aUSq8MWmiSRLyOs/SsvnSpP/OjJctvs7WXP2O6yfDLmq5PxRIe98Yud4/HumoPz5fHTj5Uf/ehHZd+BfdUCFoK6sUHdInk73boaaBP11rXNZcmQCGEtOImmrnuavxq6ioR79x4qE2eXytQL3WVidKkceTWeMHE6TDsRdxrtiXfEHlsos3vih+CTZ8rSTNyC+P47KoKKpm2SXlbzLf2hfcPDLW2e1sJZPLKI9NJLL8fvRp8vf/utZ8vEhUPlyOLx8vEXj5R/+5Pd1W9SG89Iip/CxZ9HiI52nitP/drPywf/6wfL8K8Nr7nw1Lrl9tG3SgPtiPpWaX4D7Yqwoqlb++bj5W6dB+JFT9N9ZXRpWzl9Pt6bWuJ3rJfqR1Yk9dPx/RcPlHedO166JrrKwoWF9px0Aza42UXTnje73XZ7G9VAx7Yyv9Rdnj/TVWY795Sl7v4yFz8xHe9dKpNd8TvWWv3IWkXXOLjv5L4y/8J8mTo/dXn1uJa1/fEW1UCbqLeoYdYSa3Ex3jXz2mz54c/OlUeemy0zi13lYhB3advFMjmwXF4fikeBxud6QtSVi8uld7KvXHglbhM8Fy+Niss17bQ1NNAm6taw02Upl5bj1sGx+fIv/zpavvPwmfKL03NlIV6vKCHnTDyW5bUj8c6bjjc/M79B3Xhf6dRKDJWX2hH1slZv/Q9tot76NrpCwqmZhfLzF8bKo8+eL2fGLsRjV66MnBe6410xuxfLRG/MTDuuPHe5os6Ysdpa3BhxOU/7wy2lgTZRbylzrC3MSpDy6RfHy0+eGi0vnvJspDcTcSwi6iN3TpVn7o1HnQ28ce+vxaTG6m88rfBYXxk43Hgj3dotts/eKhpor/reKpZYhxwi4G1D/eXDd8cLpwa6yytn58q5iXgP6cRiMSSWViKKznXHayZ2LJWlzjeIXBG1I56KeGiq9ByJ99/saryoeB3NtrPcAhpoE/UWMMJ6RTBSPbA3XjDV213edduOMjEdQ9zpC+WfHxkpI6/GKxjnt5ULQcbFrpXy0lD8ZK3bZZl4In78LceV1dOdp8vEx8bK8Ik7ysCO9hPt1ymeeI4AAAF4SURBVKv3WyFfm6i3ghWuQYb+eIWF7eC+/urXL8vL8cuZjpny1M6xMvLyfDkbdyYtLMSlm565MtsVz/rdHlF1R7ymYu+FMnl8vPR/IZ4nfDyGvfG40PYc9RoU/xZnbd+Z9BYbYDOad5nl3OnR8vLjp8vLj42Vs2fiGb9THeW9j+8ou7q2lZXhhXLxAxfL7k/vKodPHC479zRecrUZbbfruDkaaBP15uj5hreCrOPnx8vrL75eRmOxaeZMvLd1Nh74PRj3Cd/RV/bcvaccPXG0upHfb1nbaWtpoE3UrWWvVaX1e9OVGAZ7lu/ywnK5uBRZY1XY+2k6umPFt6ezdPV0tX8ls6oGb+0TbaLe2vZpS9fWQKWB9nXUNhDaGtgCGmgTdQsYqS1iWwNtorYx0NbAFtBAm6hbwEhtEdsaaBO1jYG2BraABtpE3QJGaovY1kCbqG0MtDWwBTTQJuoWMFJbxLYG2kRtY6CtgS2ggTZRt4CR2iK2NfD/ATjrXQUrPOpJAAAAAElFTkSuQmCC;" vertex="1" parent="1">
          <mxGeometry x="986" y="451" width="124.67" height="130" as="geometry" />
        </mxCell>
        <mxCell id="li965YYbxcyMD9VlGafR-13" style="edgeStyle=orthogonalEdgeStyle;rounded=0;orthogonalLoop=1;jettySize=auto;html=1;entryX=0.5;entryY=1;entryDx=0;entryDy=0;" edge="1" parent="1" source="li965YYbxcyMD9VlGafR-11" target="li965YYbxcyMD9VlGafR-4">
          <mxGeometry relative="1" as="geometry">
            <Array as="points">
              <mxPoint x="1290" y="690" />
              <mxPoint x="551" y="690" />
            </Array>
          </mxGeometry>
        </mxCell>
        <mxCell id="li965YYbxcyMD9VlGafR-11" value="&lt;div style=&quot;font-size: 17px;&quot;&gt;&lt;font face=&quot;Times New Roman&quot; style=&quot;font-size: 17px;&quot;&gt;&lt;b style=&quot;&quot;&gt;Generated&lt;/b&gt;&lt;/font&gt;&lt;/div&gt;&lt;div style=&quot;font-size: 17px;&quot;&gt;&lt;font face=&quot;dDZM1I6kvlQNPY2xav9D&quot; style=&quot;font-size: 17px;&quot;&gt;&lt;b style=&quot;&quot;&gt;Data&lt;/b&gt;&lt;/font&gt;&lt;/div&gt;" style="rounded=0;whiteSpace=wrap;html=1;" vertex="1" parent="1">
          <mxGeometry x="1230" y="490" width="120" height="60" as="geometry" />
        </mxCell>
        <mxCell id="li965YYbxcyMD9VlGafR-15" value="Encode" style="text;html=1;align=center;verticalAlign=middle;whiteSpace=wrap;rounded=0;" vertex="1" parent="1">
          <mxGeometry x="639" y="497" width="60" height="30" as="geometry" />
        </mxCell>
        <mxCell id="li965YYbxcyMD9VlGafR-16" value="Real or Synthetic" style="text;html=1;align=center;verticalAlign=middle;whiteSpace=wrap;rounded=0;" vertex="1" parent="1">
          <mxGeometry x="880" y="489" width="80" height="30" as="geometry" />
        </mxCell>
        <mxCell id="li965YYbxcyMD9VlGafR-17" value="Generator" style="text;html=1;align=center;verticalAlign=middle;whiteSpace=wrap;rounded=0;" vertex="1" parent="1">
          <mxGeometry x="754.76" y="585" width="60" height="30" as="geometry" />
        </mxCell>
        <mxCell id="li965YYbxcyMD9VlGafR-18" value="Discriminator&amp;nbsp;" style="text;html=1;align=center;verticalAlign=middle;whiteSpace=wrap;rounded=0;" vertex="1" parent="1">
          <mxGeometry x="1030" y="579" width="60" height="30" as="geometry" />
        </mxCell>
        <mxCell id="li965YYbxcyMD9VlGafR-19" value="Decode" style="text;html=1;align=center;verticalAlign=middle;whiteSpace=wrap;rounded=0;" vertex="1" parent="1">
          <mxGeometry x="890" y="665" width="60" height="30" as="geometry" />
        </mxCell>
        <mxCell id="li965YYbxcyMD9VlGafR-20" value="Epoch = 300" style="text;html=1;align=center;verticalAlign=middle;whiteSpace=wrap;rounded=0;" vertex="1" parent="1">
          <mxGeometry x="284" y="609" width="116" height="30" as="geometry" />
        </mxCell>
      </root>
    </mxGraphModel>
  </diagram>
</mxfile>
